<?xml version="1.0" encoding="UTF-8" standalone="no"?>
<svg
   xmlns:dc="http://purl.org/dc/elements/1.1/"
   xmlns:cc="http://creativecommons.org/ns#"
   xmlns:rdf="http://www.w3.org/1999/02/22-rdf-syntax-ns#"
   xmlns:svg="http://www.w3.org/2000/svg"
   xmlns="http://www.w3.org/2000/svg"
   xmlns:sodipodi="http://sodipodi.sourceforge.net/DTD/sodipodi-0.dtd"
   xmlns:inkscape="http://www.inkscape.org/namespaces/inkscape"
   width="111.62502mm"
   height="235.45001mm"
   viewBox="-226 -286 111.62501 235.45001"
   version="1.1"
   id="svg869"
   sodipodi:docname="lockingBox-side.svg"
   inkscape:version="0.92.3 (2405546, 2018-03-11)">
  <metadata
     id="metadata875">
    <rdf:RDF>
      <cc:Work
         rdf:about="">
        <dc:format>image/svg+xml</dc:format>
        <dc:type
           rdf:resource="http://purl.org/dc/dcmitype/StillImage" />
        <dc:title>OpenSCAD Model</dc:title>
      </cc:Work>
    </rdf:RDF>
  </metadata>
  <defs
     id="defs873" />
  <sodipodi:namedview
     pagecolor="#ffffff"
     bordercolor="#666666"
     borderopacity="1"
     objecttolerance="10"
     gridtolerance="10"
     guidetolerance="10"
     inkscape:pageopacity="0"
     inkscape:pageshadow="2"
     inkscape:window-width="1869"
     inkscape:window-height="1025"
     id="namedview871"
     showgrid="false"
     inkscape:zoom="0.26717908"
     inkscape:cx="1054.8635"
     inkscape:cy="93.957605"
     inkscape:window-x="51"
     inkscape:window-y="27"
     inkscape:window-maximized="1"
     inkscape:current-layer="svg869" />
  <title
     id="title865">OpenSCAD Model</title>
  <flowRoot
     xml:space="preserve"
     id="flowRoot927"
     style="font-style:normal;font-weight:normal;font-size:40px;line-height:1.25;font-family:sans-serif;letter-spacing:0px;word-spacing:0px;fill:#000000;fill-opacity:1;stroke:none"
     transform="matrix(0.26458333,0,0,0.26458333,-566.05,-454.275)"><flowRegion
       id="flowRegion929"><rect
         id="rect931"
         width="648"
         height="1032"
         x="530.17322"
         y="564.94489" /></flowRegion><flowPara
       id="flowPara933" /></flowRoot>  <path
     style="fill:none;stroke:#ff0000;stroke-width:0.5;stroke-opacity:1"
     d="M -114.62499,-285.75 H -216.225 v 3.175 h -9.525 v 25.4 h 9.525 v 25.4 h -9.525 v 25.4 h 9.525 v 25.4 h -9.525 v 25.4 h 9.525 v 25.4 h -9.525 v 25.4 h 9.525 v 25.400003 h -9.525 v 25.400007 h 9.525 v 3.175 h 101.60001 z"
     id="path55"
     inkscape:connector-curvature="0" />
  <path
     style="fill:none;stroke:#ff0000;stroke-width:0.5;stroke-opacity:1"
     d="m -209.875,-245.11 v -5e-4 0 l -0.122,-1.2383 -0.361,-1.1912 -0.587,-1.0979 -0.79,-0.9622 -0.962,-0.7897 -1.098,-0.5868 -1.16,-0.3519 v -2.5464 l 0.464,0.0457 1.668,0.5059 1.537,0.8216 1.347,1.1055 1.106,1.3472 0.821,1.537 0.506,1.6677 0.171,1.7338 v 0 5e-4 z"
     id="path53"
     inkscape:connector-curvature="0" />
  <path
     style="fill:none;stroke:#ff0000;stroke-width:0.5;stroke-opacity:1"
     d="m -214.955,-237.6215 1.16,-0.3519 1.098,-0.5868 0.962,-0.7897 0.79,-0.9622 0.587,-1.0979 0.361,-1.1912 0.122,-1.2383 v 0 -5e-4 h 2.54 v 5e-4 0 l -0.171,1.7338 -0.506,1.6678 -0.821,1.5369 -1.106,1.3472 -1.347,1.1056 -1.537,0.8215 -1.668,0.5059 -0.464,0.0457 z"
     id="path51"
     inkscape:connector-curvature="0" />
  <path
     style="fill:none;stroke:#ff0000;stroke-width:0.5;stroke-opacity:1"
     d="m -209.875,-194.31 v -5e-4 0 l -0.122,-1.2383 -0.361,-1.1912 -0.587,-1.0979 -0.79,-0.9622 -0.962,-0.7897 -1.098,-0.5868 -1.16,-0.3519 v -2.5464 l 0.464,0.0457 1.668,0.5059 1.537,0.8216 1.347,1.1055 1.106,1.3472 0.821,1.537 0.506,1.6677 0.171,1.7338 v 0 5e-4 z"
     id="path49"
     inkscape:connector-curvature="0" />
  <path
     style="fill:none;stroke:#ff0000;stroke-width:0.5;stroke-opacity:1"
     d="m -214.955,-186.8215 1.16,-0.3519 1.098,-0.5868 0.962,-0.7897 0.79,-0.9622 0.587,-1.0979 0.361,-1.1912 0.122,-1.2383 v 0 -5e-4 h 2.54 v 5e-4 0 l -0.171,1.7338 -0.506,1.6678 -0.821,1.5369 -1.106,1.3472 -1.347,1.1056 -1.537,0.8215 -1.668,0.5059 -0.464,0.0457 z"
     id="path47"
     inkscape:connector-curvature="0" />
  <path
     style="fill:none;stroke:#ff0000;stroke-width:0.5;stroke-opacity:1"
     d="m -209.875,-143.51 v -5e-4 0 l -0.122,-1.2383 -0.361,-1.1912 -0.587,-1.0979 -0.79,-0.9622 -0.962,-0.7897 -1.098,-0.5868 -1.16,-0.3519 v -2.5464 l 0.464,0.0457 1.668,0.5059 1.537,0.8215 1.347,1.1056 1.106,1.3472 0.821,1.5369 0.506,1.6678 0.171,1.7338 v 0 5e-4 z"
     id="path45"
     inkscape:connector-curvature="0" />
  <path
     style="fill:none;stroke:#ff0000;stroke-width:0.5;stroke-opacity:1"
     d="m -214.955,-136.0215 1.16,-0.3519 1.098,-0.5868 0.962,-0.7897 0.79,-0.9622 0.587,-1.0979 0.361,-1.1912 0.122,-1.2383 v 0 -5e-4 h 2.54 v 5e-4 0 l -0.171,1.7338 -0.506,1.6677 -0.821,1.537 -1.106,1.3472 -1.347,1.1055 -1.537,0.8216 -1.668,0.5059 -0.464,0.0457 z"
     id="path43"
     inkscape:connector-curvature="0" />
  <path
     style="fill:none;stroke:#ff0000;stroke-width:0.5;stroke-opacity:1"
     d="m -209.875,-92.709997 v -5e-4 0 l -0.122,-1.2383 -0.361,-1.191201 -0.587,-1.0979 -0.79,-0.9622 -0.962,-0.7897 -1.098,-0.5868 -1.16,-0.3519 v -2.546402 l 0.464,0.0457 1.668,0.5059 1.537,0.8215 1.347,1.105602 1.106,1.3472 0.821,1.5369 0.506,1.6678 0.171,1.733801 v 0 5e-4 z"
     id="path41"
     inkscape:connector-curvature="0" />
  <path
     style="fill:none;stroke:#ff0000;stroke-width:0.5;stroke-opacity:1"
     d="m -214.955,-85.221497 1.16,-0.3519 1.098,-0.5868 0.962,-0.7897 0.79,-0.9622 0.587,-1.0979 0.361,-1.1912 0.122,-1.2383 v 0 -5e-4 h 2.54 v 5e-4 0 l -0.171,1.7338 -0.506,1.6677 -0.821,1.537 -1.106,1.3472 -1.347,1.1055 -1.537,0.8216 -1.668,0.5059 -0.464,0.0457 z"
     id="path39"
     inkscape:connector-curvature="0" />
</svg>
