<?xml version="1.0" standalone="no"?>
<!DOCTYPE svg PUBLIC "-//W3C//DTD SVG 1.1//EN" "http://www.w3.org/Graphics/SVG/1.1/DTD/svg11.dtd">
<svg width="661mm" height="601mm" viewBox="-226 -296 661 601" xmlns="http://www.w3.org/2000/svg" version="1.1">
<title>OpenSCAD Model</title>
<path d="
M -38.1,-174.625 L -12.7,-174.625 L -12.7,-165.1 L 12.7,-165.1 L 12.7,-174.625 L 38.1,-174.625
 L 38.1,-165.1 L 63.5,-165.1 L 63.5,-174.625 L 66.675,-174.625 L 66.675,-187.325 L 76.2,-187.325
 L 76.2,-212.725 L 66.675,-212.725 L 66.675,-238.125 L 76.2,-238.125 L 76.2,-263.525 L 66.675,-263.525
 L 66.675,-276.225 L 63.5,-276.225 L 63.5,-295.275 L -63.5,-295.275 L -63.5,-276.225 L -66.675,-276.225
 L -66.675,-263.525 L -76.2,-263.525 L -76.2,-238.125 L -66.675,-238.125 L -66.675,-212.725 L -76.2,-212.725
 L -76.2,-187.325 L -66.675,-187.325 L -66.675,-174.625 L -63.5,-174.625 L -63.5,-165.1 L -38.1,-165.1
 z
M -38.1,-276.225 L -38.1,-285.75 L -12.7,-285.75 L -12.7,-276.225 z
M 12.7,-276.225 L 12.7,-285.75 L 38.1,-285.75 L 38.1,-276.225 z
M 66.675,136.525 L 85.725,136.525 L 85.725,117.475 L 95.25,117.475 L 95.25,-117.475 L 85.725,-117.475
 L 85.725,-136.525 L 66.675,-136.525 L 66.675,-146.05 L -66.675,-146.05 L -66.675,-136.525 L -85.725,-136.525
 L -85.725,-117.475 L -95.25,-117.475 L -95.25,117.475 L -85.725,117.475 L -85.725,136.525 L -66.675,136.525
 L -66.675,146.05 L 66.675,146.05 z
M -63.5,-127 L -63.5,-136.525 L -38.1,-136.525 L -38.1,-127 z
M -12.7,-127 L -12.7,-136.525 L 12.7,-136.525 L 12.7,-127 z
M 38.1,-127 L 38.1,-136.525 L 63.5,-136.525 L 63.5,-127 z
M -85.725,-88.9 L -85.725,-114.3 L -76.2,-114.3 L -76.2,-88.9 z
M 76.2,-88.9 L 76.2,-114.3 L 85.725,-114.3 L 85.725,-88.9 z
M -85.725,-38.1 L -85.725,-63.5 L -76.2,-63.5 L -76.2,-38.1 z
M 76.2,-38.1 L 76.2,-63.5 L 85.725,-63.5 L 85.725,-38.1 z
M 76.2,12.7 L 76.2,-12.7 L 85.725,-12.7 L 85.725,12.7 z
M -85.725,12.7 L -85.725,-12.7 L -76.2,-12.7 L -76.2,12.7 z
M -85.725,63.5 L -85.725,38.1 L -76.2,38.1 L -76.2,63.5 z
M 76.2,63.5 L 76.2,38.1 L 85.725,38.1 L 85.725,63.5 z
M 76.2,114.3 L 76.2,88.9 L 85.725,88.9 L 85.725,114.3 z
M -85.725,114.3 L -85.725,88.9 L -76.2,88.9 L -76.2,114.3 z
M -63.5,136.525 L -63.5,127 L -38.1,127 L -38.1,136.525 z
M -12.7,136.525 L -12.7,127 L 12.7,127 L 12.7,136.525 z
M 38.1,136.525 L 38.1,127 L 63.5,127 L 63.5,136.525 z
M 427.308,145.867 L 429.095,145.325 L 430.742,144.445 L 432.185,143.26 L 433.37,141.817 L 434.25,140.17
 L 434.792,138.383 L 434.975,136.525 L 434.975,-136.525 L 434.792,-138.383 L 434.25,-140.17 L 433.37,-141.817
 L 432.185,-143.26 L 430.742,-144.445 L 429.095,-145.325 L 427.308,-145.867 L 425.45,-146.05 L 403.225,-146.05
 L 403.225,-127 L 377.825,-127 L 377.825,-146.05 L 352.425,-146.05 L 352.425,-127 L 327.025,-127
 L 327.025,-146.05 L 301.625,-146.05 L 301.625,-127 L 276.225,-127 L 276.225,-146.05 L 254,-146.05
 L 252.142,-145.867 L 250.355,-145.325 L 248.708,-144.445 L 247.265,-143.26 L 246.08,-141.817 L 245.2,-140.17
 L 244.658,-138.383 L 244.475,-136.525 L 244.475,136.525 L 244.658,138.383 L 245.2,140.17 L 246.08,141.817
 L 247.265,143.26 L 248.708,144.445 L 250.355,145.325 L 252.142,145.867 L 254,146.05 L 425.45,146.05
 z
M 420.113,-130.377 L 419.627,-130.702 L 419.302,-131.188 L 419.187,-131.762 L 419.302,-132.337 L 419.627,-132.823
 L 420.113,-133.148 L 420.687,-133.262 L 421.262,-133.148 L 421.748,-132.823 L 422.073,-132.337 L 422.187,-131.762
 L 422.073,-131.188 L 421.748,-130.702 L 421.262,-130.377 L 420.687,-130.262 z
M 258.188,-130.377 L 257.702,-130.702 L 257.377,-131.188 L 257.262,-131.762 L 257.377,-132.337 L 257.702,-132.823
 L 258.188,-133.148 L 258.762,-133.262 L 259.337,-133.148 L 259.823,-132.823 L 260.148,-132.337 L 260.262,-131.762
 L 260.148,-131.188 L 259.823,-130.702 L 259.337,-130.377 L 258.762,-130.262 z
M 377.825,136.525 L 377.825,127 L 403.225,127 L 403.225,136.525 z
M 327.025,136.525 L 327.025,127 L 352.425,127 L 352.425,136.525 z
M 276.225,136.525 L 276.225,127 L 301.625,127 L 301.625,136.525 z
M 420.113,133.148 L 419.627,132.823 L 419.302,132.337 L 419.187,131.762 L 419.302,131.188 L 419.627,130.702
 L 420.113,130.377 L 420.687,130.262 L 421.262,130.377 L 421.748,130.702 L 422.073,131.188 L 422.187,131.762
 L 422.073,132.337 L 421.748,132.823 L 421.262,133.148 L 420.687,133.262 z
M 258.188,133.148 L 257.702,132.823 L 257.377,132.337 L 257.262,131.762 L 257.377,131.188 L 257.702,130.702
 L 258.188,130.377 L 258.762,130.262 L 259.337,130.377 L 259.823,130.702 L 260.148,131.188 L 260.262,131.762
 L 260.148,132.337 L 259.823,132.823 L 259.337,133.148 L 258.762,133.262 z
M 225.425,-117.475 L 123.825,-117.475 L 123.825,-114.3 L 114.3,-114.3 L 114.3,-88.9 L 123.825,-88.9
 L 123.825,-63.5 L 114.3,-63.5 L 114.3,-38.1 L 123.825,-38.1 L 123.825,-12.7 L 114.3,-12.7
 L 114.3,12.7 L 123.825,12.7 L 123.825,38.1 L 114.3,38.1 L 114.3,63.5 L 123.825,63.5
 L 123.825,88.9 L 114.3,88.9 L 114.3,114.3 L 123.825,114.3 L 123.825,117.475 L 225.425,117.475
 z
M 130.175,-76.835 L 130.175,-76.8355 L 130.175,-76.8355 L 130.053,-78.0738 L 129.692,-79.265 L 129.105,-80.3629
 L 128.315,-81.3251 L 127.353,-82.1148 L 126.255,-82.7016 L 125.095,-83.0535 L 125.095,-85.5999 L 125.559,-85.5542
 L 127.227,-85.0483 L 128.764,-84.2267 L 130.111,-83.1212 L 131.217,-81.774 L 132.038,-80.237 L 132.544,-78.5693
 L 132.715,-76.8355 L 132.715,-76.8355 L 132.715,-76.835 z
M 125.095,-69.3465 L 126.255,-69.6984 L 127.353,-70.2852 L 128.315,-71.0749 L 129.105,-72.0371 L 129.692,-73.135
 L 130.053,-74.3262 L 130.175,-75.5645 L 130.175,-75.5645 L 130.175,-75.565 L 132.715,-75.565 L 132.715,-75.5645
 L 132.715,-75.5645 L 132.544,-73.8307 L 132.038,-72.1629 L 131.217,-70.626 L 130.111,-69.2788 L 128.764,-68.1732
 L 127.227,-67.3517 L 125.559,-66.8458 L 125.095,-66.8001 z
M 130.175,-26.035 L 130.175,-26.0355 L 130.175,-26.0355 L 130.053,-27.2738 L 129.692,-28.465 L 129.105,-29.5629
 L 128.315,-30.5251 L 127.353,-31.3148 L 126.255,-31.9016 L 125.095,-32.2535 L 125.095,-34.7999 L 125.559,-34.7542
 L 127.227,-34.2483 L 128.764,-33.4267 L 130.111,-32.3212 L 131.217,-30.974 L 132.038,-29.437 L 132.544,-27.7693
 L 132.715,-26.0355 L 132.715,-26.0355 L 132.715,-26.035 z
M 125.095,-18.5465 L 126.255,-18.8984 L 127.353,-19.4852 L 128.315,-20.2749 L 129.105,-21.2371 L 129.692,-22.335
 L 130.053,-23.5262 L 130.175,-24.7645 L 130.175,-24.7645 L 130.175,-24.765 L 132.715,-24.765 L 132.715,-24.7645
 L 132.715,-24.7645 L 132.544,-23.0307 L 132.038,-21.3629 L 131.217,-19.826 L 130.111,-18.4788 L 128.764,-17.3732
 L 127.227,-16.5517 L 125.559,-16.0458 L 125.095,-16.0001 z
M 130.175,24.765 L 130.175,24.7645 L 130.175,24.7645 L 130.053,23.5262 L 129.692,22.335 L 129.105,21.2371
 L 128.315,20.2749 L 127.353,19.4852 L 126.255,18.8984 L 125.095,18.5465 L 125.095,16.0001 L 125.559,16.0458
 L 127.227,16.5517 L 128.764,17.3732 L 130.111,18.4788 L 131.217,19.826 L 132.038,21.3629 L 132.544,23.0307
 L 132.715,24.7645 L 132.715,24.7645 L 132.715,24.765 z
M 125.095,32.2535 L 126.255,31.9016 L 127.353,31.3148 L 128.315,30.5251 L 129.105,29.5629 L 129.692,28.465
 L 130.053,27.2738 L 130.175,26.0355 L 130.175,26.0355 L 130.175,26.035 L 132.715,26.035 L 132.715,26.0355
 L 132.715,26.0355 L 132.544,27.7693 L 132.038,29.437 L 131.217,30.974 L 130.111,32.3212 L 128.764,33.4267
 L 127.227,34.2483 L 125.559,34.7542 L 125.095,34.7999 z
M 130.175,75.565 L 130.175,75.5645 L 130.175,75.5645 L 130.053,74.3262 L 129.692,73.135 L 129.105,72.0371
 L 128.315,71.0749 L 127.353,70.2852 L 126.255,69.6984 L 125.095,69.3465 L 125.095,66.8001 L 125.559,66.8458
 L 127.227,67.3517 L 128.764,68.1732 L 130.111,69.2788 L 131.217,70.626 L 132.038,72.1629 L 132.544,73.8307
 L 132.715,75.5645 L 132.715,75.5645 L 132.715,75.565 z
M 125.095,83.0535 L 126.255,82.7016 L 127.353,82.1148 L 128.315,81.3251 L 129.105,80.3629 L 129.692,79.265
 L 130.053,78.0738 L 130.175,76.8355 L 130.175,76.8355 L 130.175,76.835 L 132.715,76.835 L 132.715,76.8355
 L 132.715,76.8355 L 132.544,78.5693 L 132.038,80.237 L 131.217,81.774 L 130.111,83.1212 L 128.764,84.2267
 L 127.227,85.0483 L 125.559,85.5542 L 125.095,85.5999 z
M -123.825,114.3 L -114.3,114.3 L -114.3,88.9 L -123.825,88.9 L -123.825,63.5 L -114.3,63.5
 L -114.3,38.1 L -123.825,38.1 L -123.825,12.7 L -114.3,12.7 L -114.3,-12.7 L -123.825,-12.7
 L -123.825,-38.1 L -114.3,-38.1 L -114.3,-63.5 L -123.825,-63.5 L -123.825,-88.9 L -114.3,-88.9
 L -114.3,-114.3 L -123.825,-114.3 L -123.825,-117.475 L -225.425,-117.475 L -225.425,117.475 L -123.825,117.475
 z
M -132.715,-76.835 L -132.715,-76.8355 L -132.715,-76.8355 L -132.544,-78.5693 L -132.038,-80.237 L -131.217,-81.774
 L -130.111,-83.1212 L -128.764,-84.2267 L -127.227,-85.0483 L -125.559,-85.5542 L -125.095,-85.5999 L -125.095,-83.0535
 L -126.255,-82.7016 L -127.353,-82.1148 L -128.315,-81.3251 L -129.105,-80.3629 L -129.692,-79.265 L -130.053,-78.0738
 L -130.175,-76.8355 L -130.175,-76.8355 L -130.175,-76.835 z
M -125.559,-66.8458 L -127.227,-67.3517 L -128.764,-68.1732 L -130.111,-69.2788 L -131.217,-70.626 L -132.038,-72.1629
 L -132.544,-73.8307 L -132.715,-75.5645 L -132.715,-75.5645 L -132.715,-75.565 L -130.175,-75.565 L -130.175,-75.5645
 L -130.175,-75.5645 L -130.053,-74.3262 L -129.692,-73.135 L -129.105,-72.0371 L -128.315,-71.0749 L -127.353,-70.2852
 L -126.255,-69.6984 L -125.095,-69.3465 L -125.095,-66.8001 z
M -132.715,-26.035 L -132.715,-26.0355 L -132.715,-26.0355 L -132.544,-27.7693 L -132.038,-29.437 L -131.217,-30.974
 L -130.111,-32.3212 L -128.764,-33.4267 L -127.227,-34.2483 L -125.559,-34.7542 L -125.095,-34.7999 L -125.095,-32.2535
 L -126.255,-31.9016 L -127.353,-31.3148 L -128.315,-30.5251 L -129.105,-29.5629 L -129.692,-28.465 L -130.053,-27.2738
 L -130.175,-26.0355 L -130.175,-26.0355 L -130.175,-26.035 z
M -125.559,-16.0458 L -127.227,-16.5517 L -128.764,-17.3732 L -130.111,-18.4788 L -131.217,-19.826 L -132.038,-21.3629
 L -132.544,-23.0307 L -132.715,-24.7645 L -132.715,-24.7645 L -132.715,-24.765 L -130.175,-24.765 L -130.175,-24.7645
 L -130.175,-24.7645 L -130.053,-23.5262 L -129.692,-22.335 L -129.105,-21.2371 L -128.315,-20.2749 L -127.353,-19.4852
 L -126.255,-18.8984 L -125.095,-18.5465 L -125.095,-16.0001 z
M -132.715,24.765 L -132.715,24.7645 L -132.715,24.7645 L -132.544,23.0307 L -132.038,21.3629 L -131.217,19.826
 L -130.111,18.4788 L -128.764,17.3732 L -127.227,16.5517 L -125.559,16.0458 L -125.095,16.0001 L -125.095,18.5465
 L -126.255,18.8984 L -127.353,19.4852 L -128.315,20.2749 L -129.105,21.2371 L -129.692,22.335 L -130.053,23.5262
 L -130.175,24.7645 L -130.175,24.7645 L -130.175,24.765 z
M -125.559,34.7542 L -127.227,34.2483 L -128.764,33.4267 L -130.111,32.3212 L -131.217,30.974 L -132.038,29.437
 L -132.544,27.7693 L -132.715,26.0355 L -132.715,26.0355 L -132.715,26.035 L -130.175,26.035 L -130.175,26.0355
 L -130.175,26.0355 L -130.053,27.2738 L -129.692,28.465 L -129.105,29.5629 L -128.315,30.5251 L -127.353,31.3148
 L -126.255,31.9016 L -125.095,32.2535 L -125.095,34.7999 z
M -132.715,75.565 L -132.715,75.5645 L -132.715,75.5645 L -132.544,73.8307 L -132.038,72.1629 L -131.217,70.626
 L -130.111,69.2788 L -128.764,68.1732 L -127.227,67.3517 L -125.559,66.8458 L -125.095,66.8001 L -125.095,69.3465
 L -126.255,69.6984 L -127.353,70.2852 L -128.315,71.0749 L -129.105,72.0371 L -129.692,73.135 L -130.053,74.3262
 L -130.175,75.5645 L -130.175,75.5645 L -130.175,75.565 z
M -125.559,85.5542 L -127.227,85.0483 L -128.764,84.2267 L -130.111,83.1212 L -131.217,81.774 L -132.038,80.237
 L -132.544,78.5693 L -132.715,76.8355 L -132.715,76.8355 L -132.715,76.835 L -130.175,76.835 L -130.175,76.8355
 L -130.175,76.8355 L -130.053,78.0738 L -129.692,79.265 L -129.105,80.3629 L -128.315,81.3251 L -127.353,82.1148
 L -126.255,82.7016 L -125.095,83.0535 L -125.095,85.5999 z
M 2.47765,304.556 L 4.86008,303.833 L 7.05574,302.66 L 8.98026,301.08 L 10.5597,299.156 L 11.7333,296.96
 L 12.456,294.578 L 12.7,292.1 L 12.7,276.225 L 38.1,276.225 L 38.1,285.75 L 63.5,285.75
 L 63.5,276.225 L 66.675,276.225 L 66.675,263.525 L 76.2,263.525 L 76.2,238.125 L 66.675,238.125
 L 66.675,212.725 L 76.2,212.725 L 76.2,187.325 L 66.675,187.325 L 66.675,174.625 L 63.5,174.625
 L 63.5,165.1 L 38.1,165.1 L 38.1,174.625 L 12.7,174.625 L 12.7,165.1 L -12.7,165.1
 L -12.7,174.625 L -38.1,174.625 L -38.1,165.1 L -63.5,165.1 L -63.5,174.625 L -66.675,174.625
 L -66.675,187.325 L -76.2,187.325 L -76.2,212.725 L -66.675,212.725 L -66.675,238.125 L -76.2,238.125
 L -76.2,263.525 L -66.675,263.525 L -66.675,276.225 L -63.5,276.225 L -63.5,285.75 L -38.1,285.75
 L -38.1,276.225 L -12.7,276.225 L -12.7,292.1 L -12.456,294.578 L -11.7333,296.96 L -10.5597,299.156
 L -8.98026,301.08 L -7.05574,302.66 L -4.86008,303.833 L -2.47765,304.556 L 0,304.8 z
M -1.23882,298.328 L -2.43004,297.967 L -3.52786,297.38 L -4.49013,296.59 L -5.27983,295.628 L -5.86662,294.53
 L -6.22798,293.339 L -6.34999,292.1 L -6.22798,290.861 L -5.86662,289.67 L -5.27983,288.572 L -4.49013,287.61
 L -3.52786,286.82 L -2.43004,286.233 L -1.23882,285.872 L -0.000457764,285.75 L 0.000457764,285.75 L 1.23882,285.872
 L 2.43004,286.233 L 3.52786,286.82 L 4.49013,287.61 L 5.27983,288.572 L 5.86662,289.67 L 6.22798,290.861
 L 6.34999,292.1 L 6.22798,293.339 L 5.86662,294.53 L 5.27983,295.628 L 4.49013,296.59 L 3.52786,297.38
 L 2.43004,297.967 L 1.23882,298.328 L 0,298.45 z
" stroke="black" fill="lightgray" stroke-width="0.5"/>
</svg>
