solid OpenSCAD_Model
  facet normal 1 -0 0
    outer loop
      vertex 4.7625 8.58307e-06 47.625
      vertex 4.7625 4.76249 22.225
      vertex 4.7625 4.76249 47.625
    endloop
  endfacet
  facet normal 1 0 0
    outer loop
      vertex 4.7625 4.76249 22.225
      vertex 4.7625 8.58307e-06 47.625
      vertex 4.7625 8.58307e-06 22.225
    endloop
  endfacet
  facet normal 1 -0 0
    outer loop
      vertex 4.7625 8.58307e-06 98.425
      vertex 4.7625 4.76249 73.025
      vertex 4.7625 4.76249 98.425
    endloop
  endfacet
  facet normal 1 0 0
    outer loop
      vertex 4.7625 4.76249 73.025
      vertex 4.7625 8.58307e-06 98.425
      vertex 4.7625 8.58307e-06 73.025
    endloop
  endfacet
  facet normal 0 1 -0
    outer loop
      vertex 9.52499 8.58307e-06 22.225
      vertex 4.7625 8.58307e-06 47.625
      vertex 9.52499 8.58307e-06 47.625
    endloop
  endfacet
  facet normal 0 1 0
    outer loop
      vertex 4.7625 8.58307e-06 47.625
      vertex 9.52499 8.58307e-06 22.225
      vertex 4.7625 8.58307e-06 22.225
    endloop
  endfacet
  facet normal -0 0 1
    outer loop
      vertex 4.7625 4.76249 22.225
      vertex 9.52499 8.58307e-06 22.225
      vertex 9.52499 4.76249 22.225
    endloop
  endfacet
  facet normal 0 0 1
    outer loop
      vertex 9.52499 8.58307e-06 22.225
      vertex 4.7625 4.76249 22.225
      vertex 4.7625 8.58307e-06 22.225
    endloop
  endfacet
  facet normal 0 -1 0
    outer loop
      vertex 4.7625 4.76249 22.225
      vertex 9.52499 4.76249 47.625
      vertex 4.7625 4.76249 47.625
    endloop
  endfacet
  facet normal 0 -1 -0
    outer loop
      vertex 9.52499 4.76249 47.625
      vertex 4.7625 4.76249 22.225
      vertex 9.52499 4.76249 22.225
    endloop
  endfacet
  facet normal 0 0 -1
    outer loop
      vertex 4.7625 8.58307e-06 47.625
      vertex 9.52499 4.76249 47.625
      vertex 9.52499 8.58307e-06 47.625
    endloop
  endfacet
  facet normal -0 0 -1
    outer loop
      vertex 9.52499 4.76249 47.625
      vertex 4.7625 8.58307e-06 47.625
      vertex 4.7625 4.76249 47.625
    endloop
  endfacet
  facet normal 0 1 -0
    outer loop
      vertex 9.52499 8.58307e-06 73.025
      vertex 4.7625 8.58307e-06 98.425
      vertex 9.52499 8.58307e-06 98.425
    endloop
  endfacet
  facet normal 0 1 0
    outer loop
      vertex 4.7625 8.58307e-06 98.425
      vertex 9.52499 8.58307e-06 73.025
      vertex 4.7625 8.58307e-06 73.025
    endloop
  endfacet
  facet normal -0 0 1
    outer loop
      vertex 4.7625 4.76249 73.025
      vertex 9.52499 8.58307e-06 73.025
      vertex 9.52499 4.76249 73.025
    endloop
  endfacet
  facet normal 0 0 1
    outer loop
      vertex 9.52499 8.58307e-06 73.025
      vertex 4.7625 4.76249 73.025
      vertex 4.7625 8.58307e-06 73.025
    endloop
  endfacet
  facet normal 0 -1 0
    outer loop
      vertex 4.7625 4.76249 73.025
      vertex 9.52499 4.76249 98.425
      vertex 4.7625 4.76249 98.425
    endloop
  endfacet
  facet normal 0 -1 -0
    outer loop
      vertex 9.52499 4.76249 98.425
      vertex 4.7625 4.76249 73.025
      vertex 9.52499 4.76249 73.025
    endloop
  endfacet
  facet normal 0 0 -1
    outer loop
      vertex 4.7625 8.58307e-06 98.425
      vertex 9.52499 4.76249 98.425
      vertex 9.52499 8.58307e-06 98.425
    endloop
  endfacet
  facet normal -0 0 -1
    outer loop
      vertex 9.52499 4.76249 98.425
      vertex 4.7625 8.58307e-06 98.425
      vertex 4.7625 4.76249 98.425
    endloop
  endfacet
  facet normal 0 1 -0
    outer loop
      vertex 4.76249 4.7625 22.225
      vertex 8.58307e-06 4.7625 47.625
      vertex 4.76249 4.7625 47.625
    endloop
  endfacet
  facet normal 0 1 0
    outer loop
      vertex 8.58307e-06 4.7625 47.625
      vertex 4.76249 4.7625 22.225
      vertex 8.58307e-06 4.7625 22.225
    endloop
  endfacet
  facet normal 0 1 -0
    outer loop
      vertex 4.76249 4.7625 73.025
      vertex 8.58307e-06 4.7625 98.425
      vertex 4.76249 4.7625 98.425
    endloop
  endfacet
  facet normal 0 1 0
    outer loop
      vertex 8.58307e-06 4.7625 98.425
      vertex 4.76249 4.7625 73.025
      vertex 8.58307e-06 4.7625 73.025
    endloop
  endfacet
  facet normal -1 0 0
    outer loop
      vertex 4.76249 4.7625 22.225
      vertex 4.76249 9.52499 47.625
      vertex 4.76249 9.52499 22.225
    endloop
  endfacet
  facet normal -1 -0 0
    outer loop
      vertex 4.76249 9.52499 47.625
      vertex 4.76249 4.7625 22.225
      vertex 4.76249 4.7625 47.625
    endloop
  endfacet
  facet normal -0 0 1
    outer loop
      vertex 8.58307e-06 9.52499 22.225
      vertex 4.76249 4.7625 22.225
      vertex 4.76249 9.52499 22.225
    endloop
  endfacet
  facet normal 0 0 1
    outer loop
      vertex 4.76249 4.7625 22.225
      vertex 8.58307e-06 9.52499 22.225
      vertex 8.58307e-06 4.7625 22.225
    endloop
  endfacet
  facet normal 1 -0 0
    outer loop
      vertex 8.58307e-06 4.7625 47.625
      vertex 8.58307e-06 9.52499 22.225
      vertex 8.58307e-06 9.52499 47.625
    endloop
  endfacet
  facet normal 1 0 0
    outer loop
      vertex 8.58307e-06 9.52499 22.225
      vertex 8.58307e-06 4.7625 47.625
      vertex 8.58307e-06 4.7625 22.225
    endloop
  endfacet
  facet normal 0 0 -1
    outer loop
      vertex 8.58307e-06 4.7625 47.625
      vertex 4.76249 9.52499 47.625
      vertex 4.76249 4.7625 47.625
    endloop
  endfacet
  facet normal -0 0 -1
    outer loop
      vertex 4.76249 9.52499 47.625
      vertex 8.58307e-06 4.7625 47.625
      vertex 8.58307e-06 9.52499 47.625
    endloop
  endfacet
  facet normal -1 0 0
    outer loop
      vertex 4.76249 4.7625 73.025
      vertex 4.76249 9.52499 98.425
      vertex 4.76249 9.52499 73.025
    endloop
  endfacet
  facet normal -1 -0 0
    outer loop
      vertex 4.76249 9.52499 98.425
      vertex 4.76249 4.7625 73.025
      vertex 4.76249 4.7625 98.425
    endloop
  endfacet
  facet normal -0 0 1
    outer loop
      vertex 8.58307e-06 9.52499 73.025
      vertex 4.76249 4.7625 73.025
      vertex 4.76249 9.52499 73.025
    endloop
  endfacet
  facet normal 0 0 1
    outer loop
      vertex 4.76249 4.7625 73.025
      vertex 8.58307e-06 9.52499 73.025
      vertex 8.58307e-06 4.7625 73.025
    endloop
  endfacet
  facet normal 1 -0 0
    outer loop
      vertex 8.58307e-06 4.7625 98.425
      vertex 8.58307e-06 9.52499 73.025
      vertex 8.58307e-06 9.52499 98.425
    endloop
  endfacet
  facet normal 1 0 0
    outer loop
      vertex 8.58307e-06 9.52499 73.025
      vertex 8.58307e-06 4.7625 98.425
      vertex 8.58307e-06 4.7625 73.025
    endloop
  endfacet
  facet normal 0 0 -1
    outer loop
      vertex 8.58307e-06 4.7625 98.425
      vertex 4.76249 9.52499 98.425
      vertex 4.76249 4.7625 98.425
    endloop
  endfacet
  facet normal -0 0 -1
    outer loop
      vertex 4.76249 9.52499 98.425
      vertex 8.58307e-06 4.7625 98.425
      vertex 8.58307e-06 9.52499 98.425
    endloop
  endfacet
  facet normal 0 0 -1
    outer loop
      vertex 21.8625 -1.82253 9.525
      vertex 22.225 0 9.525
      vertex 22.1335 -0.929123 9.525
    endloop
  endfacet
  facet normal 0 0 -1
    outer loop
      vertex 21.4224 -2.6459 9.525
      vertex 22.225 0 9.525
      vertex 21.8625 -1.82253 9.525
    endloop
  endfacet
  facet normal 0 0 -1
    outer loop
      vertex 20.8301 -3.3676 9.525
      vertex 22.225 0 9.525
      vertex 21.4224 -2.6459 9.525
    endloop
  endfacet
  facet normal 0 0 -1
    outer loop
      vertex 20.1084 -3.95987 9.525
      vertex 22.225 0 9.525
      vertex 20.8301 -3.3676 9.525
    endloop
  endfacet
  facet normal 0 0 -1
    outer loop
      vertex 19.285 -4.39998 9.525
      vertex 22.225 0 9.525
      vertex 20.1084 -3.95987 9.525
    endloop
  endfacet
  facet normal 0 0 -1
    outer loop
      vertex 18.3916 -4.67099 9.525
      vertex 22.225 0 9.525
      vertex 19.285 -4.39998 9.525
    endloop
  endfacet
  facet normal 0 0 -1
    outer loop
      vertex 17.4625 -4.7625 9.525
      vertex 22.225 0 9.525
      vertex 18.3916 -4.67099 9.525
    endloop
  endfacet
  facet normal 0 0 -1
    outer loop
      vertex 17.4625 -4.7625 9.525
      vertex 9.52499 0 9.525
      vertex 22.225 0 9.525
    endloop
  endfacet
  facet normal 0 0 -1
    outer loop
      vertex 3.88124 2.38124 9.525
      vertex 9.52499 4.7625 9.525
      vertex 9.52499 0 9.525
    endloop
  endfacet
  facet normal 0 0 -1
    outer loop
      vertex 3.44191 3.44191 9.525
      vertex 9.52499 4.7625 9.525
      vertex 3.76706 2.95526 9.525
    endloop
  endfacet
  facet normal 0 0 -1
    outer loop
      vertex 9.52499 9.52499 9.525
      vertex 4.7625 9.52499 9.525
      vertex 9.52499 17.4625 9.525
    endloop
  endfacet
  facet normal 0 0 -1
    outer loop
      vertex 4.7625 22.225 9.525
      vertex 9.52499 17.4625 9.525
      vertex 4.7625 9.52499 9.525
    endloop
  endfacet
  facet normal 0 0 -1
    outer loop
      vertex 9.52499 17.4625 9.525
      vertex 4.7625 22.225 9.525
      vertex 9.43349 18.3916 9.525
    endloop
  endfacet
  facet normal 0 0 -1
    outer loop
      vertex 9.43349 18.3916 9.525
      vertex 4.7625 22.225 9.525
      vertex 9.16248 19.285 9.525
    endloop
  endfacet
  facet normal 0 0 -1
    outer loop
      vertex 9.16248 19.285 9.525
      vertex 4.7625 22.225 9.525
      vertex 8.72237 20.1084 9.525
    endloop
  endfacet
  facet normal 0 0 -1
    outer loop
      vertex 8.72237 20.1084 9.525
      vertex 4.7625 22.225 9.525
      vertex 8.1301 20.8301 9.525
    endloop
  endfacet
  facet normal 0 0 -1
    outer loop
      vertex 8.1301 20.8301 9.525
      vertex 4.7625 22.225 9.525
      vertex 7.4084 21.4224 9.525
    endloop
  endfacet
  facet normal 0 0 -1
    outer loop
      vertex 7.4084 21.4224 9.525
      vertex 4.7625 22.225 9.525
      vertex 6.58502 21.8625 9.525
    endloop
  endfacet
  facet normal 0 0 -1
    outer loop
      vertex 9.52499 4.7625 9.525
      vertex 3.88124 2.38124 9.525
      vertex 3.76706 2.95526 9.525
    endloop
  endfacet
  facet normal 0 0 -1
    outer loop
      vertex 0 -4.7625 9.525
      vertex 9.52499 0 9.525
      vertex 17.4625 -4.7625 9.525
    endloop
  endfacet
  facet normal 0 0 -1
    outer loop
      vertex 9.52499 0 9.525
      vertex 3.76706 1.80722 9.525
      vertex 3.88124 2.38124 9.525
    endloop
  endfacet
  facet normal 0 0 -1
    outer loop
      vertex 9.52499 0 9.525
      vertex 3.44191 1.32059 9.525
      vertex 3.76706 1.80722 9.525
    endloop
  endfacet
  facet normal 0 -0 -1
    outer loop
      vertex 2.95526 0.995422 9.525
      vertex 9.52499 0 9.525
      vertex 0 -4.7625 9.525
    endloop
  endfacet
  facet normal 0 0 -1
    outer loop
      vertex 9.52499 0 9.525
      vertex 2.95526 0.995422 9.525
      vertex 3.44191 1.32059 9.525
    endloop
  endfacet
  facet normal 0 0 -1
    outer loop
      vertex 2.95526 0.995422 9.525
      vertex 0 -4.7625 9.525
      vertex 2.38124 0.881241 9.525
    endloop
  endfacet
  facet normal 0 0 -1
    outer loop
      vertex -1.82253 -4.39998 9.525
      vertex 1.32059 1.32059 9.525
      vertex -0.929123 -4.67099 9.525
    endloop
  endfacet
  facet normal -0 0 -1
    outer loop
      vertex 1.80722 0.995422 9.525
      vertex -0.929123 -4.67099 9.525
      vertex 1.32059 1.32059 9.525
    endloop
  endfacet
  facet normal 0 0 -1
    outer loop
      vertex -0.929123 -4.67099 9.525
      vertex 1.80722 0.995422 9.525
      vertex 0 -4.7625 9.525
    endloop
  endfacet
  facet normal -0 0 -1
    outer loop
      vertex 2.38124 0.881241 9.525
      vertex 0 -4.7625 9.525
      vertex 1.80722 0.995422 9.525
    endloop
  endfacet
  facet normal 0 0 -1
    outer loop
      vertex 22.225 4.7625 9.525
      vertex 21.8625 6.58502 9.525
      vertex 22.1335 5.69162 9.525
    endloop
  endfacet
  facet normal 0 0 -1
    outer loop
      vertex 22.225 4.7625 9.525
      vertex 21.4224 7.4084 9.525
      vertex 21.8625 6.58502 9.525
    endloop
  endfacet
  facet normal 0 0 -1
    outer loop
      vertex 22.225 4.7625 9.525
      vertex 20.8301 8.1301 9.525
      vertex 21.4224 7.4084 9.525
    endloop
  endfacet
  facet normal 0 0 -1
    outer loop
      vertex 22.225 4.7625 9.525
      vertex 20.1084 8.72237 9.525
      vertex 20.8301 8.1301 9.525
    endloop
  endfacet
  facet normal 0 0 -1
    outer loop
      vertex 22.225 4.7625 9.525
      vertex 19.285 9.16248 9.525
      vertex 20.1084 8.72237 9.525
    endloop
  endfacet
  facet normal 0 0 -1
    outer loop
      vertex 22.225 4.7625 9.525
      vertex 18.3916 9.43349 9.525
      vertex 19.285 9.16248 9.525
    endloop
  endfacet
  facet normal 0 0 -1
    outer loop
      vertex 22.225 4.7625 9.525
      vertex 17.4625 9.52499 9.525
      vertex 18.3916 9.43349 9.525
    endloop
  endfacet
  facet normal 0 0 -1
    outer loop
      vertex 9.52499 4.7625 9.525
      vertex 17.4625 9.52499 9.525
      vertex 22.225 4.7625 9.525
    endloop
  endfacet
  facet normal -0 0 -1
    outer loop
      vertex 17.4625 9.52499 9.525
      vertex 9.52499 4.7625 9.525
      vertex 9.52499 9.52499 9.525
    endloop
  endfacet
  facet normal 0 0 -1
    outer loop
      vertex 6.58502 21.8625 9.525
      vertex 4.7625 22.225 9.525
      vertex 5.69162 22.1335 9.525
    endloop
  endfacet
  facet normal 0 -0 -1
    outer loop
      vertex 4.7625 9.52499 9.525
      vertex 9.52499 4.7625 9.525
      vertex 3.44191 3.44191 9.525
    endloop
  endfacet
  facet normal 0 0 -1
    outer loop
      vertex 9.52499 4.7625 9.525
      vertex 4.7625 9.52499 9.525
      vertex 9.52499 9.52499 9.525
    endloop
  endfacet
  facet normal 0 0 -1
    outer loop
      vertex 2.95526 3.76706 9.525
      vertex 4.7625 9.52499 9.525
      vertex 3.44191 3.44191 9.525
    endloop
  endfacet
  facet normal 0 0 -1
    outer loop
      vertex 2.38124 3.88124 9.525
      vertex 4.7625 9.52499 9.525
      vertex 2.95526 3.76706 9.525
    endloop
  endfacet
  facet normal 0 0 -1
    outer loop
      vertex 0 9.52499 9.525
      vertex 2.38124 3.88124 9.525
      vertex 1.80722 3.76706 9.525
    endloop
  endfacet
  facet normal 0 0 -1
    outer loop
      vertex 0 9.52499 9.525
      vertex 1.80722 3.76706 9.525
      vertex 1.32059 3.44191 9.525
    endloop
  endfacet
  facet normal 0 0 -1
    outer loop
      vertex 0 9.52499 9.525
      vertex 1.32059 3.44191 9.525
      vertex 0.995422 2.95526 9.525
    endloop
  endfacet
  facet normal 0 0 -1
    outer loop
      vertex 2.38124 3.88124 9.525
      vertex 0 9.52499 9.525
      vertex 4.7625 9.52499 9.525
    endloop
  endfacet
  facet normal 0 0 -1
    outer loop
      vertex -4.7625 0 9.525
      vertex 0.995422 2.95526 9.525
      vertex 0.881241 2.38124 9.525
    endloop
  endfacet
  facet normal 0 0 -1
    outer loop
      vertex -2.6459 -3.95987 9.525
      vertex 1.32059 1.32059 9.525
      vertex -1.82253 -4.39998 9.525
    endloop
  endfacet
  facet normal -0 0 -1
    outer loop
      vertex 0.995422 2.95526 9.525
      vertex -4.7625 0 9.525
      vertex 0 9.52499 9.525
    endloop
  endfacet
  facet normal 0 0 -1
    outer loop
      vertex -3.3676 -3.3676 9.525
      vertex 1.32059 1.32059 9.525
      vertex -2.6459 -3.95987 9.525
    endloop
  endfacet
  facet normal 0 0 -1
    outer loop
      vertex -4.7625 17.4625 9.525
      vertex 0 9.52499 9.525
      vertex -4.7625 0 9.525
    endloop
  endfacet
  facet normal 0 0 -1
    outer loop
      vertex -3.95987 -2.6459 9.525
      vertex 1.32059 1.32059 9.525
      vertex -3.3676 -3.3676 9.525
    endloop
  endfacet
  facet normal 0 0 -1
    outer loop
      vertex 0 9.52499 9.525
      vertex -4.7625 17.4625 9.525
      vertex 0 22.225 9.525
    endloop
  endfacet
  facet normal 0 0 -1
    outer loop
      vertex -4.39998 -1.82253 9.525
      vertex 1.32059 1.32059 9.525
      vertex -3.95987 -2.6459 9.525
    endloop
  endfacet
  facet normal 0 0 -1
    outer loop
      vertex 0 22.225 9.525
      vertex -4.7625 17.4625 9.525
      vertex -0.929123 22.1335 9.525
    endloop
  endfacet
  facet normal 0 0 -1
    outer loop
      vertex -4.67099 -0.929123 9.525
      vertex 1.32059 1.32059 9.525
      vertex -4.39998 -1.82253 9.525
    endloop
  endfacet
  facet normal 0 0 -1
    outer loop
      vertex -0.929123 22.1335 9.525
      vertex -4.7625 17.4625 9.525
      vertex -1.82253 21.8625 9.525
    endloop
  endfacet
  facet normal -0 0 -1
    outer loop
      vertex 1.32059 1.32059 9.525
      vertex -4.67099 -0.929123 9.525
      vertex 0.995422 1.80722 9.525
    endloop
  endfacet
  facet normal 0 0 -1
    outer loop
      vertex -1.82253 21.8625 9.525
      vertex -4.7625 17.4625 9.525
      vertex -2.6459 21.4224 9.525
    endloop
  endfacet
  facet normal 0 0 -1
    outer loop
      vertex -4.7625 0 9.525
      vertex 0.995422 1.80722 9.525
      vertex -4.67099 -0.929123 9.525
    endloop
  endfacet
  facet normal 0 0 -1
    outer loop
      vertex -2.6459 21.4224 9.525
      vertex -4.7625 17.4625 9.525
      vertex -3.3676 20.8301 9.525
    endloop
  endfacet
  facet normal -0 0 -1
    outer loop
      vertex 0.995422 1.80722 9.525
      vertex -4.7625 0 9.525
      vertex 0.881241 2.38124 9.525
    endloop
  endfacet
  facet normal 0 0 -1
    outer loop
      vertex -3.3676 20.8301 9.525
      vertex -4.7625 17.4625 9.525
      vertex -3.95987 20.1084 9.525
    endloop
  endfacet
  facet normal 0 0 -1
    outer loop
      vertex -3.95987 20.1084 9.525
      vertex -4.7625 17.4625 9.525
      vertex -4.39998 19.285 9.525
    endloop
  endfacet
  facet normal 0 0 -1
    outer loop
      vertex -4.39998 19.285 9.525
      vertex -4.7625 17.4625 9.525
      vertex -4.67099 18.3916 9.525
    endloop
  endfacet
  facet normal 0 0 1
    outer loop
      vertex 4.7625 9.52499 111.125
      vertex 9.52499 9.52499 111.125
      vertex 9.52499 17.4625 111.125
    endloop
  endfacet
  facet normal 0 0 1
    outer loop
      vertex 9.52499 9.52499 111.125
      vertex 4.7625 9.52499 111.125
      vertex 9.52499 4.7625 111.125
    endloop
  endfacet
  facet normal 0 0 1
    outer loop
      vertex 4.7625 22.225 111.125
      vertex 9.52499 17.4625 111.125
      vertex 9.43349 18.3916 111.125
    endloop
  endfacet
  facet normal 0 0 1
    outer loop
      vertex 21.8625 6.58502 111.125
      vertex 22.225 4.7625 111.125
      vertex 22.1335 5.69162 111.125
    endloop
  endfacet
  facet normal 0 0 1
    outer loop
      vertex 21.4224 7.4084 111.125
      vertex 22.225 4.7625 111.125
      vertex 21.8625 6.58502 111.125
    endloop
  endfacet
  facet normal 0 0 1
    outer loop
      vertex 20.8301 8.1301 111.125
      vertex 22.225 4.7625 111.125
      vertex 21.4224 7.4084 111.125
    endloop
  endfacet
  facet normal 0 0 1
    outer loop
      vertex 20.1084 8.72237 111.125
      vertex 22.225 4.7625 111.125
      vertex 20.8301 8.1301 111.125
    endloop
  endfacet
  facet normal 0 0 1
    outer loop
      vertex 19.285 9.16248 111.125
      vertex 22.225 4.7625 111.125
      vertex 20.1084 8.72237 111.125
    endloop
  endfacet
  facet normal 0 0 1
    outer loop
      vertex 18.3916 9.43349 111.125
      vertex 22.225 4.7625 111.125
      vertex 19.285 9.16248 111.125
    endloop
  endfacet
  facet normal 0 0 1
    outer loop
      vertex 17.4625 9.52499 111.125
      vertex 22.225 4.7625 111.125
      vertex 18.3916 9.43349 111.125
    endloop
  endfacet
  facet normal 0 0 1
    outer loop
      vertex 9.52499 4.7625 111.125
      vertex 17.4625 9.52499 111.125
      vertex 9.52499 9.52499 111.125
    endloop
  endfacet
  facet normal 0 0 1
    outer loop
      vertex 17.4625 9.52499 111.125
      vertex 9.52499 4.7625 111.125
      vertex 22.225 4.7625 111.125
    endloop
  endfacet
  facet normal 0 0 1
    outer loop
      vertex 22.225 0 111.125
      vertex 21.8625 -1.82253 111.125
      vertex 22.1335 -0.929123 111.125
    endloop
  endfacet
  facet normal 0 0 1
    outer loop
      vertex 22.225 0 111.125
      vertex 21.4224 -2.6459 111.125
      vertex 21.8625 -1.82253 111.125
    endloop
  endfacet
  facet normal 0 0 1
    outer loop
      vertex 22.225 0 111.125
      vertex 20.8301 -3.3676 111.125
      vertex 21.4224 -2.6459 111.125
    endloop
  endfacet
  facet normal 0 0 1
    outer loop
      vertex 22.225 0 111.125
      vertex 20.1084 -3.95987 111.125
      vertex 20.8301 -3.3676 111.125
    endloop
  endfacet
  facet normal 0 0 1
    outer loop
      vertex 22.225 0 111.125
      vertex 19.285 -4.39998 111.125
      vertex 20.1084 -3.95987 111.125
    endloop
  endfacet
  facet normal 0 0 1
    outer loop
      vertex 22.225 0 111.125
      vertex 18.3916 -4.67099 111.125
      vertex 19.285 -4.39998 111.125
    endloop
  endfacet
  facet normal 0 0 1
    outer loop
      vertex 22.225 0 111.125
      vertex 17.4625 -4.7625 111.125
      vertex 18.3916 -4.67099 111.125
    endloop
  endfacet
  facet normal -0 0 1
    outer loop
      vertex 9.52499 0 111.125
      vertex 17.4625 -4.7625 111.125
      vertex 22.225 0 111.125
    endloop
  endfacet
  facet normal 0 0 1
    outer loop
      vertex 4.7625 22.225 111.125
      vertex 9.43349 18.3916 111.125
      vertex 9.16248 19.285 111.125
    endloop
  endfacet
  facet normal 0 0 1
    outer loop
      vertex 4.7625 22.225 111.125
      vertex 9.16248 19.285 111.125
      vertex 8.72237 20.1084 111.125
    endloop
  endfacet
  facet normal 0 0 1
    outer loop
      vertex 4.7625 22.225 111.125
      vertex 8.72237 20.1084 111.125
      vertex 8.1301 20.8301 111.125
    endloop
  endfacet
  facet normal 0 0 1
    outer loop
      vertex 4.7625 22.225 111.125
      vertex 8.1301 20.8301 111.125
      vertex 7.4084 21.4224 111.125
    endloop
  endfacet
  facet normal 0 0 1
    outer loop
      vertex 4.7625 22.225 111.125
      vertex 7.4084 21.4224 111.125
      vertex 6.58502 21.8625 111.125
    endloop
  endfacet
  facet normal 0 0 1
    outer loop
      vertex 4.7625 22.225 111.125
      vertex 6.58502 21.8625 111.125
      vertex 5.69162 22.1335 111.125
    endloop
  endfacet
  facet normal 0 0 1
    outer loop
      vertex 9.52499 17.4625 111.125
      vertex 4.7625 22.225 111.125
      vertex 4.7625 9.52499 111.125
    endloop
  endfacet
  facet normal 0 0 1
    outer loop
      vertex 3.44191 3.44191 111.125
      vertex 9.52499 4.7625 111.125
      vertex 4.7625 9.52499 111.125
    endloop
  endfacet
  facet normal 0 -0 1
    outer loop
      vertex 3.88124 2.38124 111.125
      vertex 9.52499 4.7625 111.125
      vertex 3.76706 2.95526 111.125
    endloop
  endfacet
  facet normal -0 0 1
    outer loop
      vertex 3.76706 1.80722 111.125
      vertex 9.52499 0 111.125
      vertex 3.88124 2.38124 111.125
    endloop
  endfacet
  facet normal -0 0 1
    outer loop
      vertex 3.44191 1.32059 111.125
      vertex 9.52499 0 111.125
      vertex 3.76706 1.80722 111.125
    endloop
  endfacet
  facet normal -0 0 1
    outer loop
      vertex 2.95526 0.995422 111.125
      vertex 9.52499 0 111.125
      vertex 3.44191 1.32059 111.125
    endloop
  endfacet
  facet normal 0 0 1
    outer loop
      vertex 9.52499 0 111.125
      vertex 2.95526 0.995422 111.125
      vertex 0 -4.7625 111.125
    endloop
  endfacet
  facet normal 0 0 1
    outer loop
      vertex 0 -4.7625 111.125
      vertex 2.95526 0.995422 111.125
      vertex 2.38124 0.881241 111.125
    endloop
  endfacet
  facet normal 0 0 1
    outer loop
      vertex 0 -4.7625 111.125
      vertex 2.38124 0.881241 111.125
      vertex 1.80722 0.995422 111.125
    endloop
  endfacet
  facet normal 0 0 1
    outer loop
      vertex 9.52499 0 111.125
      vertex 0 -4.7625 111.125
      vertex 17.4625 -4.7625 111.125
    endloop
  endfacet
  facet normal 0 0 1
    outer loop
      vertex -0.929123 -4.67099 111.125
      vertex 1.80722 0.995422 111.125
      vertex 1.32059 1.32059 111.125
    endloop
  endfacet
  facet normal 0 0 1
    outer loop
      vertex -4.67099 -0.929123 111.125
      vertex 1.32059 1.32059 111.125
      vertex 0.995422 1.80722 111.125
    endloop
  endfacet
  facet normal 0 0 1
    outer loop
      vertex -4.7625 0 111.125
      vertex 0.995422 1.80722 111.125
      vertex 0.881241 2.38124 111.125
    endloop
  endfacet
  facet normal 0 0 1
    outer loop
      vertex 0.995422 2.95526 111.125
      vertex -4.7625 0 111.125
      vertex 0.881241 2.38124 111.125
    endloop
  endfacet
  facet normal -0 0 1
    outer loop
      vertex -4.7625 17.4625 111.125
      vertex 0 9.52499 111.125
      vertex 0 22.225 111.125
    endloop
  endfacet
  facet normal 0 0 1
    outer loop
      vertex -4.7625 17.4625 111.125
      vertex 0 22.225 111.125
      vertex -0.929123 22.1335 111.125
    endloop
  endfacet
  facet normal 0 0 1
    outer loop
      vertex -4.7625 0 111.125
      vertex 0 9.52499 111.125
      vertex -4.7625 17.4625 111.125
    endloop
  endfacet
  facet normal 0 0 1
    outer loop
      vertex -4.7625 17.4625 111.125
      vertex -0.929123 22.1335 111.125
      vertex -1.82253 21.8625 111.125
    endloop
  endfacet
  facet normal 0 0 1
    outer loop
      vertex 0.995422 1.80722 111.125
      vertex -4.7625 0 111.125
      vertex -4.67099 -0.929123 111.125
    endloop
  endfacet
  facet normal 0 0 1
    outer loop
      vertex -4.7625 17.4625 111.125
      vertex -1.82253 21.8625 111.125
      vertex -2.6459 21.4224 111.125
    endloop
  endfacet
  facet normal 0 0 1
    outer loop
      vertex 1.80722 0.995422 111.125
      vertex -0.929123 -4.67099 111.125
      vertex 0 -4.7625 111.125
    endloop
  endfacet
  facet normal 0 0 1
    outer loop
      vertex -4.7625 17.4625 111.125
      vertex -2.6459 21.4224 111.125
      vertex -3.3676 20.8301 111.125
    endloop
  endfacet
  facet normal 0 0 1
    outer loop
      vertex 1.32059 1.32059 111.125
      vertex -1.82253 -4.39998 111.125
      vertex -0.929123 -4.67099 111.125
    endloop
  endfacet
  facet normal 0 0 1
    outer loop
      vertex -4.7625 17.4625 111.125
      vertex -3.3676 20.8301 111.125
      vertex -3.95987 20.1084 111.125
    endloop
  endfacet
  facet normal 0 0 1
    outer loop
      vertex 1.32059 1.32059 111.125
      vertex -2.6459 -3.95987 111.125
      vertex -1.82253 -4.39998 111.125
    endloop
  endfacet
  facet normal 0 0 1
    outer loop
      vertex -4.7625 17.4625 111.125
      vertex -3.95987 20.1084 111.125
      vertex -4.39998 19.285 111.125
    endloop
  endfacet
  facet normal 0 0 1
    outer loop
      vertex 1.32059 1.32059 111.125
      vertex -3.3676 -3.3676 111.125
      vertex -2.6459 -3.95987 111.125
    endloop
  endfacet
  facet normal 0 0 1
    outer loop
      vertex -4.7625 17.4625 111.125
      vertex -4.39998 19.285 111.125
      vertex -4.67099 18.3916 111.125
    endloop
  endfacet
  facet normal 0 0 1
    outer loop
      vertex 1.32059 1.32059 111.125
      vertex -3.95987 -2.6459 111.125
      vertex -3.3676 -3.3676 111.125
    endloop
  endfacet
  facet normal 0 0 1
    outer loop
      vertex 1.32059 1.32059 111.125
      vertex -4.39998 -1.82253 111.125
      vertex -3.95987 -2.6459 111.125
    endloop
  endfacet
  facet normal 0 0 1
    outer loop
      vertex 1.32059 1.32059 111.125
      vertex -4.67099 -0.929123 111.125
      vertex -4.39998 -1.82253 111.125
    endloop
  endfacet
  facet normal 0 0 1
    outer loop
      vertex 9.52499 4.7625 111.125
      vertex 3.88124 2.38124 111.125
      vertex 9.52499 0 111.125
    endloop
  endfacet
  facet normal 0 0 1
    outer loop
      vertex 9.52499 4.7625 111.125
      vertex 3.44191 3.44191 111.125
      vertex 3.76706 2.95526 111.125
    endloop
  endfacet
  facet normal 0 0 1
    outer loop
      vertex 4.7625 9.52499 111.125
      vertex 2.95526 3.76706 111.125
      vertex 3.44191 3.44191 111.125
    endloop
  endfacet
  facet normal 0 0 1
    outer loop
      vertex 4.7625 9.52499 111.125
      vertex 2.38124 3.88124 111.125
      vertex 2.95526 3.76706 111.125
    endloop
  endfacet
  facet normal -0 0 1
    outer loop
      vertex 0 9.52499 111.125
      vertex 2.38124 3.88124 111.125
      vertex 4.7625 9.52499 111.125
    endloop
  endfacet
  facet normal 0 0 1
    outer loop
      vertex 2.38124 3.88124 111.125
      vertex 0 9.52499 111.125
      vertex 1.80722 3.76706 111.125
    endloop
  endfacet
  facet normal 0 0 1
    outer loop
      vertex 1.80722 3.76706 111.125
      vertex 0 9.52499 111.125
      vertex 1.32059 3.44191 111.125
    endloop
  endfacet
  facet normal 0 0 1
    outer loop
      vertex -4.7625 0 111.125
      vertex 0.995422 2.95526 111.125
      vertex 0 9.52499 111.125
    endloop
  endfacet
  facet normal 0 0 1
    outer loop
      vertex 1.32059 3.44191 111.125
      vertex 0 9.52499 111.125
      vertex 0.995422 2.95526 111.125
    endloop
  endfacet
  facet normal 0.881924 0.471392 0
    outer loop
      vertex 21.8625 6.58502 111.125
      vertex 21.4224 7.4084 9.525
      vertex 21.4224 7.4084 111.125
    endloop
  endfacet
  facet normal 0.881924 0.471392 0
    outer loop
      vertex 21.4224 7.4084 9.525
      vertex 21.8625 6.58502 111.125
      vertex 21.8625 6.58502 9.525
    endloop
  endfacet
  facet normal 0.773002 0.634404 0
    outer loop
      vertex 21.4224 7.4084 111.125
      vertex 20.8301 8.1301 9.525
      vertex 20.8301 8.1301 111.125
    endloop
  endfacet
  facet normal 0.773002 0.634404 0
    outer loop
      vertex 20.8301 8.1301 9.525
      vertex 21.4224 7.4084 111.125
      vertex 21.4224 7.4084 9.525
    endloop
  endfacet
  facet normal 0.634384 0.773018 -0
    outer loop
      vertex 20.8301 8.1301 9.525
      vertex 20.1084 8.72237 111.125
      vertex 20.8301 8.1301 111.125
    endloop
  endfacet
  facet normal 0.634384 0.773018 0
    outer loop
      vertex 20.1084 8.72237 111.125
      vertex 20.8301 8.1301 9.525
      vertex 20.1084 8.72237 9.525
    endloop
  endfacet
  facet normal 0.471391 0.881924 -0
    outer loop
      vertex 20.1084 8.72237 9.525
      vertex 19.285 9.16248 111.125
      vertex 20.1084 8.72237 111.125
    endloop
  endfacet
  facet normal 0.471391 0.881924 0
    outer loop
      vertex 19.285 9.16248 111.125
      vertex 20.1084 8.72237 9.525
      vertex 19.285 9.16248 9.525
    endloop
  endfacet
  facet normal 0.290285 0.95694 -0
    outer loop
      vertex 19.285 9.16248 9.525
      vertex 18.3916 9.43349 111.125
      vertex 19.285 9.16248 111.125
    endloop
  endfacet
  facet normal 0.290285 0.95694 0
    outer loop
      vertex 18.3916 9.43349 111.125
      vertex 19.285 9.16248 9.525
      vertex 18.3916 9.43349 9.525
    endloop
  endfacet
  facet normal 0.0980083 0.995186 -0
    outer loop
      vertex 18.3916 9.43349 9.525
      vertex 17.4625 9.52499 111.125
      vertex 18.3916 9.43349 111.125
    endloop
  endfacet
  facet normal 0.0980083 0.995186 0
    outer loop
      vertex 17.4625 9.52499 111.125
      vertex 18.3916 9.43349 9.525
      vertex 17.4625 9.52499 9.525
    endloop
  endfacet
  facet normal 0 1 -0
    outer loop
      vertex 17.4625 9.52499 9.525
      vertex 9.52499 9.52499 111.125
      vertex 17.4625 9.52499 111.125
    endloop
  endfacet
  facet normal 0 1 0
    outer loop
      vertex 9.52499 9.52499 111.125
      vertex 17.4625 9.52499 9.525
      vertex 9.52499 9.52499 9.525
    endloop
  endfacet
  facet normal 1 -0 0
    outer loop
      vertex 9.52499 9.52499 111.125
      vertex 9.52499 17.4625 9.525
      vertex 9.52499 17.4625 111.125
    endloop
  endfacet
  facet normal 1 0 0
    outer loop
      vertex 9.52499 17.4625 9.525
      vertex 9.52499 9.52499 111.125
      vertex 9.52499 9.52499 9.525
    endloop
  endfacet
  facet normal 0.995186 0.0980083 0
    outer loop
      vertex 9.52499 17.4625 111.125
      vertex 9.43349 18.3916 9.525
      vertex 9.43349 18.3916 111.125
    endloop
  endfacet
  facet normal 0.995186 0.0980083 0
    outer loop
      vertex 9.43349 18.3916 9.525
      vertex 9.52499 17.4625 111.125
      vertex 9.52499 17.4625 9.525
    endloop
  endfacet
  facet normal 0.95694 0.290285 0
    outer loop
      vertex 9.43349 18.3916 111.125
      vertex 9.16248 19.285 9.525
      vertex 9.16248 19.285 111.125
    endloop
  endfacet
  facet normal 0.95694 0.290285 0
    outer loop
      vertex 9.16248 19.285 9.525
      vertex 9.43349 18.3916 111.125
      vertex 9.43349 18.3916 9.525
    endloop
  endfacet
  facet normal 0.881924 0.471391 0
    outer loop
      vertex 9.16248 19.285 111.125
      vertex 8.72237 20.1084 9.525
      vertex 8.72237 20.1084 111.125
    endloop
  endfacet
  facet normal 0.881924 0.471391 0
    outer loop
      vertex 8.72237 20.1084 9.525
      vertex 9.16248 19.285 111.125
      vertex 9.16248 19.285 9.525
    endloop
  endfacet
  facet normal 0.773018 0.634384 0
    outer loop
      vertex 8.72237 20.1084 111.125
      vertex 8.1301 20.8301 9.525
      vertex 8.1301 20.8301 111.125
    endloop
  endfacet
  facet normal 0.773018 0.634384 0
    outer loop
      vertex 8.1301 20.8301 9.525
      vertex 8.72237 20.1084 111.125
      vertex 8.72237 20.1084 9.525
    endloop
  endfacet
  facet normal 0.634404 0.773002 -0
    outer loop
      vertex 8.1301 20.8301 9.525
      vertex 7.4084 21.4224 111.125
      vertex 8.1301 20.8301 111.125
    endloop
  endfacet
  facet normal 0.634404 0.773002 0
    outer loop
      vertex 7.4084 21.4224 111.125
      vertex 8.1301 20.8301 9.525
      vertex 7.4084 21.4224 9.525
    endloop
  endfacet
  facet normal 0.471392 0.881924 -0
    outer loop
      vertex 7.4084 21.4224 9.525
      vertex 6.58502 21.8625 111.125
      vertex 7.4084 21.4224 111.125
    endloop
  endfacet
  facet normal 0.471392 0.881924 0
    outer loop
      vertex 6.58502 21.8625 111.125
      vertex 7.4084 21.4224 9.525
      vertex 6.58502 21.8625 9.525
    endloop
  endfacet
  facet normal 0.290275 0.956943 -0
    outer loop
      vertex 6.58502 21.8625 9.525
      vertex 5.69162 22.1335 111.125
      vertex 6.58502 21.8625 111.125
    endloop
  endfacet
  facet normal 0.290275 0.956943 0
    outer loop
      vertex 5.69162 22.1335 111.125
      vertex 6.58502 21.8625 9.525
      vertex 5.69162 22.1335 9.525
    endloop
  endfacet
  facet normal 0.0980062 0.995186 -0
    outer loop
      vertex 5.69162 22.1335 9.525
      vertex 4.7625 22.225 111.125
      vertex 5.69162 22.1335 111.125
    endloop
  endfacet
  facet normal 0.0980062 0.995186 0
    outer loop
      vertex 4.7625 22.225 111.125
      vertex 5.69162 22.1335 9.525
      vertex 4.7625 22.225 9.525
    endloop
  endfacet
  facet normal -1 0 0
    outer loop
      vertex 4.7625 9.52499 9.525
      vertex 4.7625 22.225 111.125
      vertex 4.7625 22.225 9.525
    endloop
  endfacet
  facet normal -1 -0 0
    outer loop
      vertex 4.7625 22.225 111.125
      vertex 4.7625 9.52499 9.525
      vertex 4.7625 9.52499 111.125
    endloop
  endfacet
  facet normal 0 1 0
    outer loop
      vertex 4.7625 9.52499 111.125
      vertex 4.76249 9.52499 98.425
      vertex 0 9.52499 111.125
    endloop
  endfacet
  facet normal 0 1 0
    outer loop
      vertex 4.7625 9.52499 111.125
      vertex 4.76249 9.52499 73.025
      vertex 4.76249 9.52499 98.425
    endloop
  endfacet
  facet normal 0 1 0
    outer loop
      vertex 4.76249 9.52499 73.025
      vertex 4.76249 9.52499 47.625
      vertex 8.58307e-06 9.52499 73.025
    endloop
  endfacet
  facet normal 0 1 0
    outer loop
      vertex 4.7625 9.52499 111.125
      vertex 4.76249 9.52499 47.625
      vertex 4.76249 9.52499 73.025
    endloop
  endfacet
  facet normal 0 1 0
    outer loop
      vertex 4.7625 9.52499 111.125
      vertex 4.76249 9.52499 22.225
      vertex 4.76249 9.52499 47.625
    endloop
  endfacet
  facet normal 0 1 0
    outer loop
      vertex 4.76249 9.52499 22.225
      vertex 4.7625 9.52499 9.525
      vertex 8.58307e-06 9.52499 22.225
    endloop
  endfacet
  facet normal 0 1 -0
    outer loop
      vertex 4.7625 9.52499 9.525
      vertex 4.76249 9.52499 22.225
      vertex 4.7625 9.52499 111.125
    endloop
  endfacet
  facet normal 0 1 -0
    outer loop
      vertex 8.58307e-06 9.52499 98.425
      vertex 0 9.52499 111.125
      vertex 4.76249 9.52499 98.425
    endloop
  endfacet
  facet normal 0 1 -0
    outer loop
      vertex 8.58307e-06 9.52499 73.025
      vertex 0 9.52499 111.125
      vertex 8.58307e-06 9.52499 98.425
    endloop
  endfacet
  facet normal 0 1 0
    outer loop
      vertex 8.58307e-06 9.52499 47.625
      vertex 8.58307e-06 9.52499 73.025
      vertex 4.76249 9.52499 47.625
    endloop
  endfacet
  facet normal 0 1 -0
    outer loop
      vertex 8.58307e-06 9.52499 47.625
      vertex 0 9.52499 111.125
      vertex 8.58307e-06 9.52499 73.025
    endloop
  endfacet
  facet normal 0 1 -0
    outer loop
      vertex 8.58307e-06 9.52499 22.225
      vertex 0 9.52499 111.125
      vertex 8.58307e-06 9.52499 47.625
    endloop
  endfacet
  facet normal 0 1 0
    outer loop
      vertex 8.58307e-06 9.52499 22.225
      vertex 0 9.52499 9.525
      vertex 0 9.52499 111.125
    endloop
  endfacet
  facet normal 0 1 0
    outer loop
      vertex 0 9.52499 9.525
      vertex 8.58307e-06 9.52499 22.225
      vertex 4.7625 9.52499 9.525
    endloop
  endfacet
  facet normal 1 -0 0
    outer loop
      vertex 0 9.52499 111.125
      vertex 0 22.225 9.525
      vertex 0 22.225 111.125
    endloop
  endfacet
  facet normal 1 0 0
    outer loop
      vertex 0 22.225 9.525
      vertex 0 9.52499 111.125
      vertex 0 9.52499 9.525
    endloop
  endfacet
  facet normal -0.0980059 0.995186 0
    outer loop
      vertex 0 22.225 9.525
      vertex -0.929123 22.1335 111.125
      vertex 0 22.225 111.125
    endloop
  endfacet
  facet normal -0.0980059 0.995186 0
    outer loop
      vertex -0.929123 22.1335 111.125
      vertex 0 22.225 9.525
      vertex -0.929123 22.1335 9.525
    endloop
  endfacet
  facet normal -0.290273 0.956944 0
    outer loop
      vertex -0.929123 22.1335 9.525
      vertex -1.82253 21.8625 111.125
      vertex -0.929123 22.1335 111.125
    endloop
  endfacet
  facet normal -0.290273 0.956944 0
    outer loop
      vertex -1.82253 21.8625 111.125
      vertex -0.929123 22.1335 9.525
      vertex -1.82253 21.8625 9.525
    endloop
  endfacet
  facet normal -0.471396 0.881921 0
    outer loop
      vertex -1.82253 21.8625 9.525
      vertex -2.6459 21.4224 111.125
      vertex -1.82253 21.8625 111.125
    endloop
  endfacet
  facet normal -0.471396 0.881921 0
    outer loop
      vertex -2.6459 21.4224 111.125
      vertex -1.82253 21.8625 9.525
      vertex -2.6459 21.4224 9.525
    endloop
  endfacet
  facet normal -0.634404 0.773002 0
    outer loop
      vertex -2.6459 21.4224 9.525
      vertex -3.3676 20.8301 111.125
      vertex -2.6459 21.4224 111.125
    endloop
  endfacet
  facet normal -0.634404 0.773002 0
    outer loop
      vertex -3.3676 20.8301 111.125
      vertex -2.6459 21.4224 9.525
      vertex -3.3676 20.8301 9.525
    endloop
  endfacet
  facet normal -0.773018 0.634384 0
    outer loop
      vertex -3.95987 20.1084 9.525
      vertex -3.3676 20.8301 111.125
      vertex -3.3676 20.8301 9.525
    endloop
  endfacet
  facet normal -0.773018 0.634384 0
    outer loop
      vertex -3.3676 20.8301 111.125
      vertex -3.95987 20.1084 9.525
      vertex -3.95987 20.1084 111.125
    endloop
  endfacet
  facet normal -0.881924 0.471391 0
    outer loop
      vertex -4.39998 19.285 9.525
      vertex -3.95987 20.1084 111.125
      vertex -3.95987 20.1084 9.525
    endloop
  endfacet
  facet normal -0.881924 0.471391 0
    outer loop
      vertex -3.95987 20.1084 111.125
      vertex -4.39998 19.285 9.525
      vertex -4.39998 19.285 111.125
    endloop
  endfacet
  facet normal -0.95694 0.290285 0
    outer loop
      vertex -4.67099 18.3916 9.525
      vertex -4.39998 19.285 111.125
      vertex -4.39998 19.285 9.525
    endloop
  endfacet
  facet normal -0.95694 0.290285 0
    outer loop
      vertex -4.39998 19.285 111.125
      vertex -4.67099 18.3916 9.525
      vertex -4.67099 18.3916 111.125
    endloop
  endfacet
  facet normal -0.995185 0.0980189 0
    outer loop
      vertex -4.7625 17.4625 9.525
      vertex -4.67099 18.3916 111.125
      vertex -4.67099 18.3916 9.525
    endloop
  endfacet
  facet normal -0.995185 0.0980189 0
    outer loop
      vertex -4.67099 18.3916 111.125
      vertex -4.7625 17.4625 9.525
      vertex -4.7625 17.4625 111.125
    endloop
  endfacet
  facet normal -1 0 0
    outer loop
      vertex -4.7625 0 9.525
      vertex -4.7625 17.4625 111.125
      vertex -4.7625 17.4625 9.525
    endloop
  endfacet
  facet normal -1 -0 0
    outer loop
      vertex -4.7625 17.4625 111.125
      vertex -4.7625 0 9.525
      vertex -4.7625 0 111.125
    endloop
  endfacet
  facet normal -0.995185 -0.0980165 0
    outer loop
      vertex -4.67099 -0.929123 9.525
      vertex -4.7625 0 111.125
      vertex -4.7625 0 9.525
    endloop
  endfacet
  facet normal -0.995185 -0.0980165 0
    outer loop
      vertex -4.7625 0 111.125
      vertex -4.67099 -0.929123 9.525
      vertex -4.67099 -0.929123 111.125
    endloop
  endfacet
  facet normal -0.956941 -0.290283 0
    outer loop
      vertex -4.39998 -1.82253 9.525
      vertex -4.67099 -0.929123 111.125
      vertex -4.67099 -0.929123 9.525
    endloop
  endfacet
  facet normal -0.956941 -0.290283 0
    outer loop
      vertex -4.67099 -0.929123 111.125
      vertex -4.39998 -1.82253 9.525
      vertex -4.39998 -1.82253 111.125
    endloop
  endfacet
  facet normal -0.881917 -0.471405 0
    outer loop
      vertex -3.95987 -2.6459 9.525
      vertex -4.39998 -1.82253 111.125
      vertex -4.39998 -1.82253 9.525
    endloop
  endfacet
  facet normal -0.881917 -0.471405 0
    outer loop
      vertex -4.39998 -1.82253 111.125
      vertex -3.95987 -2.6459 9.525
      vertex -3.95987 -2.6459 111.125
    endloop
  endfacet
  facet normal -0.773018 -0.634384 0
    outer loop
      vertex -3.3676 -3.3676 9.525
      vertex -3.95987 -2.6459 111.125
      vertex -3.95987 -2.6459 9.525
    endloop
  endfacet
  facet normal -0.773018 -0.634384 0
    outer loop
      vertex -3.95987 -2.6459 111.125
      vertex -3.3676 -3.3676 9.525
      vertex -3.3676 -3.3676 111.125
    endloop
  endfacet
  facet normal -0.634384 -0.773018 0
    outer loop
      vertex -3.3676 -3.3676 9.525
      vertex -2.6459 -3.95987 111.125
      vertex -3.3676 -3.3676 111.125
    endloop
  endfacet
  facet normal -0.634384 -0.773018 -0
    outer loop
      vertex -2.6459 -3.95987 111.125
      vertex -3.3676 -3.3676 9.525
      vertex -2.6459 -3.95987 9.525
    endloop
  endfacet
  facet normal -0.471405 -0.881917 0
    outer loop
      vertex -2.6459 -3.95987 9.525
      vertex -1.82253 -4.39998 111.125
      vertex -2.6459 -3.95987 111.125
    endloop
  endfacet
  facet normal -0.471405 -0.881917 -0
    outer loop
      vertex -1.82253 -4.39998 111.125
      vertex -2.6459 -3.95987 9.525
      vertex -1.82253 -4.39998 9.525
    endloop
  endfacet
  facet normal -0.290283 -0.956941 0
    outer loop
      vertex -1.82253 -4.39998 9.525
      vertex -0.929123 -4.67099 111.125
      vertex -1.82253 -4.39998 111.125
    endloop
  endfacet
  facet normal -0.290283 -0.956941 -0
    outer loop
      vertex -0.929123 -4.67099 111.125
      vertex -1.82253 -4.39998 9.525
      vertex -0.929123 -4.67099 9.525
    endloop
  endfacet
  facet normal -0.0980165 -0.995185 0
    outer loop
      vertex -0.929123 -4.67099 9.525
      vertex 0 -4.7625 111.125
      vertex -0.929123 -4.67099 111.125
    endloop
  endfacet
  facet normal -0.0980165 -0.995185 -0
    outer loop
      vertex 0 -4.7625 111.125
      vertex -0.929123 -4.67099 9.525
      vertex 0 -4.7625 9.525
    endloop
  endfacet
  facet normal 0 -1 0
    outer loop
      vertex 0 -4.7625 9.525
      vertex 17.4625 -4.7625 111.125
      vertex 0 -4.7625 111.125
    endloop
  endfacet
  facet normal 0 -1 -0
    outer loop
      vertex 17.4625 -4.7625 111.125
      vertex 0 -4.7625 9.525
      vertex 17.4625 -4.7625 9.525
    endloop
  endfacet
  facet normal 0.0980189 -0.995185 0
    outer loop
      vertex 17.4625 -4.7625 9.525
      vertex 18.3916 -4.67099 111.125
      vertex 17.4625 -4.7625 111.125
    endloop
  endfacet
  facet normal 0.0980189 -0.995185 0
    outer loop
      vertex 18.3916 -4.67099 111.125
      vertex 17.4625 -4.7625 9.525
      vertex 18.3916 -4.67099 9.525
    endloop
  endfacet
  facet normal 0.290285 -0.95694 0
    outer loop
      vertex 18.3916 -4.67099 9.525
      vertex 19.285 -4.39998 111.125
      vertex 18.3916 -4.67099 111.125
    endloop
  endfacet
  facet normal 0.290285 -0.95694 0
    outer loop
      vertex 19.285 -4.39998 111.125
      vertex 18.3916 -4.67099 9.525
      vertex 19.285 -4.39998 9.525
    endloop
  endfacet
  facet normal 0.471391 -0.881924 0
    outer loop
      vertex 19.285 -4.39998 9.525
      vertex 20.1084 -3.95987 111.125
      vertex 19.285 -4.39998 111.125
    endloop
  endfacet
  facet normal 0.471391 -0.881924 0
    outer loop
      vertex 20.1084 -3.95987 111.125
      vertex 19.285 -4.39998 9.525
      vertex 20.1084 -3.95987 9.525
    endloop
  endfacet
  facet normal 0.634384 -0.773018 0
    outer loop
      vertex 20.1084 -3.95987 9.525
      vertex 20.8301 -3.3676 111.125
      vertex 20.1084 -3.95987 111.125
    endloop
  endfacet
  facet normal 0.634384 -0.773018 0
    outer loop
      vertex 20.8301 -3.3676 111.125
      vertex 20.1084 -3.95987 9.525
      vertex 20.8301 -3.3676 9.525
    endloop
  endfacet
  facet normal 0.773002 -0.634404 0
    outer loop
      vertex 20.8301 -3.3676 111.125
      vertex 21.4224 -2.6459 9.525
      vertex 21.4224 -2.6459 111.125
    endloop
  endfacet
  facet normal 0.773002 -0.634404 0
    outer loop
      vertex 21.4224 -2.6459 9.525
      vertex 20.8301 -3.3676 111.125
      vertex 20.8301 -3.3676 9.525
    endloop
  endfacet
  facet normal 0.881921 -0.471396 0
    outer loop
      vertex 21.4224 -2.6459 111.125
      vertex 21.8625 -1.82253 9.525
      vertex 21.8625 -1.82253 111.125
    endloop
  endfacet
  facet normal 0.881921 -0.471396 0
    outer loop
      vertex 21.8625 -1.82253 9.525
      vertex 21.4224 -2.6459 111.125
      vertex 21.4224 -2.6459 9.525
    endloop
  endfacet
  facet normal 0.956944 -0.290273 0
    outer loop
      vertex 21.8625 -1.82253 111.125
      vertex 22.1335 -0.929123 9.525
      vertex 22.1335 -0.929123 111.125
    endloop
  endfacet
  facet normal 0.956944 -0.290273 0
    outer loop
      vertex 22.1335 -0.929123 9.525
      vertex 21.8625 -1.82253 111.125
      vertex 21.8625 -1.82253 9.525
    endloop
  endfacet
  facet normal 0.995186 -0.0980059 0
    outer loop
      vertex 22.1335 -0.929123 111.125
      vertex 22.225 0 9.525
      vertex 22.225 0 111.125
    endloop
  endfacet
  facet normal 0.995186 -0.0980059 0
    outer loop
      vertex 22.225 0 9.525
      vertex 22.1335 -0.929123 111.125
      vertex 22.1335 -0.929123 9.525
    endloop
  endfacet
  facet normal 0 1 -0
    outer loop
      vertex 22.225 0 9.525
      vertex 9.52499 0 111.125
      vertex 22.225 0 111.125
    endloop
  endfacet
  facet normal 0 1 0
    outer loop
      vertex 9.52499 0 111.125
      vertex 22.225 0 9.525
      vertex 9.52499 0 9.525
    endloop
  endfacet
  facet normal 1 -0 0
    outer loop
      vertex 9.52499 8.58307e-06 73.025
      vertex 9.52499 4.76249 47.625
      vertex 9.52499 4.76249 73.025
    endloop
  endfacet
  facet normal 1 0 0
    outer loop
      vertex 9.52499 4.76249 47.625
      vertex 9.52499 8.58307e-06 73.025
      vertex 9.52499 8.58307e-06 47.625
    endloop
  endfacet
  facet normal 1 0 0
    outer loop
      vertex 9.52499 4.7625 111.125
      vertex 9.52499 4.76249 98.425
      vertex 9.52499 4.7625 9.525
    endloop
  endfacet
  facet normal 1 0 0
    outer loop
      vertex 9.52499 4.7625 111.125
      vertex 9.52499 8.58307e-06 98.425
      vertex 9.52499 4.76249 98.425
    endloop
  endfacet
  facet normal 0 0 0
    outer loop
      vertex 9.52499 8.58307e-06 98.425
      vertex 9.52499 8.58307e-06 47.625
      vertex 9.52499 8.58307e-06 73.025
    endloop
  endfacet
  facet normal 0 0 0
    outer loop
      vertex 9.52499 8.58307e-06 98.425
      vertex 9.52499 8.58307e-06 22.225
      vertex 9.52499 8.58307e-06 47.625
    endloop
  endfacet
  facet normal 1 0 0
    outer loop
      vertex 9.52499 8.58307e-06 98.425
      vertex 9.52499 0 111.125
      vertex 9.52499 8.58307e-06 22.225
    endloop
  endfacet
  facet normal 1 -0 0
    outer loop
      vertex 9.52499 0 111.125
      vertex 9.52499 8.58307e-06 98.425
      vertex 9.52499 4.7625 111.125
    endloop
  endfacet
  facet normal 1 -0 0
    outer loop
      vertex 9.52499 4.76249 73.025
      vertex 9.52499 4.7625 9.525
      vertex 9.52499 4.76249 98.425
    endloop
  endfacet
  facet normal 1 -0 0
    outer loop
      vertex 9.52499 4.76249 47.625
      vertex 9.52499 4.7625 9.525
      vertex 9.52499 4.76249 73.025
    endloop
  endfacet
  facet normal 1 -0 0
    outer loop
      vertex 9.52499 4.76249 22.225
      vertex 9.52499 4.7625 9.525
      vertex 9.52499 4.76249 47.625
    endloop
  endfacet
  facet normal 1 -0 0
    outer loop
      vertex 9.52499 8.58307e-06 22.225
      vertex 9.52499 4.7625 9.525
      vertex 9.52499 4.76249 22.225
    endloop
  endfacet
  facet normal 1 0 0
    outer loop
      vertex 9.52499 8.58307e-06 22.225
      vertex 9.52499 0 9.525
      vertex 9.52499 4.7625 9.525
    endloop
  endfacet
  facet normal 1 0 0
    outer loop
      vertex 9.52499 0 9.525
      vertex 9.52499 8.58307e-06 22.225
      vertex 9.52499 0 111.125
    endloop
  endfacet
  facet normal 0 -1 0
    outer loop
      vertex 9.52499 4.7625 9.525
      vertex 22.225 4.7625 111.125
      vertex 9.52499 4.7625 111.125
    endloop
  endfacet
  facet normal 0 -1 -0
    outer loop
      vertex 22.225 4.7625 111.125
      vertex 9.52499 4.7625 9.525
      vertex 22.225 4.7625 9.525
    endloop
  endfacet
  facet normal 0.995186 0.0980062 0
    outer loop
      vertex 22.225 4.7625 111.125
      vertex 22.1335 5.69162 9.525
      vertex 22.1335 5.69162 111.125
    endloop
  endfacet
  facet normal 0.995186 0.0980062 0
    outer loop
      vertex 22.1335 5.69162 9.525
      vertex 22.225 4.7625 111.125
      vertex 22.225 4.7625 9.525
    endloop
  endfacet
  facet normal 0.956943 0.290275 0
    outer loop
      vertex 22.1335 5.69162 111.125
      vertex 21.8625 6.58502 9.525
      vertex 21.8625 6.58502 111.125
    endloop
  endfacet
  facet normal 0.956943 0.290275 0
    outer loop
      vertex 21.8625 6.58502 9.525
      vertex 22.1335 5.69162 111.125
      vertex 22.1335 5.69162 9.525
    endloop
  endfacet
  facet normal 0.555585 0.83146 -0
    outer loop
      vertex 1.80722 0.995422 9.525
      vertex 1.32059 1.32059 111.125
      vertex 1.80722 0.995422 111.125
    endloop
  endfacet
  facet normal 0.555585 0.83146 0
    outer loop
      vertex 1.32059 1.32059 111.125
      vertex 1.80722 0.995422 9.525
      vertex 1.32059 1.32059 9.525
    endloop
  endfacet
  facet normal 0.83146 0.555585 0
    outer loop
      vertex 1.32059 1.32059 111.125
      vertex 0.995422 1.80722 9.525
      vertex 0.995422 1.80722 111.125
    endloop
  endfacet
  facet normal 0.83146 0.555585 0
    outer loop
      vertex 0.995422 1.80722 9.525
      vertex 1.32059 1.32059 111.125
      vertex 1.32059 1.32059 9.525
    endloop
  endfacet
  facet normal 0.980785 0.195092 0
    outer loop
      vertex 0.995422 1.80722 111.125
      vertex 0.881241 2.38124 9.525
      vertex 0.881241 2.38124 111.125
    endloop
  endfacet
  facet normal 0.980785 0.195092 0
    outer loop
      vertex 0.881241 2.38124 9.525
      vertex 0.995422 1.80722 111.125
      vertex 0.995422 1.80722 9.525
    endloop
  endfacet
  facet normal 0.980785 -0.195092 0
    outer loop
      vertex 0.881241 2.38124 111.125
      vertex 0.995422 2.95526 9.525
      vertex 0.995422 2.95526 111.125
    endloop
  endfacet
  facet normal 0.980785 -0.195092 0
    outer loop
      vertex 0.995422 2.95526 9.525
      vertex 0.881241 2.38124 111.125
      vertex 0.881241 2.38124 9.525
    endloop
  endfacet
  facet normal 0.831471 -0.555569 0
    outer loop
      vertex 0.995422 2.95526 111.125
      vertex 1.32059 3.44191 9.525
      vertex 1.32059 3.44191 111.125
    endloop
  endfacet
  facet normal 0.831471 -0.555569 0
    outer loop
      vertex 1.32059 3.44191 9.525
      vertex 0.995422 2.95526 111.125
      vertex 0.995422 2.95526 9.525
    endloop
  endfacet
  facet normal 0.555563 -0.831474 0
    outer loop
      vertex 1.32059 3.44191 9.525
      vertex 1.80722 3.76706 111.125
      vertex 1.32059 3.44191 111.125
    endloop
  endfacet
  facet normal 0.555563 -0.831474 0
    outer loop
      vertex 1.80722 3.76706 111.125
      vertex 1.32059 3.44191 9.525
      vertex 1.80722 3.76706 9.525
    endloop
  endfacet
  facet normal 0.195091 -0.980785 0
    outer loop
      vertex 1.80722 3.76706 9.525
      vertex 2.38124 3.88124 111.125
      vertex 1.80722 3.76706 111.125
    endloop
  endfacet
  facet normal 0.195091 -0.980785 0
    outer loop
      vertex 2.38124 3.88124 111.125
      vertex 1.80722 3.76706 9.525
      vertex 2.38124 3.88124 9.525
    endloop
  endfacet
  facet normal -0.195091 -0.980785 0
    outer loop
      vertex 2.38124 3.88124 9.525
      vertex 2.95526 3.76706 111.125
      vertex 2.38124 3.88124 111.125
    endloop
  endfacet
  facet normal -0.195091 -0.980785 -0
    outer loop
      vertex 2.95526 3.76706 111.125
      vertex 2.38124 3.88124 9.525
      vertex 2.95526 3.76706 9.525
    endloop
  endfacet
  facet normal -0.555548 -0.831485 0
    outer loop
      vertex 2.95526 3.76706 9.525
      vertex 3.44191 3.44191 111.125
      vertex 2.95526 3.76706 111.125
    endloop
  endfacet
  facet normal -0.555548 -0.831485 -0
    outer loop
      vertex 3.44191 3.44191 111.125
      vertex 2.95526 3.76706 9.525
      vertex 3.44191 3.44191 9.525
    endloop
  endfacet
  facet normal -0.831485 -0.555548 0
    outer loop
      vertex 3.76706 2.95526 9.525
      vertex 3.44191 3.44191 111.125
      vertex 3.44191 3.44191 9.525
    endloop
  endfacet
  facet normal -0.831485 -0.555548 0
    outer loop
      vertex 3.44191 3.44191 111.125
      vertex 3.76706 2.95526 9.525
      vertex 3.76706 2.95526 111.125
    endloop
  endfacet
  facet normal -0.980785 -0.195091 0
    outer loop
      vertex 3.88124 2.38124 9.525
      vertex 3.76706 2.95526 111.125
      vertex 3.76706 2.95526 9.525
    endloop
  endfacet
  facet normal -0.980785 -0.195091 0
    outer loop
      vertex 3.76706 2.95526 111.125
      vertex 3.88124 2.38124 9.525
      vertex 3.88124 2.38124 111.125
    endloop
  endfacet
  facet normal -0.980785 0.195091 0
    outer loop
      vertex 3.76706 1.80722 9.525
      vertex 3.88124 2.38124 111.125
      vertex 3.88124 2.38124 9.525
    endloop
  endfacet
  facet normal -0.980785 0.195091 0
    outer loop
      vertex 3.88124 2.38124 111.125
      vertex 3.76706 1.80722 9.525
      vertex 3.76706 1.80722 111.125
    endloop
  endfacet
  facet normal -0.831474 0.555563 0
    outer loop
      vertex 3.44191 1.32059 9.525
      vertex 3.76706 1.80722 111.125
      vertex 3.76706 1.80722 9.525
    endloop
  endfacet
  facet normal -0.831474 0.555563 0
    outer loop
      vertex 3.76706 1.80722 111.125
      vertex 3.44191 1.32059 9.525
      vertex 3.44191 1.32059 111.125
    endloop
  endfacet
  facet normal -0.555569 0.831471 0
    outer loop
      vertex 3.44191 1.32059 9.525
      vertex 2.95526 0.995422 111.125
      vertex 3.44191 1.32059 111.125
    endloop
  endfacet
  facet normal -0.555569 0.831471 0
    outer loop
      vertex 2.95526 0.995422 111.125
      vertex 3.44191 1.32059 9.525
      vertex 2.95526 0.995422 9.525
    endloop
  endfacet
  facet normal -0.195092 0.980785 0
    outer loop
      vertex 2.95526 0.995422 9.525
      vertex 2.38124 0.881241 111.125
      vertex 2.95526 0.995422 111.125
    endloop
  endfacet
  facet normal -0.195092 0.980785 0
    outer loop
      vertex 2.38124 0.881241 111.125
      vertex 2.95526 0.995422 9.525
      vertex 2.38124 0.881241 9.525
    endloop
  endfacet
  facet normal 0.195092 0.980785 -0
    outer loop
      vertex 2.38124 0.881241 9.525
      vertex 1.80722 0.995422 111.125
      vertex 2.38124 0.881241 111.125
    endloop
  endfacet
  facet normal 0.195092 0.980785 0
    outer loop
      vertex 1.80722 0.995422 111.125
      vertex 2.38124 0.881241 9.525
      vertex 1.80722 0.995422 9.525
    endloop
  endfacet
  facet normal 0 0 1
    outer loop
      vertex 17.4625 22.225 4.7625
      vertex 22.225 17.4625 4.7625
      vertex 22.1335 18.3916 4.7625
    endloop
  endfacet
  facet normal 0 0 1
    outer loop
      vertex 22.225 17.4625 4.7625
      vertex 22.1335 5.69162 4.7625
      vertex 22.225 4.7625 4.7625
    endloop
  endfacet
  facet normal 0 0 1
    outer loop
      vertex 17.4625 22.225 4.7625
      vertex 22.1335 18.3916 4.7625
      vertex 21.8625 19.285 4.7625
    endloop
  endfacet
  facet normal 0 0 1
    outer loop
      vertex 22.225 17.4625 4.7625
      vertex 21.8625 6.58502 4.7625
      vertex 22.1335 5.69162 4.7625
    endloop
  endfacet
  facet normal 0 0 1
    outer loop
      vertex 17.4625 22.225 4.7625
      vertex 21.8625 19.285 4.7625
      vertex 21.4224 20.1084 4.7625
    endloop
  endfacet
  facet normal 0 0 1
    outer loop
      vertex 22.225 17.4625 4.7625
      vertex 21.4224 7.4084 4.7625
      vertex 21.8625 6.58502 4.7625
    endloop
  endfacet
  facet normal 0 0 1
    outer loop
      vertex 22.225 17.4625 4.7625
      vertex 21.225 7.64891 4.7625
      vertex 21.4224 7.4084 4.7625
    endloop
  endfacet
  facet normal 0 0 1
    outer loop
      vertex 9.52499 0 4.7625
      vertex 21.225 4.7625 4.7625
      vertex 21.225 7.64891 4.7625
    endloop
  endfacet
  facet normal 0 0 1
    outer loop
      vertex 21.225 4.7625 4.7625
      vertex 9.52499 0 4.7625
      vertex 21.225 0 4.7625
    endloop
  endfacet
  facet normal 0 0 1
    outer loop
      vertex 17.4625 22.225 4.7625
      vertex 21.4224 20.1084 4.7625
      vertex 20.8301 20.8301 4.7625
    endloop
  endfacet
  facet normal 0 0 1
    outer loop
      vertex 22.225 17.4625 4.7625
      vertex 17.4625 22.225 4.7625
      vertex 21.225 7.64891 4.7625
    endloop
  endfacet
  facet normal 0 -0 1
    outer loop
      vertex 17.4625 -4.7625 4.7625
      vertex 21.225 0 4.7625
      vertex 9.52499 0 4.7625
    endloop
  endfacet
  facet normal 0 0 1
    outer loop
      vertex 17.4625 22.225 4.7625
      vertex 20.8301 20.8301 4.7625
      vertex 20.1084 21.4224 4.7625
    endloop
  endfacet
  facet normal 0 -0 1
    outer loop
      vertex 18.3916 -4.67099 4.7625
      vertex 21.225 0 4.7625
      vertex 17.4625 -4.7625 4.7625
    endloop
  endfacet
  facet normal 0 0 1
    outer loop
      vertex 17.4625 22.225 4.7625
      vertex 20.1084 21.4224 4.7625
      vertex 19.285 21.8625 4.7625
    endloop
  endfacet
  facet normal 0 -0 1
    outer loop
      vertex 20.8301 -3.3676 4.7625
      vertex 21.225 0 4.7625
      vertex 20.1084 -3.95987 4.7625
    endloop
  endfacet
  facet normal 0 0 1
    outer loop
      vertex 17.4625 22.225 4.7625
      vertex 19.285 21.8625 4.7625
      vertex 18.3916 22.1335 4.7625
    endloop
  endfacet
  facet normal 0 0 1
    outer loop
      vertex 21.225 0 4.7625
      vertex 20.8301 -3.3676 4.7625
      vertex 21.225 -2.88641 4.7625
    endloop
  endfacet
  facet normal -0 0 1
    outer loop
      vertex 7.64891 21.225 4.7625
      vertex 21.225 7.64891 4.7625
      vertex 17.4625 22.225 4.7625
    endloop
  endfacet
  facet normal 0 0 1
    outer loop
      vertex 21.225 0 4.7625
      vertex 19.285 -4.39998 4.7625
      vertex 20.1084 -3.95987 4.7625
    endloop
  endfacet
  facet normal 0 0 1
    outer loop
      vertex 21.225 0 4.7625
      vertex 18.3916 -4.67099 4.7625
      vertex 19.285 -4.39998 4.7625
    endloop
  endfacet
  facet normal 0 0 1
    outer loop
      vertex 21.225 7.64891 4.7625
      vertex 7.64891 21.225 4.7625
      vertex 9.52499 0 4.7625
    endloop
  endfacet
  facet normal 0 0 1
    outer loop
      vertex 17.4625 22.225 4.7625
      vertex 7.4084 21.4224 4.7625
      vertex 7.64891 21.225 4.7625
    endloop
  endfacet
  facet normal 0 0 1
    outer loop
      vertex 17.4625 22.225 4.7625
      vertex 6.58502 21.8625 4.7625
      vertex 7.4084 21.4224 4.7625
    endloop
  endfacet
  facet normal 0 0 1
    outer loop
      vertex 17.4625 22.225 4.7625
      vertex 5.69162 22.1335 4.7625
      vertex 6.58502 21.8625 4.7625
    endloop
  endfacet
  facet normal 0 -0 1
    outer loop
      vertex 5.69162 22.1335 4.7625
      vertex 17.4625 22.225 4.7625
      vertex 4.7625 22.225 4.7625
    endloop
  endfacet
  facet normal -0 0 1
    outer loop
      vertex 21.225 4.7625 4.7625
      vertex 22.225 0 4.7625
      vertex 22.225 4.7625 4.7625
    endloop
  endfacet
  facet normal 0 0 1
    outer loop
      vertex 22.225 0 4.7625
      vertex 21.225 4.7625 4.7625
      vertex 21.225 0 4.7625
    endloop
  endfacet
  facet normal 0 0 1
    outer loop
      vertex 17.4625 -4.7625 4.7625
      vertex 9.52499 0 4.7625
      vertex 9.52499 -4.7625 4.7625
    endloop
  endfacet
  facet normal 0 0 1
    outer loop
      vertex 0 9.52499 4.7625
      vertex 7.64891 21.225 4.7625
      vertex 4.7625 21.225 4.7625
    endloop
  endfacet
  facet normal 0 0 1
    outer loop
      vertex 0 21.225 4.7625
      vertex 4.7625 21.225 4.7625
      vertex 0 22.225 4.7625
    endloop
  endfacet
  facet normal 0 0 1
    outer loop
      vertex 0 9.52499 4.7625
      vertex 4.7625 21.225 4.7625
      vertex 0 21.225 4.7625
    endloop
  endfacet
  facet normal 0 0 1
    outer loop
      vertex 7.64891 21.225 4.7625
      vertex 0 9.52499 4.7625
      vertex 9.52499 0 4.7625
    endloop
  endfacet
  facet normal 0 0 1
    outer loop
      vertex 9.52499 0 4.7625
      vertex 0 9.52499 4.7625
      vertex 0 0 4.7625
    endloop
  endfacet
  facet normal 0 0 1
    outer loop
      vertex 4.7625 22.225 4.7625
      vertex 0 22.225 4.7625
      vertex 4.7625 21.225 4.7625
    endloop
  endfacet
  facet normal 0 0 1
    outer loop
      vertex -3.3676 20.8301 4.7625
      vertex 0 21.225 4.7625
      vertex -2.88641 21.225 4.7625
    endloop
  endfacet
  facet normal 0 0 1
    outer loop
      vertex 0 21.225 4.7625
      vertex -3.3676 20.8301 4.7625
      vertex -3.95987 20.1084 4.7625
    endloop
  endfacet
  facet normal 0 0 1
    outer loop
      vertex -4.39998 19.285 4.7625
      vertex 0 21.225 4.7625
      vertex -3.95987 20.1084 4.7625
    endloop
  endfacet
  facet normal 0 0 1
    outer loop
      vertex -4.67099 18.3916 4.7625
      vertex 0 21.225 4.7625
      vertex -4.39998 19.285 4.7625
    endloop
  endfacet
  facet normal 0 0 1
    outer loop
      vertex 0 21.225 4.7625
      vertex -4.67099 18.3916 4.7625
      vertex -4.7625 17.4625 4.7625
    endloop
  endfacet
  facet normal 0 0 1
    outer loop
      vertex 0 21.225 4.7625
      vertex -4.7625 17.4625 4.7625
      vertex 0 9.52499 4.7625
    endloop
  endfacet
  facet normal 0 0 1
    outer loop
      vertex 0 9.52499 4.7625
      vertex -4.7625 17.4625 4.7625
      vertex -4.7625 9.52499 4.7625
    endloop
  endfacet
  facet normal -0 0 1
    outer loop
      vertex -0.929123 22.1335 9.525
      vertex 0 21.225 9.525
      vertex 0 22.225 9.525
    endloop
  endfacet
  facet normal -0 0 1
    outer loop
      vertex -1.82253 21.8625 9.525
      vertex 0 21.225 9.525
      vertex -0.929123 22.1335 9.525
    endloop
  endfacet
  facet normal -0 0 1
    outer loop
      vertex -2.6459 21.4224 9.525
      vertex 0 21.225 9.525
      vertex -1.82253 21.8625 9.525
    endloop
  endfacet
  facet normal 0 0 1
    outer loop
      vertex 0 21.225 9.525
      vertex -2.6459 21.4224 9.525
      vertex -2.88641 21.225 9.525
    endloop
  endfacet
  facet normal 0 0 1
    outer loop
      vertex 4.7625 21.225 9.525
      vertex 7.4084 21.4224 9.525
      vertex 6.58502 21.8625 9.525
    endloop
  endfacet
  facet normal 0 0 1
    outer loop
      vertex 4.7625 21.225 9.525
      vertex 6.58502 21.8625 9.525
      vertex 5.69162 22.1335 9.525
    endloop
  endfacet
  facet normal 0 0 1
    outer loop
      vertex 4.7625 21.225 9.525
      vertex 5.69162 22.1335 9.525
      vertex 4.7625 22.225 9.525
    endloop
  endfacet
  facet normal 0 0 1
    outer loop
      vertex 7.4084 21.4224 9.525
      vertex 4.7625 21.225 9.525
      vertex 7.64891 21.225 9.525
    endloop
  endfacet
  facet normal 0 0 1
    outer loop
      vertex -4.7625 0 9.525
      vertex 0 0 9.525
      vertex 0 9.52499 9.525
    endloop
  endfacet
  facet normal 0 -0 1
    outer loop
      vertex -4.67099 -0.929123 9.525
      vertex 0 0 9.525
      vertex -4.7625 0 9.525
    endloop
  endfacet
  facet normal 0 0 1
    outer loop
      vertex 0 0 9.525
      vertex -0.929123 -4.67099 9.525
      vertex 0 -4.7625 9.525
    endloop
  endfacet
  facet normal 0 0 1
    outer loop
      vertex 0 0 9.525
      vertex -1.82253 -4.39998 9.525
      vertex -0.929123 -4.67099 9.525
    endloop
  endfacet
  facet normal 0 0 1
    outer loop
      vertex 0 0 9.525
      vertex -2.6459 -3.95987 9.525
      vertex -1.82253 -4.39998 9.525
    endloop
  endfacet
  facet normal 0 0 1
    outer loop
      vertex 0 0 9.525
      vertex -3.3676 -3.3676 9.525
      vertex -2.6459 -3.95987 9.525
    endloop
  endfacet
  facet normal 0 0 1
    outer loop
      vertex 0 0 9.525
      vertex -3.95987 -2.6459 9.525
      vertex -3.3676 -3.3676 9.525
    endloop
  endfacet
  facet normal 0 0 1
    outer loop
      vertex 0 0 9.525
      vertex -4.39998 -1.82253 9.525
      vertex -3.95987 -2.6459 9.525
    endloop
  endfacet
  facet normal 0 0 1
    outer loop
      vertex -4.7625 0 9.525
      vertex 0 9.52499 9.525
      vertex -4.7625 9.52499 9.525
    endloop
  endfacet
  facet normal 0 0 1
    outer loop
      vertex 0 0 9.525
      vertex -4.67099 -0.929123 9.525
      vertex -4.39998 -1.82253 9.525
    endloop
  endfacet
  facet normal -0 0 1
    outer loop
      vertex 0 0 9.525
      vertex 9.52499 -4.7625 9.525
      vertex 9.52499 0 9.525
    endloop
  endfacet
  facet normal 0 0 1
    outer loop
      vertex 9.52499 -4.7625 9.525
      vertex 0 0 9.525
      vertex 0 -4.7625 9.525
    endloop
  endfacet
  facet normal 0 0 1
    outer loop
      vertex 21.225 4.7625 9.525
      vertex 22.1335 5.69162 9.525
      vertex 21.8625 6.58502 9.525
    endloop
  endfacet
  facet normal 0 0 1
    outer loop
      vertex 21.225 4.7625 9.525
      vertex 21.8625 6.58502 9.525
      vertex 21.4224 7.4084 9.525
    endloop
  endfacet
  facet normal 0 0 1
    outer loop
      vertex 21.225 4.7625 9.525
      vertex 21.4224 7.4084 9.525
      vertex 21.225 7.64891 9.525
    endloop
  endfacet
  facet normal 0 0 1
    outer loop
      vertex 22.1335 5.69162 9.525
      vertex 21.225 4.7625 9.525
      vertex 22.225 4.7625 9.525
    endloop
  endfacet
  facet normal -0 0 1
    outer loop
      vertex 21.225 0 9.525
      vertex 22.1335 -0.929123 9.525
      vertex 22.225 0 9.525
    endloop
  endfacet
  facet normal 0 0 1
    outer loop
      vertex 22.1335 -0.929123 9.525
      vertex 21.225 0 9.525
      vertex 21.8625 -1.82253 9.525
    endloop
  endfacet
  facet normal 0 0 1
    outer loop
      vertex 21.8625 -1.82253 9.525
      vertex 21.225 0 9.525
      vertex 21.4224 -2.6459 9.525
    endloop
  endfacet
  facet normal 0 0 1
    outer loop
      vertex 21.4224 -2.6459 9.525
      vertex 21.225 0 9.525
      vertex 21.225 -2.88641 9.525
    endloop
  endfacet
  facet normal -0.0980059 0.995186 0
    outer loop
      vertex 0 22.225 4.7625
      vertex -0.929123 22.1335 9.525
      vertex 0 22.225 9.525
    endloop
  endfacet
  facet normal -0.0980059 0.995186 0
    outer loop
      vertex -0.929123 22.1335 0
      vertex 0 22.225 4.7625
      vertex 0 22.225 0
    endloop
  endfacet
  facet normal -0.0980059 0.995186 0
    outer loop
      vertex 0 22.225 4.7625
      vertex -0.929123 22.1335 0
      vertex -0.929123 22.1335 9.525
    endloop
  endfacet
  facet normal -0.290273 0.956944 0
    outer loop
      vertex -0.929123 22.1335 0
      vertex -1.82253 21.8625 9.525
      vertex -0.929123 22.1335 9.525
    endloop
  endfacet
  facet normal -0.290273 0.956944 0
    outer loop
      vertex -1.82253 21.8625 9.525
      vertex -0.929123 22.1335 0
      vertex -1.82253 21.8625 0
    endloop
  endfacet
  facet normal -0.471396 0.881921 0
    outer loop
      vertex -1.82253 21.8625 9.525
      vertex -2.6459 21.4224 4.7625
      vertex -2.6459 21.4224 9.525
    endloop
  endfacet
  facet normal -0.471396 0.881921 0
    outer loop
      vertex -1.82253 21.8625 0
      vertex -2.6459 21.4224 4.7625
      vertex -1.82253 21.8625 9.525
    endloop
  endfacet
  facet normal -0.471396 0.881921 0
    outer loop
      vertex -2.6459 21.4224 4.7625
      vertex -1.82253 21.8625 0
      vertex -2.6459 21.4224 0
    endloop
  endfacet
  facet normal -0.634429 0.772981 0
    outer loop
      vertex -2.6459 21.4224 4.7625
      vertex -2.88641 21.225 9.525
      vertex -2.6459 21.4224 9.525
    endloop
  endfacet
  facet normal -0.634429 0.772981 0
    outer loop
      vertex -2.88641 21.225 9.525
      vertex -2.6459 21.4224 4.7625
      vertex -2.88641 21.225 4.7625
    endloop
  endfacet
  facet normal 0 -1 0
    outer loop
      vertex -2.88641 21.225 9.525
      vertex -2.88641 21.225 4.7625
      vertex 0 21.225 9.525
    endloop
  endfacet
  facet normal 0 -1 -0
    outer loop
      vertex 0 21.225 9.525
      vertex -2.88641 21.225 4.7625
      vertex 0 21.225 4.7625
    endloop
  endfacet
  facet normal 1 -0 0
    outer loop
      vertex 0 21.225 9.525
      vertex 0 22.225 4.7625
      vertex 0 22.225 9.525
    endloop
  endfacet
  facet normal 1 0 0
    outer loop
      vertex 0 22.225 4.7625
      vertex 0 21.225 9.525
      vertex 0 21.225 4.7625
    endloop
  endfacet
  facet normal 0.471392 0.881924 -0
    outer loop
      vertex 7.4084 21.4224 4.7625
      vertex 6.58502 21.8625 9.525
      vertex 7.4084 21.4224 9.525
    endloop
  endfacet
  facet normal 0.471392 0.881924 0
    outer loop
      vertex 6.58502 21.8625 9.525
      vertex 7.4084 21.4224 4.7625
      vertex 6.58502 21.8625 4.7625
    endloop
  endfacet
  facet normal 0.290275 0.956943 -0
    outer loop
      vertex 6.58502 21.8625 4.7625
      vertex 5.69162 22.1335 9.525
      vertex 6.58502 21.8625 9.525
    endloop
  endfacet
  facet normal 0.290275 0.956943 0
    outer loop
      vertex 5.69162 22.1335 9.525
      vertex 6.58502 21.8625 4.7625
      vertex 5.69162 22.1335 4.7625
    endloop
  endfacet
  facet normal 0.0980062 0.995186 -0
    outer loop
      vertex 5.69162 22.1335 4.7625
      vertex 4.7625 22.225 9.525
      vertex 5.69162 22.1335 9.525
    endloop
  endfacet
  facet normal 0.0980062 0.995186 0
    outer loop
      vertex 4.7625 22.225 9.525
      vertex 5.69162 22.1335 4.7625
      vertex 4.7625 22.225 4.7625
    endloop
  endfacet
  facet normal -1 0 0
    outer loop
      vertex 4.7625 21.225 4.7625
      vertex 4.7625 22.225 9.525
      vertex 4.7625 22.225 4.7625
    endloop
  endfacet
  facet normal -1 -0 0
    outer loop
      vertex 4.7625 22.225 9.525
      vertex 4.7625 21.225 4.7625
      vertex 4.7625 21.225 9.525
    endloop
  endfacet
  facet normal 0 -1 0
    outer loop
      vertex 4.7625 21.225 4.7625
      vertex 7.64891 21.225 9.525
      vertex 4.7625 21.225 9.525
    endloop
  endfacet
  facet normal 0 -1 -0
    outer loop
      vertex 7.64891 21.225 9.525
      vertex 4.7625 21.225 4.7625
      vertex 7.64891 21.225 4.7625
    endloop
  endfacet
  facet normal 0.634429 0.772981 -0
    outer loop
      vertex 7.64891 21.225 4.7625
      vertex 7.4084 21.4224 9.525
      vertex 7.64891 21.225 9.525
    endloop
  endfacet
  facet normal 0.634429 0.772981 0
    outer loop
      vertex 7.4084 21.4224 9.525
      vertex 7.64891 21.225 4.7625
      vertex 7.4084 21.4224 4.7625
    endloop
  endfacet
  facet normal 0 1 -0
    outer loop
      vertex 9.52499 0 4.7625
      vertex 0 0 9.525
      vertex 9.52499 0 9.525
    endloop
  endfacet
  facet normal 0 1 0
    outer loop
      vertex 0 0 9.525
      vertex 9.52499 0 4.7625
      vertex 0 0 4.7625
    endloop
  endfacet
  facet normal 1 -0 0
    outer loop
      vertex 0 0 9.525
      vertex 0 9.52499 4.7625
      vertex 0 9.52499 9.525
    endloop
  endfacet
  facet normal 1 0 0
    outer loop
      vertex 0 9.52499 4.7625
      vertex 0 0 9.525
      vertex 0 0 4.7625
    endloop
  endfacet
  facet normal 0 1 -0
    outer loop
      vertex 0 9.52499 4.7625
      vertex -4.7625 9.52499 9.525
      vertex 0 9.52499 9.525
    endloop
  endfacet
  facet normal 0 1 0
    outer loop
      vertex -4.7625 9.52499 9.525
      vertex 0 9.52499 4.7625
      vertex -4.7625 9.52499 4.7625
    endloop
  endfacet
  facet normal -1 0 0
    outer loop
      vertex -4.7625 17.4625 0
      vertex -4.7625 9.52499 4.7625
      vertex -4.7625 17.4625 4.7625
    endloop
  endfacet
  facet normal -1 0 0
    outer loop
      vertex -4.7625 0 0
      vertex -4.7625 9.52499 4.7625
      vertex -4.7625 17.4625 0
    endloop
  endfacet
  facet normal -1 0 0
    outer loop
      vertex -4.7625 0 9.525
      vertex -4.7625 9.52499 4.7625
      vertex -4.7625 0 0
    endloop
  endfacet
  facet normal -1 0 0
    outer loop
      vertex -4.7625 9.52499 4.7625
      vertex -4.7625 0 9.525
      vertex -4.7625 9.52499 9.525
    endloop
  endfacet
  facet normal -0.995185 -0.0980165 0
    outer loop
      vertex -4.67099 -0.929123 0
      vertex -4.7625 0 9.525
      vertex -4.7625 0 0
    endloop
  endfacet
  facet normal -0.995185 -0.0980165 0
    outer loop
      vertex -4.7625 0 9.525
      vertex -4.67099 -0.929123 0
      vertex -4.67099 -0.929123 9.525
    endloop
  endfacet
  facet normal -0.956941 -0.290283 0
    outer loop
      vertex -4.39998 -1.82253 0
      vertex -4.67099 -0.929123 9.525
      vertex -4.67099 -0.929123 0
    endloop
  endfacet
  facet normal -0.956941 -0.290283 0
    outer loop
      vertex -4.67099 -0.929123 9.525
      vertex -4.39998 -1.82253 0
      vertex -4.39998 -1.82253 9.525
    endloop
  endfacet
  facet normal -0.881917 -0.471405 0
    outer loop
      vertex -3.95987 -2.6459 0
      vertex -4.39998 -1.82253 9.525
      vertex -4.39998 -1.82253 0
    endloop
  endfacet
  facet normal -0.881917 -0.471405 0
    outer loop
      vertex -4.39998 -1.82253 9.525
      vertex -3.95987 -2.6459 0
      vertex -3.95987 -2.6459 9.525
    endloop
  endfacet
  facet normal -0.773018 -0.634384 0
    outer loop
      vertex -3.3676 -3.3676 0
      vertex -3.95987 -2.6459 9.525
      vertex -3.95987 -2.6459 0
    endloop
  endfacet
  facet normal -0.773018 -0.634384 0
    outer loop
      vertex -3.95987 -2.6459 9.525
      vertex -3.3676 -3.3676 0
      vertex -3.3676 -3.3676 9.525
    endloop
  endfacet
  facet normal -0.634384 -0.773018 0
    outer loop
      vertex -3.3676 -3.3676 0
      vertex -2.6459 -3.95987 9.525
      vertex -3.3676 -3.3676 9.525
    endloop
  endfacet
  facet normal -0.634384 -0.773018 -0
    outer loop
      vertex -2.6459 -3.95987 9.525
      vertex -3.3676 -3.3676 0
      vertex -2.6459 -3.95987 0
    endloop
  endfacet
  facet normal -0.471405 -0.881917 0
    outer loop
      vertex -2.6459 -3.95987 0
      vertex -1.82253 -4.39998 9.525
      vertex -2.6459 -3.95987 9.525
    endloop
  endfacet
  facet normal -0.471405 -0.881917 -0
    outer loop
      vertex -1.82253 -4.39998 9.525
      vertex -2.6459 -3.95987 0
      vertex -1.82253 -4.39998 0
    endloop
  endfacet
  facet normal -0.290283 -0.956941 0
    outer loop
      vertex -1.82253 -4.39998 0
      vertex -0.929123 -4.67099 9.525
      vertex -1.82253 -4.39998 9.525
    endloop
  endfacet
  facet normal -0.290283 -0.956941 -0
    outer loop
      vertex -0.929123 -4.67099 9.525
      vertex -1.82253 -4.39998 0
      vertex -0.929123 -4.67099 0
    endloop
  endfacet
  facet normal -0.0980165 -0.995185 0
    outer loop
      vertex -0.929123 -4.67099 0
      vertex 0 -4.7625 9.525
      vertex -0.929123 -4.67099 9.525
    endloop
  endfacet
  facet normal -0.0980165 -0.995185 -0
    outer loop
      vertex 0 -4.7625 9.525
      vertex -0.929123 -4.67099 0
      vertex 0 -4.7625 0
    endloop
  endfacet
  facet normal 0 -1 0
    outer loop
      vertex 0 -4.7625 9.525
      vertex 9.52499 -4.7625 4.7625
      vertex 9.52499 -4.7625 9.525
    endloop
  endfacet
  facet normal 0 -1 0
    outer loop
      vertex 0 -4.7625 0
      vertex 9.52499 -4.7625 4.7625
      vertex 0 -4.7625 9.525
    endloop
  endfacet
  facet normal 0 -1 0
    outer loop
      vertex 17.4625 -4.7625 0
      vertex 9.52499 -4.7625 4.7625
      vertex 0 -4.7625 0
    endloop
  endfacet
  facet normal 0 -1 0
    outer loop
      vertex 9.52499 -4.7625 4.7625
      vertex 17.4625 -4.7625 0
      vertex 17.4625 -4.7625 4.7625
    endloop
  endfacet
  facet normal 1 -0 0
    outer loop
      vertex 9.52499 -4.7625 9.525
      vertex 9.52499 0 4.7625
      vertex 9.52499 0 9.525
    endloop
  endfacet
  facet normal 1 0 0
    outer loop
      vertex 9.52499 0 4.7625
      vertex 9.52499 -4.7625 9.525
      vertex 9.52499 -4.7625 4.7625
    endloop
  endfacet
  facet normal 0.956943 0.290275 0
    outer loop
      vertex 22.1335 5.69162 9.525
      vertex 21.8625 6.58502 4.7625
      vertex 21.8625 6.58502 9.525
    endloop
  endfacet
  facet normal 0.956943 0.290275 0
    outer loop
      vertex 21.8625 6.58502 4.7625
      vertex 22.1335 5.69162 9.525
      vertex 22.1335 5.69162 4.7625
    endloop
  endfacet
  facet normal 0.881924 0.471392 0
    outer loop
      vertex 21.8625 6.58502 9.525
      vertex 21.4224 7.4084 4.7625
      vertex 21.4224 7.4084 9.525
    endloop
  endfacet
  facet normal 0.881924 0.471392 0
    outer loop
      vertex 21.4224 7.4084 4.7625
      vertex 21.8625 6.58502 9.525
      vertex 21.8625 6.58502 4.7625
    endloop
  endfacet
  facet normal 0.772981 0.634429 0
    outer loop
      vertex 21.4224 7.4084 9.525
      vertex 21.225 7.64891 4.7625
      vertex 21.225 7.64891 9.525
    endloop
  endfacet
  facet normal 0.772981 0.634429 0
    outer loop
      vertex 21.225 7.64891 4.7625
      vertex 21.4224 7.4084 9.525
      vertex 21.4224 7.4084 4.7625
    endloop
  endfacet
  facet normal -1 0 0
    outer loop
      vertex 21.225 4.7625 4.7625
      vertex 21.225 7.64891 9.525
      vertex 21.225 7.64891 4.7625
    endloop
  endfacet
  facet normal -1 -0 0
    outer loop
      vertex 21.225 7.64891 9.525
      vertex 21.225 4.7625 4.7625
      vertex 21.225 4.7625 9.525
    endloop
  endfacet
  facet normal 0 -1 0
    outer loop
      vertex 21.225 4.7625 4.7625
      vertex 22.225 4.7625 9.525
      vertex 21.225 4.7625 9.525
    endloop
  endfacet
  facet normal 0 -1 -0
    outer loop
      vertex 22.225 4.7625 9.525
      vertex 21.225 4.7625 4.7625
      vertex 22.225 4.7625 4.7625
    endloop
  endfacet
  facet normal 0.995186 0.0980062 0
    outer loop
      vertex 22.225 4.7625 9.525
      vertex 22.1335 5.69162 4.7625
      vertex 22.1335 5.69162 9.525
    endloop
  endfacet
  facet normal 0.995186 0.0980062 0
    outer loop
      vertex 22.1335 5.69162 4.7625
      vertex 22.225 4.7625 9.525
      vertex 22.225 4.7625 4.7625
    endloop
  endfacet
  facet normal 0.881921 -0.471396 0
    outer loop
      vertex 21.4224 -2.6459 4.7625
      vertex 21.8625 -1.82253 9.525
      vertex 21.4224 -2.6459 9.525
    endloop
  endfacet
  facet normal 0.881921 -0.471396 0
    outer loop
      vertex 21.8625 -1.82253 9.525
      vertex 21.4224 -2.6459 4.7625
      vertex 21.8625 -1.82253 0
    endloop
  endfacet
  facet normal 0.881921 -0.471396 0
    outer loop
      vertex 21.8625 -1.82253 0
      vertex 21.4224 -2.6459 4.7625
      vertex 21.4224 -2.6459 0
    endloop
  endfacet
  facet normal 0.956944 -0.290273 0
    outer loop
      vertex 21.8625 -1.82253 9.525
      vertex 22.1335 -0.929123 0
      vertex 22.1335 -0.929123 9.525
    endloop
  endfacet
  facet normal 0.956944 -0.290273 0
    outer loop
      vertex 22.1335 -0.929123 0
      vertex 21.8625 -1.82253 9.525
      vertex 21.8625 -1.82253 0
    endloop
  endfacet
  facet normal 0.995186 -0.0980059 0
    outer loop
      vertex 22.1335 -0.929123 9.525
      vertex 22.225 0 4.7625
      vertex 22.225 0 9.525
    endloop
  endfacet
  facet normal 0.995186 -0.0980059 0
    outer loop
      vertex 22.1335 -0.929123 0
      vertex 22.225 0 4.7625
      vertex 22.1335 -0.929123 9.525
    endloop
  endfacet
  facet normal 0.995186 -0.0980059 0
    outer loop
      vertex 22.225 0 4.7625
      vertex 22.1335 -0.929123 0
      vertex 22.225 0 0
    endloop
  endfacet
  facet normal 0 1 -0
    outer loop
      vertex 22.225 0 4.7625
      vertex 21.225 0 9.525
      vertex 22.225 0 9.525
    endloop
  endfacet
  facet normal 0 1 0
    outer loop
      vertex 21.225 0 9.525
      vertex 22.225 0 4.7625
      vertex 21.225 0 4.7625
    endloop
  endfacet
  facet normal -1 0 0
    outer loop
      vertex 21.225 -2.88641 4.7625
      vertex 21.225 0 9.525
      vertex 21.225 0 4.7625
    endloop
  endfacet
  facet normal -1 0 0
    outer loop
      vertex 21.225 -2.88641 4.7625
      vertex 21.225 -2.88641 9.525
      vertex 21.225 0 9.525
    endloop
  endfacet
  facet normal 0.772981 -0.634429 0
    outer loop
      vertex 21.225 -2.88641 9.525
      vertex 21.4224 -2.6459 4.7625
      vertex 21.4224 -2.6459 9.525
    endloop
  endfacet
  facet normal 0.772981 -0.634429 0
    outer loop
      vertex 21.4224 -2.6459 4.7625
      vertex 21.225 -2.88641 9.525
      vertex 21.225 -2.88641 4.7625
    endloop
  endfacet
  facet normal 0.0980189 -0.995185 0
    outer loop
      vertex 17.4625 -4.7625 0
      vertex 18.3916 -4.67099 4.7625
      vertex 17.4625 -4.7625 4.7625
    endloop
  endfacet
  facet normal 0.0980189 -0.995185 0
    outer loop
      vertex 18.3916 -4.67099 4.7625
      vertex 17.4625 -4.7625 0
      vertex 18.3916 -4.67099 0
    endloop
  endfacet
  facet normal -0.634429 0.772981 0
    outer loop
      vertex -2.6459 21.4224 0
      vertex -2.88641 21.225 4.7625
      vertex -2.6459 21.4224 4.7625
    endloop
  endfacet
  facet normal -0.634404 0.773002 2.13812e-06
    outer loop
      vertex -3.3676 20.8301 0
      vertex -2.88641 21.225 4.7625
      vertex -2.6459 21.4224 0
    endloop
  endfacet
  facet normal -0.634391 0.773012 0
    outer loop
      vertex -2.88641 21.225 4.7625
      vertex -3.3676 20.8301 0
      vertex -3.3676 20.8301 4.7625
    endloop
  endfacet
  facet normal 0.0980083 0.995186 -0
    outer loop
      vertex 18.3916 22.1335 0
      vertex 17.4625 22.225 4.7625
      vertex 18.3916 22.1335 4.7625
    endloop
  endfacet
  facet normal 0.0980083 0.995186 0
    outer loop
      vertex 17.4625 22.225 4.7625
      vertex 18.3916 22.1335 0
      vertex 17.4625 22.225 0
    endloop
  endfacet
  facet normal 0.471383 0.881929 -0
    outer loop
      vertex 20.1084 21.4224 0
      vertex 19.285 21.8625 4.7625
      vertex 20.1084 21.4224 4.7625
    endloop
  endfacet
  facet normal 0.471383 0.881929 0
    outer loop
      vertex 19.285 21.8625 4.7625
      vertex 20.1084 21.4224 0
      vertex 19.285 21.8625 0
    endloop
  endfacet
  facet normal -0.995185 0.0980189 0
    outer loop
      vertex -4.7625 17.4625 0
      vertex -4.67099 18.3916 4.7625
      vertex -4.67099 18.3916 0
    endloop
  endfacet
  facet normal -0.995185 0.0980189 0
    outer loop
      vertex -4.67099 18.3916 4.7625
      vertex -4.7625 17.4625 0
      vertex -4.7625 17.4625 4.7625
    endloop
  endfacet
  facet normal -0.95694 0.290285 0
    outer loop
      vertex -4.67099 18.3916 0
      vertex -4.39998 19.285 4.7625
      vertex -4.39998 19.285 0
    endloop
  endfacet
  facet normal -0.95694 0.290285 0
    outer loop
      vertex -4.39998 19.285 4.7625
      vertex -4.67099 18.3916 0
      vertex -4.67099 18.3916 4.7625
    endloop
  endfacet
  facet normal -0.881924 0.471391 0
    outer loop
      vertex -4.39998 19.285 0
      vertex -3.95987 20.1084 4.7625
      vertex -3.95987 20.1084 0
    endloop
  endfacet
  facet normal -0.881924 0.471391 0
    outer loop
      vertex -3.95987 20.1084 4.7625
      vertex -4.39998 19.285 0
      vertex -4.39998 19.285 4.7625
    endloop
  endfacet
  facet normal 0.881929 0.471383 0
    outer loop
      vertex 21.8625 19.285 4.7625
      vertex 21.4224 20.1084 0
      vertex 21.4224 20.1084 4.7625
    endloop
  endfacet
  facet normal 0.881929 0.471383 0
    outer loop
      vertex 21.4224 20.1084 0
      vertex 21.8625 19.285 4.7625
      vertex 21.8625 19.285 0
    endloop
  endfacet
  facet normal 0 1 -0
    outer loop
      vertex 17.4625 22.225 0
      vertex 4.7625 22.225 4.7625
      vertex 17.4625 22.225 4.7625
    endloop
  endfacet
  facet normal 0 1 0
    outer loop
      vertex 0 22.225 0
      vertex 4.7625 22.225 4.7625
      vertex 17.4625 22.225 0
    endloop
  endfacet
  facet normal 0 1 0
    outer loop
      vertex 4.7625 22.225 4.7625
      vertex 0 22.225 0
      vertex 0 22.225 4.7625
    endloop
  endfacet
  facet normal 0.956943 0.290275 0
    outer loop
      vertex 22.1335 18.3916 4.7625
      vertex 21.8625 19.285 0
      vertex 21.8625 19.285 4.7625
    endloop
  endfacet
  facet normal 0.956943 0.290275 0
    outer loop
      vertex 21.8625 19.285 0
      vertex 22.1335 18.3916 4.7625
      vertex 22.1335 18.3916 0
    endloop
  endfacet
  facet normal 0 0 -1
    outer loop
      vertex 17.4625 -4.7625 0
      vertex 22.225 0 0
      vertex 22.1335 -0.929123 0
    endloop
  endfacet
  facet normal -0 0 -1
    outer loop
      vertex 22.225 0 0
      vertex 17.4625 -4.7625 0
      vertex 22.225 17.4625 0
    endloop
  endfacet
  facet normal 0 0 -1
    outer loop
      vertex 17.4625 -4.7625 0
      vertex 22.1335 -0.929123 0
      vertex 21.8625 -1.82253 0
    endloop
  endfacet
  facet normal 0 0 -1
    outer loop
      vertex 17.4625 22.225 0
      vertex 22.225 17.4625 0
      vertex 17.4625 -4.7625 0
    endloop
  endfacet
  facet normal 0 0 -1
    outer loop
      vertex 17.4625 -4.7625 0
      vertex 21.8625 -1.82253 0
      vertex 21.4224 -2.6459 0
    endloop
  endfacet
  facet normal 0 0 -1
    outer loop
      vertex 22.225 17.4625 0
      vertex 17.4625 22.225 0
      vertex 22.1335 18.3916 0
    endloop
  endfacet
  facet normal 0 0 -1
    outer loop
      vertex 17.4625 -4.7625 0
      vertex 21.4224 -2.6459 0
      vertex 20.8301 -3.3676 0
    endloop
  endfacet
  facet normal 0 0 -1
    outer loop
      vertex 22.1335 18.3916 0
      vertex 17.4625 22.225 0
      vertex 21.8625 19.285 0
    endloop
  endfacet
  facet normal 0 0 -1
    outer loop
      vertex 17.4625 -4.7625 0
      vertex 20.8301 -3.3676 0
      vertex 20.1084 -3.95987 0
    endloop
  endfacet
  facet normal 0 0 -1
    outer loop
      vertex 21.8625 19.285 0
      vertex 17.4625 22.225 0
      vertex 21.4224 20.1084 0
    endloop
  endfacet
  facet normal 0 0 -1
    outer loop
      vertex 17.4625 -4.7625 0
      vertex 20.1084 -3.95987 0
      vertex 19.285 -4.39998 0
    endloop
  endfacet
  facet normal 0 0 -1
    outer loop
      vertex 21.4224 20.1084 0
      vertex 17.4625 22.225 0
      vertex 20.8301 20.8301 0
    endloop
  endfacet
  facet normal 0 0 -1
    outer loop
      vertex 17.4625 -4.7625 0
      vertex 19.285 -4.39998 0
      vertex 18.3916 -4.67099 0
    endloop
  endfacet
  facet normal 0 0 -1
    outer loop
      vertex 20.8301 20.8301 0
      vertex 17.4625 22.225 0
      vertex 20.1084 21.4224 0
    endloop
  endfacet
  facet normal 0 0 -1
    outer loop
      vertex 20.1084 21.4224 0
      vertex 17.4625 22.225 0
      vertex 19.285 21.8625 0
    endloop
  endfacet
  facet normal 0 0 -1
    outer loop
      vertex 19.285 21.8625 0
      vertex 17.4625 22.225 0
      vertex 18.3916 22.1335 0
    endloop
  endfacet
  facet normal 0 0 -1
    outer loop
      vertex 0 -4.7625 0
      vertex 17.4625 22.225 0
      vertex 17.4625 -4.7625 0
    endloop
  endfacet
  facet normal 0 0 -1
    outer loop
      vertex 0 -4.7625 0
      vertex 0 22.225 0
      vertex 17.4625 22.225 0
    endloop
  endfacet
  facet normal 0 0 -1
    outer loop
      vertex -4.7625 0 0
      vertex 0 -4.7625 0
      vertex -0.929123 -4.67099 0
    endloop
  endfacet
  facet normal 0 0 -1
    outer loop
      vertex 0 -4.7625 0
      vertex -4.7625 0 0
      vertex 0 22.225 0
    endloop
  endfacet
  facet normal 0 0 -1
    outer loop
      vertex -4.7625 0 0
      vertex -0.929123 -4.67099 0
      vertex -1.82253 -4.39998 0
    endloop
  endfacet
  facet normal 0 0 -1
    outer loop
      vertex -4.7625 17.4625 0
      vertex 0 22.225 0
      vertex -4.7625 0 0
    endloop
  endfacet
  facet normal 0 0 -1
    outer loop
      vertex -4.7625 0 0
      vertex -1.82253 -4.39998 0
      vertex -2.6459 -3.95987 0
    endloop
  endfacet
  facet normal 0 0 -1
    outer loop
      vertex 0 22.225 0
      vertex -4.7625 17.4625 0
      vertex -0.929123 22.1335 0
    endloop
  endfacet
  facet normal 0 0 -1
    outer loop
      vertex -4.7625 0 0
      vertex -2.6459 -3.95987 0
      vertex -3.3676 -3.3676 0
    endloop
  endfacet
  facet normal 0 0 -1
    outer loop
      vertex -0.929123 22.1335 0
      vertex -4.7625 17.4625 0
      vertex -1.82253 21.8625 0
    endloop
  endfacet
  facet normal 0 0 -1
    outer loop
      vertex -4.7625 0 0
      vertex -3.3676 -3.3676 0
      vertex -3.95987 -2.6459 0
    endloop
  endfacet
  facet normal 0 0 -1
    outer loop
      vertex -1.82253 21.8625 0
      vertex -4.7625 17.4625 0
      vertex -2.6459 21.4224 0
    endloop
  endfacet
  facet normal 0 0 -1
    outer loop
      vertex -4.7625 0 0
      vertex -3.95987 -2.6459 0
      vertex -4.39998 -1.82253 0
    endloop
  endfacet
  facet normal 0 0 -1
    outer loop
      vertex -2.6459 21.4224 0
      vertex -4.7625 17.4625 0
      vertex -3.3676 20.8301 0
    endloop
  endfacet
  facet normal 0 0 -1
    outer loop
      vertex -4.7625 0 0
      vertex -4.39998 -1.82253 0
      vertex -4.67099 -0.929123 0
    endloop
  endfacet
  facet normal 0 0 -1
    outer loop
      vertex -3.3676 20.8301 0
      vertex -4.7625 17.4625 0
      vertex -3.95987 20.1084 0
    endloop
  endfacet
  facet normal 0 0 -1
    outer loop
      vertex -3.95987 20.1084 0
      vertex -4.7625 17.4625 0
      vertex -4.39998 19.285 0
    endloop
  endfacet
  facet normal 0 0 -1
    outer loop
      vertex -4.39998 19.285 0
      vertex -4.7625 17.4625 0
      vertex -4.67099 18.3916 0
    endloop
  endfacet
  facet normal 0.995186 0.0980083 0
    outer loop
      vertex 22.225 17.4625 4.7625
      vertex 22.1335 18.3916 0
      vertex 22.1335 18.3916 4.7625
    endloop
  endfacet
  facet normal 0.995186 0.0980083 0
    outer loop
      vertex 22.1335 18.3916 0
      vertex 22.225 17.4625 4.7625
      vertex 22.225 17.4625 0
    endloop
  endfacet
  facet normal 1 -0 0
    outer loop
      vertex 22.225 4.7625 4.7625
      vertex 22.225 17.4625 0
      vertex 22.225 17.4625 4.7625
    endloop
  endfacet
  facet normal 1 0 0
    outer loop
      vertex 22.225 0 0
      vertex 22.225 4.7625 4.7625
      vertex 22.225 0 4.7625
    endloop
  endfacet
  facet normal 1 0 0
    outer loop
      vertex 22.225 4.7625 4.7625
      vertex 22.225 0 0
      vertex 22.225 17.4625 0
    endloop
  endfacet
  facet normal 0.290275 0.956943 -0
    outer loop
      vertex 19.285 21.8625 0
      vertex 18.3916 22.1335 4.7625
      vertex 19.285 21.8625 4.7625
    endloop
  endfacet
  facet normal 0.290275 0.956943 0
    outer loop
      vertex 18.3916 22.1335 4.7625
      vertex 19.285 21.8625 0
      vertex 18.3916 22.1335 0
    endloop
  endfacet
  facet normal 0.773002 0.634404 0
    outer loop
      vertex 21.4224 20.1084 4.7625
      vertex 20.8301 20.8301 0
      vertex 20.8301 20.8301 4.7625
    endloop
  endfacet
  facet normal 0.773002 0.634404 0
    outer loop
      vertex 20.8301 20.8301 0
      vertex 21.4224 20.1084 4.7625
      vertex 21.4224 20.1084 0
    endloop
  endfacet
  facet normal 0.290285 -0.95694 0
    outer loop
      vertex 18.3916 -4.67099 0
      vertex 19.285 -4.39998 4.7625
      vertex 18.3916 -4.67099 4.7625
    endloop
  endfacet
  facet normal 0.290285 -0.95694 0
    outer loop
      vertex 19.285 -4.39998 4.7625
      vertex 18.3916 -4.67099 0
      vertex 19.285 -4.39998 0
    endloop
  endfacet
  facet normal -0.773018 0.634384 0
    outer loop
      vertex -3.95987 20.1084 0
      vertex -3.3676 20.8301 4.7625
      vertex -3.3676 20.8301 0
    endloop
  endfacet
  facet normal -0.773018 0.634384 0
    outer loop
      vertex -3.3676 20.8301 4.7625
      vertex -3.95987 20.1084 0
      vertex -3.95987 20.1084 4.7625
    endloop
  endfacet
  facet normal 0.634404 0.773002 -0
    outer loop
      vertex 20.8301 20.8301 0
      vertex 20.1084 21.4224 4.7625
      vertex 20.8301 20.8301 4.7625
    endloop
  endfacet
  facet normal 0.634404 0.773002 0
    outer loop
      vertex 20.1084 21.4224 4.7625
      vertex 20.8301 20.8301 0
      vertex 20.1084 21.4224 0
    endloop
  endfacet
  facet normal 0.772981 -0.634429 0
    outer loop
      vertex 21.225 -2.88641 4.7625
      vertex 21.4224 -2.6459 0
      vertex 21.4224 -2.6459 4.7625
    endloop
  endfacet
  facet normal 0.773012 -0.634391 0
    outer loop
      vertex 20.8301 -3.3676 0
      vertex 21.225 -2.88641 4.7625
      vertex 20.8301 -3.3676 4.7625
    endloop
  endfacet
  facet normal 0.773002 -0.634404 2.13812e-06
    outer loop
      vertex 21.225 -2.88641 4.7625
      vertex 20.8301 -3.3676 0
      vertex 21.4224 -2.6459 0
    endloop
  endfacet
  facet normal 0.471391 -0.881924 0
    outer loop
      vertex 19.285 -4.39998 0
      vertex 20.1084 -3.95987 4.7625
      vertex 19.285 -4.39998 4.7625
    endloop
  endfacet
  facet normal 0.471391 -0.881924 0
    outer loop
      vertex 20.1084 -3.95987 4.7625
      vertex 19.285 -4.39998 0
      vertex 20.1084 -3.95987 0
    endloop
  endfacet
  facet normal 0.634384 -0.773018 0
    outer loop
      vertex 20.1084 -3.95987 0
      vertex 20.8301 -3.3676 4.7625
      vertex 20.1084 -3.95987 4.7625
    endloop
  endfacet
  facet normal 0.634384 -0.773018 0
    outer loop
      vertex 20.8301 -3.3676 4.7625
      vertex 20.1084 -3.95987 0
      vertex 20.8301 -3.3676 0
    endloop
  endfacet
endsolid OpenSCAD_Model
