<?xml version="1.0" standalone="no"?>
<!DOCTYPE svg PUBLIC "-//W3C//DTD SVG 1.1//EN" "http://www.w3.org/Graphics/SVG/1.1/DTD/svg11.dtd">
<svg width="585mm" height="539mm" viewBox="-202 -262 585 539" xmlns="http://www.w3.org/2000/svg" version="1.1">
<title>OpenSCAD Model</title>
<path d="
M -38.1,-150.812 L -12.7,-150.812 L -12.7,-146.05 L 12.7,-146.05 L 12.7,-150.812 L 38.1,-150.812
 L 38.1,-146.05 L 63.5,-146.05 L 63.5,-150.812 L 71.4375,-150.812 L 71.4375,-163.512 L 76.2005,-163.512
 L 76.2005,-188.912 L 71.4375,-188.912 L 71.4375,-214.312 L 76.2005,-214.312 L 76.2005,-239.712 L 71.4375,-239.712
 L 71.4375,-252.412 L 63.5,-252.412 L 63.5,-261.937 L -63.5,-261.937 L -63.5,-252.412 L -71.4375,-252.412
 L -71.4375,-239.712 L -76.2005,-239.712 L -76.2005,-214.312 L -71.4375,-214.312 L -71.4375,-188.912 L -76.2005,-188.912
 L -76.2005,-163.512 L -71.4375,-163.512 L -71.4375,-150.812 L -63.5,-150.812 L -63.5,-146.05 L -38.1,-146.05
 z
M -38.1,-252.412 L -38.1,-257.175 L -12.7,-257.175 L -12.7,-252.412 z
M 12.7,-252.412 L 12.7,-257.175 L 38.1,-257.175 L 38.1,-252.412 z
M 71.4375,131.762 L 80.9625,131.762 L 80.9625,122.237 L 85.725,122.237 L 85.725,-122.237 L 80.9625,-122.237
 L 80.9625,-131.762 L 71.4375,-131.762 L 71.4375,-136.525 L -71.4375,-136.525 L -71.4375,-131.762 L -80.9625,-131.762
 L -80.9625,-122.237 L -85.725,-122.237 L -85.725,122.237 L -80.9625,122.237 L -80.9625,131.762 L -71.4375,131.762
 L -71.4375,136.525 L 71.4375,136.525 z
M -63.5,-127 L -63.5,-131.762 L -38.1,-131.762 L -38.1,-127 z
M -12.7,-127 L -12.7,-131.762 L 12.7,-131.762 L 12.7,-127 z
M 38.1,-127 L 38.1,-131.762 L 63.5,-131.762 L 63.5,-127 z
M -80.9625,-88.9 L -80.9625,-114.3 L -76.2,-114.3 L -76.2,-88.9 z
M 76.2,-88.9 L 76.2,-114.3 L 80.9625,-114.3 L 80.9625,-88.9 z
M -80.9625,-38.1 L -80.9625,-63.5 L -76.2,-63.5 L -76.2,-38.1 z
M 76.2,-38.1 L 76.2,-63.5 L 80.9625,-63.5 L 80.9625,-38.1 z
M 76.2,12.7 L 76.2,-12.7 L 80.9625,-12.7 L 80.9625,12.7 z
M -80.9625,12.7 L -80.9625,-12.7 L -76.2,-12.7 L -76.2,12.7 z
M -80.9625,63.5 L -80.9625,38.1 L -76.2,38.1 L -76.2,63.5 z
M 76.2,63.5 L 76.2,38.1 L 80.9625,38.1 L 80.9625,63.5 z
M 76.2,114.3 L 76.2,88.9 L 80.9625,88.9 L 80.9625,114.3 z
M -80.9625,114.3 L -80.9625,88.9 L -76.2,88.9 L -76.2,114.3 z
M -63.5,131.762 L -63.5,127 L -38.1,127 L -38.1,131.762 z
M -12.7,131.762 L -12.7,127 L 12.7,127 L 12.7,131.762 z
M 38.1,131.762 L 38.1,127 L 63.5,127 L 63.5,131.762 z
M 378.754,136.433 L 379.648,136.162 L 380.471,135.722 L 381.193,135.13 L 381.785,134.408 L 382.225,133.585
 L 382.496,132.692 L 382.587,131.762 L 382.587,-131.762 L 382.496,-132.692 L 382.225,-133.585 L 381.785,-134.408
 L 381.193,-135.13 L 380.471,-135.722 L 379.648,-136.162 L 378.754,-136.433 L 377.825,-136.525 L 360.362,-136.525
 L 360.362,-127 L 334.962,-127 L 334.962,-136.525 L 309.562,-136.525 L 309.562,-127 L 284.162,-127
 L 284.162,-136.525 L 258.762,-136.525 L 258.762,-127 L 233.362,-127 L 233.362,-136.525 L 215.9,-136.525
 L 214.971,-136.433 L 214.077,-136.162 L 213.254,-135.722 L 212.532,-135.13 L 211.94,-134.408 L 211.5,-133.585
 L 211.229,-132.692 L 211.137,-131.762 L 211.137,131.762 L 211.229,132.692 L 211.5,133.585 L 211.94,134.408
 L 212.532,135.13 L 213.254,135.722 L 214.077,136.162 L 214.971,136.433 L 215.9,136.525 L 377.825,136.525
 z
M 374.87,-127.995 L 374.383,-128.321 L 374.058,-128.807 L 373.944,-129.381 L 374.058,-129.955 L 374.383,-130.442
 L 374.87,-130.767 L 375.444,-130.881 L 376.018,-130.767 L 376.504,-130.442 L 376.83,-129.955 L 376.944,-129.381
 L 376.83,-128.807 L 376.504,-128.321 L 376.018,-127.995 L 375.444,-127.881 z
M 217.707,-127.995 L 217.221,-128.321 L 216.895,-128.807 L 216.781,-129.381 L 216.895,-129.955 L 217.221,-130.442
 L 217.707,-130.767 L 218.281,-130.881 L 218.855,-130.767 L 219.342,-130.442 L 219.667,-129.955 L 219.781,-129.381
 L 219.667,-128.807 L 219.342,-128.321 L 218.855,-127.995 L 218.281,-127.881 z
M 334.962,131.762 L 334.962,127 L 360.362,127 L 360.362,131.762 z
M 284.162,131.762 L 284.162,127 L 309.562,127 L 309.562,131.762 z
M 233.362,131.762 L 233.362,127 L 258.762,127 L 258.762,131.762 z
M 374.87,130.767 L 374.383,130.442 L 374.058,129.955 L 373.944,129.381 L 374.058,128.807 L 374.383,128.321
 L 374.87,127.995 L 375.444,127.881 L 376.018,127.995 L 376.504,128.321 L 376.83,128.807 L 376.944,129.381
 L 376.83,129.955 L 376.504,130.442 L 376.018,130.767 L 375.444,130.881 z
M 217.707,130.767 L 217.221,130.442 L 216.895,129.955 L 216.781,129.381 L 216.895,128.807 L 217.221,128.321
 L 217.707,127.995 L 218.281,127.881 L 218.855,127.995 L 219.342,128.321 L 219.667,128.807 L 219.781,129.381
 L 219.667,129.955 L 219.342,130.442 L 218.855,130.767 L 218.281,130.881 z
M 201.612,-122.237 L 100.013,-122.237 L 100.013,-114.3 L 95.25,-114.3 L 95.25,-88.9 L 100.013,-88.9
 L 100.013,-63.5 L 95.25,-63.5 L 95.25,-38.1 L 100.013,-38.1 L 100.013,-12.7 L 95.25,-12.7
 L 95.25,12.7 L 100.013,12.7 L 100.013,38.1 L 95.25,38.1 L 95.25,63.5 L 100.013,63.5
 L 100.013,88.9 L 95.25,88.9 L 95.25,114.3 L 100.013,114.3 L 100.013,122.237 L 201.612,122.237
 z
M 106.275,-77.724 L 106.24,-78.0738 L 105.879,-79.265 L 105.292,-80.3629 L 104.503,-81.3251 L 103.54,-82.1148
 L 103.061,-82.3713 L 103.061,-85.1557 L 103.415,-85.0483 L 104.952,-84.2267 L 106.299,-83.1212 L 107.404,-81.774
 L 108.226,-80.237 L 108.732,-78.5693 L 108.815,-77.724 z
M 103.061,-70.0287 L 103.54,-70.2852 L 104.503,-71.0749 L 105.292,-72.0371 L 105.879,-73.135 L 106.24,-74.3262
 L 106.275,-74.676 L 108.815,-74.676 L 108.732,-73.8307 L 108.226,-72.1629 L 107.404,-70.626 L 106.299,-69.2788
 L 104.952,-68.1732 L 103.415,-67.3517 L 103.061,-67.2443 z
M 106.275,-26.924 L 106.24,-27.2738 L 105.879,-28.465 L 105.292,-29.5629 L 104.503,-30.5251 L 103.54,-31.3148
 L 103.061,-31.5713 L 103.061,-34.3557 L 103.415,-34.2483 L 104.952,-33.4267 L 106.299,-32.3212 L 107.404,-30.974
 L 108.226,-29.437 L 108.732,-27.7693 L 108.815,-26.924 z
M 103.061,-19.2287 L 103.54,-19.4852 L 104.503,-20.2749 L 105.292,-21.2371 L 105.879,-22.335 L 106.24,-23.5262
 L 106.275,-23.876 L 108.815,-23.876 L 108.732,-23.0307 L 108.226,-21.3629 L 107.404,-19.826 L 106.299,-18.4788
 L 104.952,-17.3732 L 103.415,-16.5517 L 103.061,-16.4443 z
M 106.275,23.876 L 106.24,23.5262 L 105.879,22.335 L 105.292,21.2371 L 104.503,20.2749 L 103.54,19.4852
 L 103.061,19.2287 L 103.061,16.4443 L 103.415,16.5517 L 104.952,17.3732 L 106.299,18.4788 L 107.404,19.826
 L 108.226,21.3629 L 108.732,23.0307 L 108.815,23.876 z
M 103.061,31.5713 L 103.54,31.3148 L 104.503,30.5251 L 105.292,29.5629 L 105.879,28.465 L 106.24,27.2738
 L 106.275,26.924 L 108.815,26.924 L 108.732,27.7693 L 108.226,29.437 L 107.404,30.974 L 106.299,32.3212
 L 104.952,33.4267 L 103.415,34.2483 L 103.061,34.3557 z
M 106.275,74.676 L 106.24,74.3262 L 105.879,73.135 L 105.292,72.0371 L 104.503,71.0749 L 103.54,70.2852
 L 103.061,70.0287 L 103.061,67.2443 L 103.415,67.3517 L 104.952,68.1732 L 106.299,69.2788 L 107.404,70.626
 L 108.226,72.1629 L 108.732,73.8307 L 108.815,74.676 z
M 103.061,82.3713 L 103.54,82.1148 L 104.503,81.3251 L 105.292,80.3629 L 105.879,79.265 L 106.24,78.0738
 L 106.275,77.724 L 108.815,77.724 L 108.732,78.5693 L 108.226,80.237 L 107.404,81.774 L 106.299,83.1212
 L 104.952,84.2267 L 103.415,85.0483 L 103.061,85.1557 z
M -100.013,114.3 L -95.25,114.3 L -95.25,88.9 L -100.013,88.9 L -100.013,63.5 L -95.25,63.5
 L -95.25,38.1 L -100.013,38.1 L -100.013,12.7 L -95.25,12.7 L -95.25,-12.7 L -100.013,-12.7
 L -100.013,-38.1 L -95.25,-38.1 L -95.25,-63.5 L -100.013,-63.5 L -100.013,-88.9 L -95.25,-88.9
 L -95.25,-114.3 L -100.013,-114.3 L -100.013,-122.237 L -201.612,-122.237 L -201.612,122.237 L -100.013,122.237
 z
M -108.815,-77.724 L -108.732,-78.5693 L -108.226,-80.237 L -107.404,-81.774 L -106.299,-83.1212 L -104.952,-84.2267
 L -103.415,-85.0483 L -103.061,-85.1557 L -103.061,-82.3713 L -103.54,-82.1148 L -104.503,-81.3251 L -105.292,-80.3629
 L -105.879,-79.265 L -106.24,-78.0738 L -106.275,-77.724 z
M -103.415,-67.3517 L -104.952,-68.1732 L -106.299,-69.2788 L -107.404,-70.626 L -108.226,-72.1629 L -108.732,-73.8307
 L -108.815,-74.676 L -106.275,-74.676 L -106.24,-74.3262 L -105.879,-73.135 L -105.292,-72.0371 L -104.503,-71.0749
 L -103.54,-70.2852 L -103.061,-70.0287 L -103.061,-67.2443 z
M -108.815,-26.924 L -108.732,-27.7693 L -108.226,-29.437 L -107.404,-30.974 L -106.299,-32.3212 L -104.952,-33.4267
 L -103.415,-34.2483 L -103.061,-34.3557 L -103.061,-31.5713 L -103.54,-31.3148 L -104.503,-30.5251 L -105.292,-29.5629
 L -105.879,-28.465 L -106.24,-27.2738 L -106.275,-26.924 z
M -103.415,-16.5517 L -104.952,-17.3732 L -106.299,-18.4788 L -107.404,-19.826 L -108.226,-21.3629 L -108.732,-23.0307
 L -108.815,-23.876 L -106.275,-23.876 L -106.24,-23.5262 L -105.879,-22.335 L -105.292,-21.2371 L -104.503,-20.2749
 L -103.54,-19.4852 L -103.061,-19.2287 L -103.061,-16.4443 z
M -108.815,23.876 L -108.732,23.0307 L -108.226,21.3629 L -107.404,19.826 L -106.299,18.4788 L -104.952,17.3732
 L -103.415,16.5517 L -103.061,16.4443 L -103.061,19.2287 L -103.54,19.4852 L -104.503,20.2749 L -105.292,21.2371
 L -105.879,22.335 L -106.24,23.5262 L -106.275,23.876 z
M -103.415,34.2483 L -104.952,33.4267 L -106.299,32.3212 L -107.404,30.974 L -108.226,29.437 L -108.732,27.7693
 L -108.815,26.924 L -106.275,26.924 L -106.24,27.2738 L -105.879,28.465 L -105.292,29.5629 L -104.503,30.5251
 L -103.54,31.3148 L -103.061,31.5713 L -103.061,34.3557 z
M -108.815,74.676 L -108.732,73.8307 L -108.226,72.1629 L -107.404,70.626 L -106.299,69.2788 L -104.952,68.1732
 L -103.415,67.3517 L -103.061,67.2443 L -103.061,70.0287 L -103.54,70.2852 L -104.503,71.0749 L -105.292,72.0371
 L -105.879,73.135 L -106.24,74.3262 L -106.275,74.676 z
M -103.415,85.0483 L -104.952,84.2267 L -106.299,83.1212 L -107.404,81.774 L -108.226,80.237 L -108.732,78.5693
 L -108.815,77.724 L -106.275,77.724 L -106.24,78.0738 L -105.879,79.265 L -105.292,80.3629 L -104.503,81.3251
 L -103.54,82.1148 L -103.061,82.3713 L -103.061,85.1557 z
M 2.47765,275.981 L 4.86008,275.258 L 7.05574,274.085 L 8.98026,272.505 L 10.5597,270.581 L 11.7333,268.385
 L 12.456,266.003 L 12.7,263.525 L 12.7,252.412 L 38.1,252.412 L 38.1,257.175 L 63.5,257.175
 L 63.5,252.412 L 71.4375,252.412 L 71.4375,239.712 L 76.2005,239.712 L 76.2005,214.312 L 71.4375,214.312
 L 71.4375,188.912 L 76.2005,188.912 L 76.2005,163.512 L 71.4375,163.512 L 71.4375,150.812 L 63.5,150.812
 L 63.5,146.05 L 38.1,146.05 L 38.1,150.812 L 12.7,150.812 L 12.7,146.05 L -12.7,146.05
 L -12.7,150.812 L -38.1,150.812 L -38.1,146.05 L -63.5,146.05 L -63.5,150.812 L -71.4375,150.812
 L -71.4375,163.512 L -76.2005,163.512 L -76.2005,188.912 L -71.4375,188.912 L -71.4375,214.312 L -76.2005,214.312
 L -76.2005,239.712 L -71.4375,239.712 L -71.4375,252.412 L -63.5,252.412 L -63.5,257.175 L -38.1,257.175
 L -38.1,252.412 L -12.7,252.412 L -12.7,263.525 L -12.456,266.003 L -11.7333,268.385 L -10.5597,270.581
 L -8.98026,272.505 L -7.05574,274.085 L -4.86008,275.258 L -2.47765,275.981 L 0,276.225 z
M -1.23882,269.753 L -2.43004,269.392 L -3.52786,268.805 L -4.49013,268.015 L -5.27983,267.053 L -5.86662,265.955
 L -6.22798,264.764 L -6.34999,263.525 L -6.22798,262.286 L -5.86662,261.095 L -5.27983,259.997 L -4.49013,259.035
 L -3.52786,258.245 L -2.43004,257.658 L -1.23882,257.297 L -0.000457764,257.175 L 0.000457764,257.175 L 1.23882,257.297
 L 2.43004,257.658 L 3.52786,258.245 L 4.49013,259.035 L 5.27983,259.997 L 5.86662,261.095 L 6.22798,262.286
 L 6.34999,263.525 L 6.22798,264.764 L 5.86662,265.955 L 5.27983,267.053 L 4.49013,268.015 L 3.52786,268.805
 L 2.43004,269.392 L 1.23882,269.753 L 0,269.875 z
" stroke="black" fill="lightgray" stroke-width="0.5"/>
</svg>
