<?xml version="1.0" encoding="UTF-8" standalone="no"?>
<svg
   xmlns:dc="http://purl.org/dc/elements/1.1/"
   xmlns:cc="http://creativecommons.org/ns#"
   xmlns:rdf="http://www.w3.org/1999/02/22-rdf-syntax-ns#"
   xmlns:svg="http://www.w3.org/2000/svg"
   xmlns="http://www.w3.org/2000/svg"
   xmlns:sodipodi="http://sodipodi.sourceforge.net/DTD/sodipodi-0.dtd"
   xmlns:inkscape="http://www.inkscape.org/namespaces/inkscape"
   width="660.90002mm"
   height="600.57623mm"
   viewBox="-226 -286 660.90002 600.57623"
   version="1.1"
   id="svg869"
   sodipodi:docname="lockingBox-full.svg"
   inkscape:version="0.92.3 (2405546, 2018-03-11)">
  <metadata
     id="metadata875">
    <rdf:RDF>
      <cc:Work
         rdf:about="">
        <dc:format>image/svg+xml</dc:format>
        <dc:type
           rdf:resource="http://purl.org/dc/dcmitype/StillImage" />
        <dc:title>OpenSCAD Model</dc:title>
      </cc:Work>
    </rdf:RDF>
  </metadata>
  <defs
     id="defs873" />
  <sodipodi:namedview
     pagecolor="#ffffff"
     bordercolor="#666666"
     borderopacity="1"
     objecttolerance="10"
     gridtolerance="10"
     guidetolerance="10"
     inkscape:pageopacity="0"
     inkscape:pageshadow="2"
     inkscape:window-width="1869"
     inkscape:window-height="1025"
     id="namedview871"
     showgrid="false"
     inkscape:zoom="0.26717908"
     inkscape:cx="342.85413"
     inkscape:cy="1358.0162"
     inkscape:window-x="51"
     inkscape:window-y="27"
     inkscape:window-maximized="1"
     inkscape:current-layer="svg869" />
  <title
     id="title865">OpenSCAD Model</title>
  <flowRoot
     xml:space="preserve"
     id="flowRoot927"
     style="font-style:normal;font-weight:normal;font-size:40px;line-height:1.25;font-family:sans-serif;letter-spacing:0px;word-spacing:0px;fill:#000000;fill-opacity:1;stroke:none"
     transform="matrix(0.26458333,0,0,0.26458333,-226.32499,-276.475)"><flowRegion
       id="flowRegion929"><rect
         id="rect931"
         width="648"
         height="1032"
         x="530.17322"
         y="564.94489" /></flowRegion><flowPara
       id="flowPara933" /></flowRoot>  <text
     xml:space="preserve"
     style="font-style:normal;font-variant:normal;font-weight:normal;font-stretch:normal;font-size:25.39999907px;line-height:1.25;font-family:serif;-inkscape-font-specification:'serif, Normal';font-variant-ligatures:normal;font-variant-caps:normal;font-variant-numeric:normal;font-feature-settings:normal;text-align:center;letter-spacing:0px;word-spacing:0px;writing-mode:lr;text-anchor:middle;fill:none;fill-opacity:1;stroke:#0000ff;stroke-width:0.26458332;stroke-opacity:1;"
     x="341.72952"
     y="-20.632093"
     id="text947"><tspan
       sodipodi:role="line"
       id="tspan1186">Choose</tspan><tspan
       sodipodi:role="line"
       id="tspan1188">    hio</tspan><tspan
       sodipodi:role="line"
       id="tspan1190">First</tspan></text>
  <path
     d="m 331.84052,7.9460233 c 3.67212,-5.1817456 3.13889,-12.4429647 -1.45899,-16.9944106 -1.09179,-1.0805237 -2.38617,-1.9823697 -3.79873,-2.5915787 -1.3577,-0.585283 -2.87157,-1.048165 -4.36152,-1.04676 0,0 -2.81387,0 -2.81387,0 -1.99363,0.325005 -3.64819,0.827282 -5.34636,1.950012 -2.03303,1.3450343 -3.689,3.1304392 -4.73857,5.3463673 -2.78293,5.86974456 -0.66267,13.434853 4.87925,16.8748207 1.86702,1.157909 4.14907,1.767118 6.33123,1.874042 0,0 1.12555,0 1.12555,0 1.6222,-0.0999 2.82936,-0.229325 4.36151,-0.861047 0,0 -0.0239,0.04362 -0.0239,0.04362 -0.0548,0.894811 -0.0915,1.458995 -0.0915,1.458995 0,0 3.20219,-2.909549 3.20219,-2.909549 0,0 0.39676,1.357693 0.80336,2.744943 0,0 0.0282,-0.0026 0.0282,-0.0026 -0.2237,0.143507 -0.45163,0.281385 -0.68237,0.413641 -3.29505,1.886707 -5.74594,2.07242 -9.42648,2.030214 -1.338,-0.01551 -3.39354,-0.521978 -4.6429,-1.012995 -4.89896,-1.923291 -8.08427,-5.6235367 -9.50669,-10.6645944 -0.55292,-1.958461 -0.4854,-3.3653952 -0.48258,-5.34636874 0.009,-5.06497536 3.31475,-10.19185686 7.59747,-12.73982586 2.03866,-1.212779 3.87612,-1.734758 6.19053,-2.11322 2.2905,-0.282791 5.41531,-0.02108 7.59747,0.740051 1.57295,0.550112 3.49625,1.591242 4.78359,2.640821 6.72375,5.4828396 7.73957,15.4073836 2.60565,22.3056 -0.0971,0.13085 -0.19697,0.261692 -0.29967,0.389723 0,0 -0.003,-0.04499 -0.003,-0.04499 -0.47133,-0.6443787 -1.11852,-1.5279287 -1.82762,-2.4973137 0,0 -0.002,0.01268 -0.002,0.01268 z m -8.21229,-16.2909351 c 0,0 0,14.2100732 0,14.2100732 0,0 2.67318,0 2.67318,0 0,0 0,2.3918039 0,2.3918039 0,0 -8.58233,0 -8.58233,0 0,0 0,-2.3918039 0,-2.3918039 0,0 2.53249,0 2.53249,0 0,0 0,-11.1148198 0,-11.1148198 0,0 -3.65804,2.6731886 -3.65804,2.6731886 0,0 0,-3.095262 0,-3.095262 0,0 3.65804,-2.67318 3.65804,-2.67318 0,0 3.37666,0 3.37666,0 z m 9.34488,19.5930258 c -1.23107,-0.208234 -2.78574,-0.472737 -2.78574,-0.472737 0,0 0.33486,1.145251 0.70347,2.407272 0,0 -0.009,-0.0043 -0.009,-0.0043 0.75694,-0.568392 1.46322,-1.205744 2.10338,-1.902175 0,0 -0.0127,-0.02811 -0.0127,-0.02811 z m -3.86627,-0.157579 c 0,0 1.65878,5.672771 1.65878,5.672771 0,0 1.08053,-0.316556 1.08053,-0.316556 0,0 -1.65878,-5.671373 -1.65878,-5.671373 0,0 4.26444,0.724574 4.26444,0.724574 0,0 -7.72832,-10.55907634 -7.72832,-10.55907634 0,0 -0.81883,13.05920034 -0.81883,13.05920034 0,0 3.20218,-2.90954 3.20218,-2.90954 z"
     id="Selection #13"
     inkscape:connector-curvature="0"
     style="fill:none;stroke:#0000ff;stroke-width:0.14069386;stroke-opacity:1;fill-opacity:1" />
  <path
     id="path66"
     d="m -38.424987,-165.1 h 25.4 v 9.525 h 25.399999 v -9.525 h 25.4 v 9.525 h 25.4 v -9.525 h 3.175 v -12.7 h 9.525 v -25.4 h -9.525 v -25.4 h 9.525 V -254 h -9.525 v -12.7 h -3.175 v -19.05 H -63.824987 v 19.05 h -3.175 v 12.7 h -9.525 v 25.4 h 9.525 v 25.4 h -9.525 v 25.4 h 9.525 v 12.7 h 3.175 v 9.525 h 25.4 z m 0,-101.6 v -9.525 h 25.4 v 9.525 z m 50.799999,0 v -9.525 h 25.4 v 9.525 z m 53.975,412.75 H 85.400016 V 127 h 9.525 v -234.95 h -9.525 V -127 H 66.350012 v -9.525 H -66.999987 V -127 h -19.05 v 19.05 h -9.525 V 127 h 9.525 v 19.05 h 19.05 v 9.525 H 66.350012 Z M -63.824987,-117.475 V -127 h 25.4 v 9.525 z m 50.8,0 V -127 h 25.399999 v 9.525 z m 50.799999,0 V -127 h 25.4 v 9.525 z M -86.049987,-79.375001 V -104.775 h 9.525 v 25.399999 z m 161.924999,0 V -104.775 h 9.525004 v 25.399999 z m -161.924999,50.800002 v -25.400002 h 9.525 v 25.400002 z m 161.924999,0 v -25.400002 h 9.525004 v 25.400002 z m 0,50.8 v -25.4 h 9.525004 v 25.4 z m -161.924999,0 v -25.4 h 9.525 v 25.4 z m 0,50.799999 V 47.625001 h 9.525 V 73.025 Z m 161.924999,0 V 47.625001 h 9.525004 V 73.025 Z m 0,50.8 v -25.4 h 9.525004 v 25.4 z m -161.924999,0 v -25.4 h 9.525 v 25.4 z m 22.225,22.225 v -9.525 h 25.4 v 9.525 z m 50.8,0 v -9.525 h 25.399999 v 9.525 z m 50.799999,0 v -9.525 h 25.4 v 9.525 z m 389.207998,9.342 1.787,-0.542 1.647,-0.88 1.443,-1.185 1.185,-1.443 0.88,-1.647 0.542,-1.787 0.183,-1.858 V -127 l -0.183,-1.858 -0.542,-1.787 -0.88,-1.647 -1.185,-1.443 -1.443,-1.185 -1.647,-0.88 -1.787,-0.542 -1.858,-0.183 h -22.225 v 19.05 h -25.4 v -19.05 h -25.4 v 19.05 h -25.4 v -19.05 h -25.4 v 19.05 h -25.39999 v -19.05 h -22.225 l -1.858,0.183 -1.787,0.542 -1.647,0.88 -1.443,1.185 -1.185,1.443 -0.88,1.647 -0.542,1.787 -0.183,1.858 v 273.05 l 0.183,1.858 0.542,1.787 0.88,1.647 1.185,1.443 1.443,1.185 1.647,0.88 1.787,0.542 1.858,0.183 h 171.44999 z m -7.195,-276.244 -0.486,-0.325 -0.325,-0.486 -0.115,-0.574 0.115,-0.575 0.325,-0.486 0.486,-0.325 0.574,-0.114 0.575,0.114 0.486,0.325 0.325,0.486 0.114,0.575 -0.114,0.574 -0.325,0.486 -0.486,0.325 -0.575,0.115 z m -161.92499,0 -0.486,-0.325 -0.325,-0.486 -0.115,-0.574 0.115,-0.575 0.325,-0.486 0.486,-0.325 0.574,-0.114 0.575,0.114 0.486,0.325 0.325,0.486 0.114,0.575 -0.114,0.574 -0.325,0.486 -0.486,0.325 -0.575,0.115 z M 377.50001,146.05 v -9.525 h 25.4 v 9.525 z m -50.8,0 v -9.525 h 25.4 v 9.525 z m -50.79999,0 v -9.525 h 25.39999 v 9.525 z m 143.88799,-3.377 -0.486,-0.325 -0.325,-0.486 -0.115,-0.575 0.115,-0.574 0.325,-0.486 0.486,-0.325 0.574,-0.115 0.575,0.115 0.486,0.325 0.325,0.486 0.114,0.574 -0.114,0.575 -0.325,0.486 -0.486,0.325 -0.575,0.114 z m -161.92499,0 -0.486,-0.325 -0.325,-0.486 -0.115,-0.575 0.115,-0.574 0.325,-0.486 0.486,-0.325 0.574,-0.115 0.575,0.115 0.486,0.325 0.325,0.486 0.114,0.574 -0.114,0.575 -0.325,0.486 -0.486,0.325 -0.575,0.114 z m -32.763,-250.623 h -101.6 v 3.175 h -9.525 v 25.399999 h 9.525 v 25.4 h -9.525 v 25.400002 h 9.525 v 25.4 h -9.525 v 25.4 h 9.525 v 25.4 h -9.525 V 73.025 h 9.525 v 25.4 h -9.525 v 25.4 h 9.525 V 127 h 101.6 z m -95.25,40.639999 v -5e-4 0 l -0.122,-1.2383 -0.361,-1.1912 -0.587,-1.0979 -0.79,-0.9622 -0.962,-0.7897 -1.098,-0.5868 -1.16,-0.3519 v -2.5464 l 0.464,0.0457 1.668,0.5059 1.537,0.8216 1.347,1.1055 1.106,1.3472 0.821,1.537 0.506,1.6677 0.171,1.7338 v 0 5e-4 z m -5.08,7.4885 1.16,-0.3519 1.098,-0.5868 0.962,-0.7897 0.79,-0.9622 0.587,-1.0979 0.361,-1.1912 0.122,-1.2383 v 0 -5e-4 h 2.54 v 5e-4 0 l -0.171,1.7338 -0.506,1.6678 -0.821,1.5369 -1.106,1.3472 -1.347,1.1056 -1.537,0.8215 -1.668,0.5059 -0.464,0.0457 z m 5.08,43.311502 v -5e-4 0 l -0.122,-1.2383 -0.361,-1.1912 -0.587,-1.0979 -0.79,-0.9622 -0.962,-0.7897 -1.098,-0.5868 -1.16,-0.3519 v -2.5464 l 0.464,0.0457 1.668,0.5059 1.537,0.8216 1.347,1.1055 1.106,1.3472 0.821,1.537 0.506,1.6677 0.171,1.7338 v 0 5e-4 z m -5.08,7.4885 1.16,-0.3519 1.098,-0.5868 0.962,-0.7897 0.79,-0.9622 0.587,-1.0979 0.361,-1.1912 0.122,-1.2383 v 0 -5e-4 h 2.54 v 5e-4 0 l -0.171,1.7338 -0.506,1.6678 -0.821,1.5369 -1.106,1.3472 -1.347,1.1056 -1.537,0.8215 -1.668,0.5059 -0.464,0.0457 z m 5.08,43.3115 v -5e-4 0 l -0.122,-1.2383 -0.361,-1.1912 -0.587,-1.0979 -0.79,-0.9622 -0.962,-0.7897 -1.098,-0.5868 -1.16,-0.3519 v -2.5464 l 0.464,0.0457 1.668,0.5059 1.537,0.8215 1.347,1.1056 1.106,1.3472 0.821,1.5369 0.506,1.6678 0.171,1.7338 v 0 5e-4 z m -5.08,7.4885 1.16,-0.3519 1.098,-0.5868 0.962,-0.7897 0.79,-0.9622 0.587,-1.0979 0.361,-1.1912 0.122,-1.2383 v 0 -5e-4 h 2.54 v 5e-4 0 l -0.171,1.7338 -0.506,1.6677 -0.821,1.537 -1.106,1.3472 -1.347,1.1055 -1.537,0.8216 -1.668,0.5059 -0.464,0.0457 z m 5.08,43.311499 v -5e-4 0 l -0.122,-1.2383 -0.361,-1.1912 -0.587,-1.0979 -0.79,-0.9622 -0.962,-0.7897 -1.098,-0.5868 -1.16,-0.3519 v -2.5464 l 0.464,0.0457 1.668,0.5059 1.537,0.8215 1.347,1.1056 1.106,1.3472 0.821,1.5369 0.506,1.6678 0.171,1.7338 v 0 5e-4 z m -5.08,7.4885 1.16,-0.3519 1.098,-0.5868 0.962,-0.7897 0.79,-0.9622 0.587,-1.0979 0.361,-1.1912 0.122,-1.2383 v 0 -5e-4 h 2.54 v 5e-4 0 l -0.171,1.7338 -0.506,1.6677 -0.821,1.537 -1.106,1.3472 -1.347,1.1055 -1.537,0.8216 -1.668,0.5059 -0.464,0.0457 z m -248.92,31.2465 h 9.52499 v -25.4 h -9.52499 v -25.4 h 9.52499 V 47.625001 h -9.52499 v -25.4 h 9.52499 v -25.4 h -9.52499 v -25.4 h 9.52499 v -25.400002 h -9.52499 v -25.4 h 9.52499 V -104.775 h -9.52499 v -3.175 h -101.6 V 127 h 101.6 z m -8.89,-191.135001 v -5e-4 0 l 0.171,-1.7338 0.506,-1.6677 0.821,-1.537 1.106,-1.3472 1.347,-1.1055 1.537,-0.8216 1.668,-0.5059 0.464,-0.0457 v 2.5464 l -1.16,0.3519 -1.098,0.5868 -0.962,0.7897 -0.79,0.9622 -0.587,1.0979 -0.361,1.1912 -0.122,1.2383 v 0 5e-4 z m 7.156,9.9892 -1.668,-0.5059 -1.537,-0.8215 -1.347,-1.1056 -1.106,-1.3472 -0.821,-1.5369 -0.506,-1.6678 -0.171,-1.7338 v 0 -5e-4 h 2.54 v 5e-4 0 l 0.122,1.2383 0.361,1.1912 0.587,1.0979 0.79,0.9622 0.962,0.7897 1.098,0.5868 1.16,0.3519 v 2.5464 z m -7.156,40.810802 v -5e-4 0 l 0.171,-1.7338 0.506,-1.6677 0.821,-1.537 1.106,-1.3472 1.347,-1.1055 1.537,-0.8216 1.668,-0.5059 0.464,-0.0457 v 2.5464 l -1.16,0.3519 -1.098,0.5868 -0.962,0.7897 -0.79,0.9622 -0.587,1.0979 -0.361,1.1912 -0.122,1.2383 v 0 5e-4 z m 7.156,9.9892 -1.668,-0.5059 -1.537,-0.8215 -1.347,-1.1056 -1.106,-1.3472 -0.821,-1.5369 -0.506,-1.6678 -0.171,-1.7338 v 0 -5e-4 h 2.54 v 5e-4 0 l 0.122,1.2383 0.361,1.1912 0.587,1.0979 0.79,0.9622 0.962,0.7897 1.098,0.5868 1.16,0.3519 v 2.5464 z m -7.156,40.8108 v -5e-4 0 l 0.171,-1.7338 0.506,-1.6678 0.821,-1.5369 1.106,-1.3472 1.347,-1.1056 1.537,-0.8215 1.668,-0.5059 0.464,-0.0457 v 2.5464 l -1.16,0.3519 -1.098,0.5868 -0.962,0.7897 -0.79,0.9622 -0.587,1.0979 -0.361,1.1912 -0.122,1.2383 v 0 5e-4 z m 7.156,9.9892 -1.668,-0.5059 -1.537,-0.8216 -1.347,-1.1055 -1.106,-1.3472 -0.821,-1.537 -0.506,-1.6677 -0.171,-1.7338 v 0 -5e-4 h 2.54 v 5e-4 0 l 0.122,1.2383 0.361,1.1912 0.587,1.0979 0.79,0.9622 0.962,0.7897 1.098,0.5868 1.16,0.3519 v 2.5464 z m -7.156,40.810799 v -5e-4 0 l 0.171,-1.7338 0.506,-1.6678 0.821,-1.5369 1.106,-1.3472 1.347,-1.1056 1.537,-0.8215 1.668,-0.5059 0.464,-0.0457 v 2.5464 l -1.16,0.3519 -1.098,0.5868 -0.962,0.7897 -0.79,0.9622 -0.587,1.0979 -0.361,1.1912 -0.122,1.2383 v 0 5e-4 z m 7.156,9.9892 -1.668,-0.5059 -1.537,-0.8216 -1.347,-1.1055 -1.106,-1.3472 -0.821,-1.537 -0.506,-1.6677 -0.171,-1.7338 v 0 -5e-4 h 2.54 v 5e-4 0 l 0.122,1.2383 0.361,1.1912 0.587,1.0979 0.79,0.9622 0.962,0.7897 1.098,0.5868 1.16,0.3519 v 2.5464 z M 2.152662,314.081 l 2.38243,-0.723 2.19566,-1.173 1.92452,-1.58 1.57944,-1.924 1.1736,-2.196 0.7227,-2.382 0.244,-2.478 V 285.75 h 25.4 v 9.525 h 25.4 v -9.525 h 3.175 v -12.7 h 9.525 v -25.4 h -9.525 v -25.4 h 9.525 v -25.4 h -9.525 v -12.7 h -3.175 v -9.525 h -25.4 v 9.525 h -25.4 v -9.525 h -25.399999 v 9.525 h -25.4 v -9.525 h -25.4 v 9.525 h -3.175 v 12.7 h -9.525 v 25.4 h 9.525 v 25.4 h -9.525 v 25.4 h 9.525 v 12.7 h 3.175 v 9.525 h 25.4 v -9.525 h 25.4 v 15.875 l 0.244,2.478 0.7227,2.382 1.1736,2.196 1.5794392,1.924 1.9245198,1.58 2.19566,1.173 2.38243,0.723 2.47765,0.244 z m -3.71647,-6.228 -1.19122,-0.361 -1.09782,-0.587 -0.96227,-0.79 -0.7897,-0.962 -0.58679,-1.098 -0.36136,-1.191 -0.12201,-1.239 0.12201,-1.239 0.36136,-1.191 0.58679,-1.098 0.7897,-0.962 0.96227,-0.79 1.09782,-0.587 1.19122,-0.361 1.238362,-0.122 h 9.16e-4 l 1.238362,0.122 1.19122,0.361 1.09782,0.587 0.96227,0.79 0.7897,0.962 0.58679,1.098 0.36136,1.191 0.12201,1.239 -0.12201,1.239 -0.36136,1.191 -0.58679,1.098 -0.7897,0.962 -0.96227,0.79 -1.09782,0.587 -1.19122,0.361 -1.23882,0.122 z"
     inkscape:connector-curvature="0"
     style="fill:none;stroke:#ff0000;stroke-width:0.5;fill-opacity:1;stroke-opacity:1" />
</svg>
