<?xml version="1.0" encoding="UTF-8" standalone="no"?>
<svg
   xmlns:dc="http://purl.org/dc/elements/1.1/"
   xmlns:cc="http://creativecommons.org/ns#"
   xmlns:rdf="http://www.w3.org/1999/02/22-rdf-syntax-ns#"
   xmlns:svg="http://www.w3.org/2000/svg"
   xmlns="http://www.w3.org/2000/svg"
   xmlns:sodipodi="http://sodipodi.sourceforge.net/DTD/sodipodi-0.dtd"
   xmlns:inkscape="http://www.inkscape.org/namespaces/inkscape"
   width="191mm"
   height="292.60001mm"
   viewBox="-226 -286 191 292.6"
   version="1.1"
   id="svg869"
   sodipodi:docname="lockingBox-top.svg"
   inkscape:version="0.92.3 (2405546, 2018-03-11)">
  <metadata
     id="metadata875">
    <rdf:RDF>
      <cc:Work
         rdf:about="">
        <dc:format>image/svg+xml</dc:format>
        <dc:type
           rdf:resource="http://purl.org/dc/dcmitype/StillImage" />
        <dc:title>OpenSCAD Model</dc:title>
      </cc:Work>
    </rdf:RDF>
  </metadata>
  <defs
     id="defs873" />
  <sodipodi:namedview
     pagecolor="#ffffff"
     bordercolor="#666666"
     borderopacity="1"
     objecttolerance="10"
     gridtolerance="10"
     guidetolerance="10"
     inkscape:pageopacity="0"
     inkscape:pageshadow="2"
     inkscape:window-width="1869"
     inkscape:window-height="1025"
     id="namedview871"
     showgrid="false"
     inkscape:zoom="0.26717908"
     inkscape:cx="562.86342"
     inkscape:cy="201.95761"
     inkscape:window-x="51"
     inkscape:window-y="27"
     inkscape:window-maximized="1"
     inkscape:current-layer="svg869" />
  <title
     id="title865">OpenSCAD Model</title>
  <flowRoot
     xml:space="preserve"
     id="flowRoot927"
     style="font-style:normal;font-weight:normal;font-size:40px;line-height:1.25;font-family:sans-serif;letter-spacing:0px;word-spacing:0px;fill:#000000;fill-opacity:1;stroke:none"
     transform="matrix(0.26458333,0,0,0.26458333,-696.22501,-425.7)"><flowRegion
       id="flowRegion929"><rect
         id="rect931"
         width="648"
         height="1032"
         x="530.17322"
         y="564.94489" /></flowRegion><flowPara
       id="flowPara933" /></flowRoot>  <text
     xml:space="preserve"
     style="font-style:normal;font-variant:normal;font-weight:normal;font-stretch:normal;font-size:25.39999962px;line-height:1.25;font-family:serif;-inkscape-font-specification:'serif, Normal';font-variant-ligatures:normal;font-variant-caps:normal;font-variant-numeric:normal;font-feature-settings:normal;text-align:center;letter-spacing:0px;word-spacing:0px;writing-mode:lr-tb;text-anchor:middle;fill:none;fill-opacity:1;stroke:#0000ff;stroke-width:0.26458332;stroke-opacity:1"
     x="-128.1705"
     y="-169.85709"
     id="text947"><tspan
       sodipodi:role="line"
       id="tspan1186"
       x="-128.1705"
       y="-169.85709">Choose</tspan><tspan
       sodipodi:role="line"
       id="tspan1188"
       x="-128.1705"
       y="-138.10709">    hio</tspan><tspan
       sodipodi:role="line"
       id="tspan1190"
       x="-128.1705"
       y="-106.35709">First</tspan></text>
  <path
     d="m -138.0595,-141.27898 c 3.67212,-5.18174 3.13889,-12.44296 -1.45899,-16.99441 -1.09179,-1.08052 -2.38617,-1.98237 -3.79873,-2.59158 -1.3577,-0.58528 -2.87157,-1.04816 -4.36152,-1.04676 0,0 -2.81387,0 -2.81387,0 -1.99363,0.32501 -3.64819,0.82729 -5.34636,1.95002 -2.03303,1.34503 -3.689,3.13044 -4.73857,5.34636 -2.78293,5.86975 -0.66267,13.43486 4.87925,16.87482 1.86702,1.15791 4.14907,1.76712 6.33123,1.87405 0,0 1.12555,0 1.12555,0 1.6222,-0.0999 2.82936,-0.22933 4.36151,-0.86105 0,0 -0.0239,0.0436 -0.0239,0.0436 -0.0548,0.89481 -0.0915,1.45899 -0.0915,1.45899 0,0 3.20219,-2.90954 3.20219,-2.90954 0,0 0.39676,1.35769 0.80336,2.74494 0,0 0.0282,-0.003 0.0282,-0.003 -0.2237,0.1435 -0.45163,0.28138 -0.68237,0.41364 -3.29505,1.88671 -5.74594,2.07242 -9.42648,2.03021 -1.338,-0.0155 -3.39354,-0.52197 -4.6429,-1.01299 -4.89896,-1.92329 -8.08427,-5.62354 -9.50669,-10.6646 -0.55292,-1.95846 -0.4854,-3.36539 -0.48258,-5.34637 0.009,-5.06497 3.31475,-10.19185 7.59747,-12.73982 2.03866,-1.21278 3.87612,-1.73476 6.19053,-2.11322 2.2905,-0.28279 5.41531,-0.0211 7.59747,0.74005 1.57295,0.55011 3.49625,1.59124 4.78359,2.64082 6.72375,5.48284 7.73957,15.40738 2.60565,22.3056 -0.0971,0.13085 -0.19697,0.26169 -0.29967,0.38972 0,0 -0.003,-0.045 -0.003,-0.045 -0.47133,-0.64437 -1.11852,-1.52792 -1.82762,-2.49731 0,0 -0.002,0.0127 -0.002,0.0127 z m -8.21229,-16.29093 c 0,0 0,14.21007 0,14.21007 0,0 2.67318,0 2.67318,0 0,0 0,2.39181 0,2.39181 0,0 -8.58233,0 -8.58233,0 0,0 0,-2.39181 0,-2.39181 0,0 2.53249,0 2.53249,0 0,0 0,-11.11482 0,-11.11482 0,0 -3.65804,2.67319 -3.65804,2.67319 0,0 0,-3.09526 0,-3.09526 0,0 3.65804,-2.67318 3.65804,-2.67318 0,0 3.37666,0 3.37666,0 z m 9.34488,19.59302 c -1.23107,-0.20823 -2.78574,-0.47273 -2.78574,-0.47273 0,0 0.33486,1.14525 0.70347,2.40727 0,0 -0.009,-0.004 -0.009,-0.004 0.75694,-0.56839 1.46322,-1.20575 2.10338,-1.90218 0,0 -0.0127,-0.0281 -0.0127,-0.0281 z m -3.86627,-0.15758 c 0,0 1.65878,5.67278 1.65878,5.67278 0,0 1.08053,-0.31656 1.08053,-0.31656 0,0 -1.65878,-5.67137 -1.65878,-5.67137 0,0 4.26444,0.72457 4.26444,0.72457 0,0 -7.72832,-10.55908 -7.72832,-10.55908 0,0 -0.81883,13.0592 -0.81883,13.0592 0,0 3.20218,-2.90954 3.20218,-2.90954 z"
     id="Selection #13"
     inkscape:connector-curvature="0"
     style="fill:none;fill-opacity:1;stroke:#0000ff;stroke-width:0.14069386;stroke-opacity:1" />
  <path
     style="fill:none;stroke:#ff0000;stroke-width:0.5;stroke-opacity:1"
     d="m -42.917,6.16701 1.787,-0.542 1.647,-0.88 1.443,-1.185 1.185,-1.443 0.88,-1.647 0.542,-1.787 0.183,-1.858 V -276.225 l -0.183,-1.858 -0.542,-1.787 -0.88,-1.647 -1.185,-1.443 -1.443,-1.185 -1.647,-0.88 -1.787,-0.542 -1.858,-0.183 H -67 v 19.05 h -25.4 v -19.05 h -25.4 v 19.05 h -25.4 v -19.05 h -25.4 v 19.05 H -194 v -19.05 h -22.225 l -1.858,0.183 -1.787,0.542 -1.647,0.88 -1.443,1.185 -1.185,1.443 -0.88,1.647 -0.542,1.787 -0.183,1.858 V -3.17499 l 0.183,1.858 0.542,1.787 0.88,1.647 1.185,1.443 1.443,1.185 1.647,0.88 1.787,0.542 1.858,0.183 h 171.45 z"
     id="path71"
     inkscape:connector-curvature="0" />
  <path
     style="fill:none;stroke:#ff0000;stroke-width:0.5;stroke-opacity:1"
     d="m -50.112,-270.077 -0.486,-0.325 -0.325,-0.486 -0.115,-0.574 0.115,-0.575 0.325,-0.486 0.486,-0.325 0.574,-0.114 0.575,0.114 0.486,0.325 0.325,0.486 0.114,0.575 -0.114,0.574 -0.325,0.486 -0.486,0.325 -0.575,0.115 z"
     id="path69"
     inkscape:connector-curvature="0" />
  <path
     style="fill:none;stroke:#ff0000;stroke-width:0.5;stroke-opacity:1"
     d="m -212.037,-270.077 -0.486,-0.325 -0.325,-0.486 -0.115,-0.574 0.115,-0.575 0.325,-0.486 0.486,-0.325 0.574,-0.114 0.575,0.114 0.486,0.325 0.325,0.486 0.114,0.575 -0.114,0.574 -0.325,0.486 -0.486,0.325 -0.575,0.115 z"
     id="path67"
     inkscape:connector-curvature="0" />
  <path
     style="fill:none;stroke:#ff0000;stroke-width:0.5;stroke-opacity:1"
     d="m -92.4,-3.17499 v -9.525 H -67 v 9.525 z"
     id="path65"
     inkscape:connector-curvature="0" />
  <path
     style="fill:none;stroke:#ff0000;stroke-width:0.5;stroke-opacity:1"
     d="m -143.2,-3.17499 v -9.525 h 25.4 v 9.525 z"
     id="path63"
     inkscape:connector-curvature="0" />
  <path
     style="fill:none;stroke:#ff0000;stroke-width:0.5;stroke-opacity:1"
     d="m -194,-3.17499 v -9.525 h 25.4 v 9.525 z"
     id="path61"
     inkscape:connector-curvature="0" />
  <path
     style="fill:none;stroke:#ff0000;stroke-width:0.5;stroke-opacity:1"
     d="m -50.112,-6.55199 -0.486,-0.325 -0.325,-0.486 -0.115,-0.575 0.115,-0.574 0.325,-0.486 0.486,-0.325 0.574,-0.115 0.575,0.115 0.486,0.325 0.325,0.486 0.114,0.574 -0.114,0.575 -0.325,0.486 -0.486,0.325 -0.575,0.114 z"
     id="path59"
     inkscape:connector-curvature="0" />
  <path
     style="fill:none;stroke:#ff0000;stroke-width:0.5;stroke-opacity:1"
     d="m -212.037,-6.55199 -0.486,-0.325 -0.325,-0.486 -0.115,-0.575 0.115,-0.574 0.325,-0.486 0.486,-0.325 0.574,-0.115 0.575,0.115 0.486,0.325 0.325,0.486 0.114,0.574 -0.114,0.575 -0.325,0.486 -0.486,0.325 -0.575,0.114 z"
     id="path57"
     inkscape:connector-curvature="0" />
</svg>
