<?xml version="1.0" encoding="UTF-8" standalone="no"?>
<svg
   xmlns:dc="http://purl.org/dc/elements/1.1/"
   xmlns:cc="http://creativecommons.org/ns#"
   xmlns:rdf="http://www.w3.org/1999/02/22-rdf-syntax-ns#"
   xmlns:svg="http://www.w3.org/2000/svg"
   xmlns="http://www.w3.org/2000/svg"
   xmlns:sodipodi="http://sodipodi.sourceforge.net/DTD/sodipodi-0.dtd"
   xmlns:inkscape="http://www.inkscape.org/namespaces/inkscape"
   width="152.90007mm"
   height="273.55133mm"
   viewBox="-226 -286 152.90007 273.55133"
   version="1.1"
   id="svg869"
   sodipodi:docname="lockingBox-end.svg"
   inkscape:version="0.92.3 (2405546, 2018-03-11)">
  <metadata
     id="metadata875">
    <rdf:RDF>
      <cc:Work
         rdf:about="">
        <dc:format>image/svg+xml</dc:format>
        <dc:type
           rdf:resource="http://purl.org/dc/dcmitype/StillImage" />
        <dc:title>OpenSCAD Model</dc:title>
      </cc:Work>
    </rdf:RDF>
  </metadata>
  <defs
     id="defs873" />
  <sodipodi:namedview
     pagecolor="#ffffff"
     bordercolor="#666666"
     borderopacity="1"
     objecttolerance="10"
     gridtolerance="10"
     guidetolerance="10"
     inkscape:pageopacity="0"
     inkscape:pageshadow="2"
     inkscape:window-width="1869"
     inkscape:window-height="1025"
     id="namedview871"
     showgrid="false"
     inkscape:zoom="0.37784828"
     inkscape:cx="745.65102"
     inkscape:cy="312.10454"
     inkscape:window-x="51"
     inkscape:window-y="27"
     inkscape:window-maximized="1"
     inkscape:current-layer="svg869" />
  <title
     id="title865">OpenSCAD Model</title>
  <flowRoot
     xml:space="preserve"
     id="flowRoot927"
     style="font-style:normal;font-weight:normal;font-size:40px;line-height:1.25;font-family:sans-serif;letter-spacing:0px;word-spacing:0px;fill:#000000;fill-opacity:1;stroke:none"
     transform="matrix(0.26458333,0,0,0.26458333,-375.55,-603.49989)"><flowRegion
       id="flowRegion929"><rect
         id="rect931"
         width="648"
         height="1032"
         x="530.17322"
         y="564.94489" /></flowRegion><flowPara
       id="flowPara933" /></flowRoot>  <path
     style="fill:none;stroke:#ff0000;stroke-width:0.5;stroke-opacity:1"
     d="m -187.64998,-165.1 h 25.40001 v 9.525 h 25.40001 v -9.525 h 25.4 v 9.525 h 25.400012 v -9.525 h 3.175001 v -12.7 h 9.525004 v -25.4 h -9.525004 v -25.4 h 9.525004 V -254 h -9.525004 v -12.7 h -3.175001 v -19.05 H -213.04999 v 19.05 h -3.17501 v 12.7 h -9.525 v 25.4 h 9.525 v 25.4 h -9.525 v 25.4 h 9.525 v 12.7 h 3.17501 v 9.525 h 25.40001 z"
     id="path111"
     inkscape:connector-curvature="0" />
  <path
     style="fill:none;stroke:#ff0000;stroke-width:0.5;stroke-opacity:1"
     d="m -187.64998,-266.7 v -9.525 h 25.40001 v 9.525 z"
     id="path109"
     inkscape:connector-curvature="0" />
  <path
     style="fill:none;stroke:#ff0000;stroke-width:0.5;stroke-opacity:1"
     d="m -136.84996,-266.7 v -9.525 h 25.4 v 9.525 z"
     id="path107"
     inkscape:connector-curvature="0" />
  <path
     style="fill:none;stroke:#ff0000;stroke-width:0.5;stroke-opacity:1"
     d="m -147.07235,-12.943881 2.38243,-0.723 2.19566,-1.173 1.92452,-1.58 1.57944,-1.924 1.1736,-2.196 0.7227,-2.382 0.244,-2.478 v -15.875 h 25.4 v 9.525 h 25.400002 v -9.525 h 3.175 v -12.7 h 9.525 v -25.4 h -9.525 v -25.399999 h 9.525 v -25.4 h -9.525 v -12.7 h -3.175 v -9.525 H -111.45 v 9.525 h -25.4 v -9.525 h -25.4 v 9.525 h -25.4 v -9.525 h -25.4 v 9.525 h -3.175 v 12.7 h -9.525 v 25.4 h 9.525 v 25.399999 h -9.525 v 25.4 h 9.525 v 12.7 h 3.175 v 9.525 h 25.4 v -9.525 h 25.4 v 15.875 l 0.244,2.478 0.7227,2.382 1.1736,2.196 1.57944,1.924 1.92452,1.58 2.19566,1.173 2.38243,0.723 2.47765,0.244 z"
     id="path19"
     inkscape:connector-curvature="0" />
  <path
     style="fill:none;stroke:#ff0000;stroke-width:0.5;stroke-opacity:1"
     d="m -150.78882,-19.171881 -1.19122,-0.361 -1.09782,-0.587 -0.96227,-0.79 -0.7897,-0.962 -0.58679,-1.098 -0.36136,-1.191 -0.12201,-1.239 0.12201,-1.239 0.36136,-1.191 0.58679,-1.098 0.7897,-0.962 0.96227,-0.79 1.09782,-0.587 1.19122,-0.361 1.23837,-0.122 h 9.1e-4 l 1.23836,0.122 1.19122,0.361 1.09782,0.587 0.96227,0.79 0.7897,0.962 0.58679,1.098 0.36136,1.191 0.12201,1.239 -0.12201,1.239 -0.36136,1.191 -0.58679,1.098 -0.7897,0.962 -0.96227,0.79 -1.09782,0.587 -1.19122,0.361 -1.23882,0.122 z"
     id="path1163"
     inkscape:connector-curvature="0" />
</svg>
