<?xml version="1.0" encoding="UTF-8" standalone="no"?>
<svg
   xmlns:dc="http://purl.org/dc/elements/1.1/"
   xmlns:cc="http://creativecommons.org/ns#"
   xmlns:rdf="http://www.w3.org/1999/02/22-rdf-syntax-ns#"
   xmlns:svg="http://www.w3.org/2000/svg"
   xmlns="http://www.w3.org/2000/svg"
   xmlns:sodipodi="http://sodipodi.sourceforge.net/DTD/sodipodi-0.dtd"
   xmlns:inkscape="http://www.inkscape.org/namespaces/inkscape"
   width="111.62501mm"
   height="235.45001mm"
   viewBox="-226 -286 111.62501 235.45001"
   version="1.1"
   id="svg869"
   sodipodi:docname="lockingBox-side.svg"
   inkscape:version="0.92.3 (2405546, 2018-03-11)">
  <metadata
     id="metadata875">
    <rdf:RDF>
      <cc:Work
         rdf:about="">
        <dc:format>image/svg+xml</dc:format>
        <dc:type
           rdf:resource="http://purl.org/dc/dcmitype/StillImage" />
        <dc:title>OpenSCAD Model</dc:title>
      </cc:Work>
    </rdf:RDF>
  </metadata>
  <defs
     id="defs873" />
  <sodipodi:namedview
     pagecolor="#ffffff"
     bordercolor="#666666"
     borderopacity="1"
     objecttolerance="10"
     gridtolerance="10"
     guidetolerance="10"
     inkscape:pageopacity="0"
     inkscape:pageshadow="2"
     inkscape:window-width="1869"
     inkscape:window-height="1025"
     id="namedview871"
     showgrid="false"
     inkscape:zoom="0.26717908"
     inkscape:cx="60.593797"
     inkscape:cy="133.88232"
     inkscape:window-x="51"
     inkscape:window-y="27"
     inkscape:window-maximized="1"
     inkscape:current-layer="svg869" />
  <title
     id="title865">OpenSCAD Model</title>
  <path
     style="fill:none;stroke:#ff0000;stroke-width:0.5;stroke-opacity:1"
     d="m -114.625,-285.75 h -101.6 v 3.175 h -9.525 v 25.40001 h 9.525 v 25.4 h -9.525 v 25.39999 h 9.525 v 25.4 h -9.525 v 25.4 h 9.525 v 25.4 h -9.525 v 25.4 h 9.525 v 25.4 h -9.525 v 25.4 h 9.525 v 3.175 h 101.6 z"
     id="path1090"
     inkscape:connector-curvature="0" />
  <path
     style="fill:none;stroke:#ff0000;stroke-width:0.5;stroke-opacity:1"
     d="m -209.963,-245.99899 -0.034,-0.3498 -0.361,-1.1912 -0.587,-1.0979 -0.79,-0.9622 -0.962,-0.7897 -0.48,-0.2565 v -2.7844 l 0.354,0.1074 1.537,0.8216 1.347,1.1055 1.106,1.3472 0.821,1.537 0.506,1.6677 0.083,0.8453 z"
     id="path1088"
     inkscape:connector-curvature="0" />
  <path
     style="fill:none;stroke:#ff0000;stroke-width:0.5;stroke-opacity:1"
     d="m -213.177,-238.30369 0.48,-0.2565 0.962,-0.7897 0.79,-0.9622 0.587,-1.0979 0.361,-1.1912 0.034,-0.3498 h 2.54 l -0.083,0.8453 -0.506,1.6678 -0.821,1.5369 -1.106,1.3472 -1.347,1.1056 -1.537,0.8215 -0.354,0.1074 z"
     id="path1086"
     inkscape:connector-curvature="0" />
  <path
     style="fill:none;stroke:#ff0000;stroke-width:0.5;stroke-opacity:1"
     d="m -209.963,-195.199 -0.034,-0.3498 -0.361,-1.1912 -0.587,-1.0979 -0.79,-0.9622 -0.962,-0.7897 -0.48,-0.2565 v -2.7844 l 0.354,0.1074 1.537,0.8216 1.347,1.1055 1.106,1.3472 0.821,1.537 0.506,1.6677 0.083,0.8453 z"
     id="path1084"
     inkscape:connector-curvature="0" />
  <path
     style="fill:none;stroke:#ff0000;stroke-width:0.5;stroke-opacity:1"
     d="m -213.177,-187.5037 0.48,-0.2565 0.962,-0.7897 0.79,-0.9622 0.587,-1.0979 0.361,-1.1912 0.034,-0.3498 h 2.54 l -0.083,0.8453 -0.506,1.6678 -0.821,1.5369 -1.106,1.3472 -1.347,1.1056 -1.537,0.8215 -0.354,0.1074 z"
     id="path1082"
     inkscape:connector-curvature="0" />
  <path
     style="fill:none;stroke:#ff0000;stroke-width:0.5;stroke-opacity:1"
     d="m -209.963,-144.399 -0.034,-0.3498 -0.361,-1.1912 -0.587,-1.0979 -0.79,-0.9622 -0.962,-0.7897 -0.48,-0.2565 v -2.7844 l 0.354,0.1074 1.537,0.8215 1.347,1.1056 1.106,1.3472 0.821,1.5369 0.506,1.6678 0.083,0.8453 z"
     id="path1080"
     inkscape:connector-curvature="0" />
  <path
     style="fill:none;stroke:#ff0000;stroke-width:0.5;stroke-opacity:1"
     d="m -213.177,-136.7037 0.48,-0.2565 0.962,-0.7897 0.79,-0.9622 0.587,-1.0979 0.361,-1.1912 0.034,-0.3498 h 2.54 l -0.083,0.8453 -0.506,1.6677 -0.821,1.537 -1.106,1.3472 -1.347,1.1055 -1.537,0.8216 -0.354,0.1074 z"
     id="path1078"
     inkscape:connector-curvature="0" />
  <path
     style="fill:none;stroke:#ff0000;stroke-width:0.5;stroke-opacity:1"
     d="m -209.963,-93.599 -0.034,-0.3498 -0.361,-1.1912 -0.587,-1.0979 -0.79,-0.9622 -0.962,-0.7897 -0.48,-0.2565 v -2.7844 l 0.354,0.1074 1.537,0.8215 1.347,1.1056 1.106,1.3472 0.821,1.5369 0.506,1.6678 0.083,0.8453 z"
     id="path1076"
     inkscape:connector-curvature="0" />
  <path
     style="fill:none;stroke:#ff0000;stroke-width:0.5;stroke-opacity:1"
     d="m -213.177,-85.9037 0.48,-0.2565 0.962,-0.7897 0.79,-0.9622 0.587,-1.0979 0.361,-1.1912 0.034,-0.3498 h 2.54 l -0.083,0.8453 -0.506,1.6677 -0.821,1.537 -1.106,1.3472 -1.347,1.1055 -1.537,0.8216 -0.354,0.1074 z"
     id="path1074"
     inkscape:connector-curvature="0" />
  <flowRoot
     xml:space="preserve"
     id="flowRoot927"
     style="font-style:normal;font-weight:normal;font-size:40px;line-height:1.25;font-family:sans-serif;letter-spacing:0px;word-spacing:0px;fill:#000000;fill-opacity:1;stroke:none"
     transform="matrix(0.26458333,0,0,0.26458333,-566.05001,-454.275)"><flowRegion
       id="flowRegion929"><rect
         id="rect931"
         width="648"
         height="1032"
         x="530.17322"
         y="564.94489" /></flowRegion><flowPara
       id="flowPara933" /></flowRoot></svg>
